<svg width="32" height="33" viewBox="0 0 32 33" fill="none" xmlns="http://www.w3.org/2000/svg">
<path d="M8.39969 7.16667H28L25.3333 16.5H9.83562M26.6667 21.8333H10.6667L8 4.5H4M12 27.1667C12 27.903 11.403 28.5 10.6667 28.5C9.93029 28.5 9.33333 27.903 9.33333 27.1667C9.33333 26.4303 9.93029 25.8333 10.6667 25.8333C11.403 25.8333 12 26.4303 12 27.1667ZM26.6667 27.1667C26.6667 27.903 26.0697 28.5 25.3333 28.5C24.597 28.5 24 27.903 24 27.1667C24 26.4303 24.597 25.8333 25.3333 25.8333C26.0697 25.8333 26.6667 26.4303 26.6667 27.1667Z" stroke="#210401" stroke-width="1.84" stroke-linecap="round" stroke-linejoin="round"/>
</svg>
