<svg width="22" height="22" viewBox="0 0 22 22" fill="none" xmlns="http://www.w3.org/2000/svg">
<path d="M4.95003 1.92578H17.05C18.0584 1.92578 18.8834 2.75078 18.8834 3.75911V5.77578C18.8834 6.50911 18.425 7.42578 17.9667 7.88412L14.025 11.3674C13.475 11.8258 13.1084 12.7424 13.1084 13.4758V17.4174C13.1084 17.9674 12.7417 18.7008 12.2834 18.9758L11 19.8008C9.80837 20.5341 8.15837 19.7091 8.15837 18.2424V13.3841C8.15837 12.7424 7.7917 11.9174 7.42503 11.4591L3.9417 7.79245C3.48337 7.33411 3.1167 6.50911 3.1167 5.95911V3.85078C3.1167 2.75078 3.9417 1.92578 4.95003 1.92578Z" stroke="white" stroke-width="1.5" stroke-miterlimit="10" stroke-linecap="round" stroke-linejoin="round"/>
<path d="M10.0192 1.92578L5.5 9.16745" stroke="white" stroke-width="1.5" stroke-miterlimit="10" stroke-linecap="round" stroke-linejoin="round"/>
</svg>
