<svg width="18" height="20" viewBox="0 0 18 20" fill="none" xmlns="http://www.w3.org/2000/svg">
<path d="M17.5 20.0078H0V0.0078125H17.5V20.0078Z" stroke="#E5E7EB"/>
<g clip-path="url(#clip0_5736_45873)">
<g clip-path="url(#clip1_5736_45873)">
<path d="M8.75391 5.51465C6.26953 5.51465 4.26562 7.51855 4.26562 10.0029C4.26562 12.4873 6.26953 14.4912 8.75391 14.4912C11.2383 14.4912 13.2422 12.4873 13.2422 10.0029C13.2422 7.51855 11.2383 5.51465 8.75391 5.51465ZM8.75391 12.9209C7.14844 12.9209 5.83594 11.6123 5.83594 10.0029C5.83594 8.39355 7.14453 7.08496 8.75391 7.08496C10.3633 7.08496 11.6719 8.39355 11.6719 10.0029C11.6719 11.6123 10.3594 12.9209 8.75391 12.9209ZM14.4727 5.33105C14.4727 5.91309 14.0039 6.37793 13.4258 6.37793C12.8438 6.37793 12.3789 5.90918 12.3789 5.33105C12.3789 4.75293 12.8477 4.28418 13.4258 4.28418C14.0039 4.28418 14.4727 4.75293 14.4727 5.33105ZM17.4453 6.39355C17.3789 4.99121 17.0586 3.74902 16.0312 2.72559C15.0078 1.70215 13.7656 1.38184 12.3633 1.31152C10.918 1.22949 6.58594 1.22949 5.14062 1.31152C3.74219 1.37793 2.5 1.69824 1.47266 2.72168C0.445313 3.74512 0.128906 4.9873 0.0585937 6.38965C-0.0234375 7.83496 -0.0234375 12.167 0.0585937 13.6123C0.125 15.0146 0.445313 16.2568 1.47266 17.2803C2.5 18.3037 3.73828 18.624 5.14062 18.6943C6.58594 18.7764 10.918 18.7764 12.3633 18.6943C13.7656 18.6279 15.0078 18.3076 16.0312 17.2803C17.0547 16.2568 17.375 15.0146 17.4453 13.6123C17.5273 12.167 17.5273 7.83887 17.4453 6.39355ZM15.5781 15.1631C15.2734 15.9287 14.6836 16.5186 13.9141 16.8271C12.7617 17.2842 10.0273 17.1787 8.75391 17.1787C7.48047 17.1787 4.74219 17.2803 3.59375 16.8271C2.82812 16.5225 2.23828 15.9326 1.92969 15.1631C1.47266 14.0107 1.57813 11.2764 1.57813 10.0029C1.57813 8.72949 1.47656 5.99121 1.92969 4.84277C2.23438 4.07715 2.82422 3.4873 3.59375 3.17871C4.74609 2.72168 7.48047 2.82715 8.75391 2.82715C10.0273 2.82715 12.7656 2.72559 13.9141 3.17871C14.6797 3.4834 15.2695 4.07324 15.5781 4.84277C16.0352 5.99512 15.9297 8.72949 15.9297 10.0029C15.9297 11.2764 16.0352 14.0146 15.5781 15.1631Z" fill="#210401"/>
</g>
</g>
<defs>
<clipPath id="clip0_5736_45873">
<rect width="17.5" height="20" fill="white" transform="translate(0 0.0078125)"/>
</clipPath>
<clipPath id="clip1_5736_45873">
<path d="M0 0.0078125H17.5V20.0078H0V0.0078125Z" fill="white"/>
</clipPath>
</defs>
</svg>
