<svg width="18" height="20" viewBox="0 0 18 20" fill="none" xmlns="http://www.w3.org/2000/svg">
<g clip-path="url(#clip0_5736_45555)">
<path d="M16.7501 1.25781H1.74622C1.05872 1.25781 0.500122 1.82422 0.500122 2.51953V17.4961C0.500122 18.1914 1.05872 18.7578 1.74622 18.7578H16.7501C17.4376 18.7578 18.0001 18.1914 18.0001 17.4961V2.51953C18.0001 1.82422 17.4376 1.25781 16.7501 1.25781ZM5.78918 16.2578H3.19543V7.90625H5.79309V16.2578H5.78918ZM4.49231 6.76562C3.66028 6.76562 2.9884 6.08984 2.9884 5.26172C2.9884 4.43359 3.66028 3.75781 4.49231 3.75781C5.32043 3.75781 5.99622 4.43359 5.99622 5.26172C5.99622 6.09375 5.32434 6.76562 4.49231 6.76562ZM15.5118 16.2578H12.9181V12.1953C12.9181 11.2266 12.8986 9.98047 11.5704 9.98047C10.2189 9.98047 10.0118 11.0352 10.0118 12.125V16.2578H7.41809V7.90625H9.90637V9.04688H9.94153C10.2892 8.39062 11.1368 7.69922 12.3986 7.69922C15.0236 7.69922 15.5118 9.42969 15.5118 11.6797V16.2578Z" fill="#210401"/>
</g>
<defs>
<clipPath id="clip0_5736_45555">
<path d="M0.500122 0.0078125H18.0001V20.0078H0.500122V0.0078125Z" fill="white"/>
</clipPath>
</defs>
</svg>
