<svg width="500" height="500" viewBox="0 0 500 500" fill="none" xmlns="http://www.w3.org/2000/svg">
<path d="M376.94 219.386L367.447 236.656C363.363 244.085 354.716 246.598 347.276 242.509C340.377 238.717 337.334 229.778 341.418 222.349L356.605 194.719C356.748 194.46 357.018 194.608 357.167 194.338C357.039 193.93 357.039 193.93 357.188 193.66C360.986 186.749 370.455 183.998 377.354 187.791C394.094 196.992 414.943 191.161 423.996 174.691C433.192 157.962 426.798 137.493 410.058 128.292C399.168 122.306 386.393 122.902 376.528 128.886C369.312 133.227 360.177 130.966 355.841 123.739C351.77 116.671 353.889 107.796 361.11 103.471C379.722 92.2563 403.916 91.0233 424.365 102.263C455.185 119.204 466.689 158.041 449.754 188.85C435.299 215.148 404.849 227.123 376.94 219.386ZM344.967 277.554L342.34 282.334C338.25 289.774 329.603 292.287 322.163 288.197C315.264 284.405 312.221 275.466 316.31 268.026L318.937 263.246C322.878 256.077 332.197 253.595 339.097 257.387C346.538 261.478 348.908 270.385 344.967 277.554Z" fill="#EBEBEB"/>
<path d="M316.644 93.7118L318.637 80.5548C319.495 74.8948 324.39 71.2878 330.058 72.1468C335.314 72.9428 339.325 77.8998 338.468 83.5598L335.279 104.61C335.249 104.808 335.043 104.777 335.012 104.982C335.188 105.211 335.188 105.211 335.157 105.417C334.36 110.681 328.999 114.631 323.743 113.835C310.989 111.903 299.133 120.456 297.232 133.004C295.301 145.749 304.121 157.233 316.875 159.165C325.172 160.422 333.13 157.068 337.988 150.978C341.551 146.545 347.867 145.85 352.299 149.421C356.526 152.952 357.251 159.071 353.681 163.494C344.497 174.938 329.45 181.356 313.87 178.996C290.39 175.438 274.05 153.503 277.607 130.031C280.643 109.993 297.152 95.3098 316.644 93.7118ZM323.358 49.3958L323.91 45.7538C324.769 40.0858 329.664 36.4788 335.332 37.3368C340.589 38.1328 344.599 43.0898 343.741 48.7578L343.189 52.3998C342.361 57.8618 337.033 61.6058 331.776 60.8098C326.108 59.9508 322.53 54.8578 323.358 49.3958Z" fill="#EBEBEB"/>
<path d="M87.2872 122.996L81.6302 110.951C79.1962 105.77 81.2612 100.05 86.4502 97.6135C91.2622 95.3535 97.3512 97.2445 99.7852 102.425L108.835 121.696C108.92 121.877 108.731 121.966 108.82 122.154C109.093 122.246 109.093 122.247 109.182 122.436C111.445 127.255 109.185 133.517 104.373 135.777C92.6972 141.26 87.5962 154.962 92.9912 166.449C98.4712 178.117 112.186 182.76 123.862 177.277C131.457 173.71 136.209 166.497 136.862 158.734C137.359 153.069 142.224 148.981 147.892 149.486C153.369 150.072 157.372 154.754 156.864 160.415C155.591 175.033 146.651 188.734 132.388 195.432C110.892 205.527 85.1172 196.376 75.0252 174.887C66.4112 156.543 71.9732 135.16 87.2872 122.996ZM68.2342 82.4255L66.6682 79.0915C64.2312 73.9025 66.2952 68.1825 71.4842 65.7455C76.2962 63.4855 82.3852 65.3765 84.8222 70.5655L86.3882 73.8995C88.7362 78.9005 86.3882 84.9745 81.5762 87.2345C76.3872 89.6705 70.5822 87.4255 68.2342 82.4255Z" fill="#EBEBEB"/>
<path d="M304.99 361.453C304.99 361.453 280.902 404.051 280.887 404.082C277.017 412.672 273.778 420.273 272.469 424.361C272.459 424.382 272.449 424.402 272.449 424.428C271.953 425.97 271.738 426.999 271.887 427.367C271.898 427.397 271.898 427.423 271.913 427.444C273.689 430.328 341.44 463.253 344.189 463.605C346.943 463.973 348.16 456.15 346.551 452.774C344.921 449.388 324.629 425.186 324.629 425.186L348.281 382.418L304.99 361.453Z" fill="#F7A9A0"/>
<path d="M343.106 463.357C340.361 463 273.689 430.321 271.917 427.445C271.9 427.417 271.894 427.392 271.887 427.367C271.733 426.998 271.959 425.964 272.443 424.429C272.451 424.395 272.453 424.384 272.47 424.364C273.78 420.276 277.02 412.671 280.882 404.076C280.885 404.065 284.941 396.631 286.558 394.047L329.649 416.32L324.633 425.184C324.633 425.184 343.846 449.142 345.467 452.52C347.088 455.899 345.862 463.717 343.106 463.357Z" fill="#EBEBEB"/>
<path d="M344.345 462.436C341.578 462.016 274.075 427.241 272.349 424.284C271.673 423.172 276.167 413.041 281.948 400.955C282.01 400.829 282.071 400.703 282.133 400.578L325.934 422.527L325.536 423.257C325.536 423.257 345.42 448.124 346.978 451.577C348.517 455.011 347.107 462.867 344.345 462.436Z" fill="#0A0A0A"/>
<path d="M344.929 459.426C333.694 453.285 287.8 429.574 276.227 424.358C276.133 424.315 276.1 424.378 276.19 424.429C287.193 430.759 333.278 454.097 344.833 459.613C345.077 459.729 345.166 459.556 344.929 459.426Z" fill="white"/>
<path d="M329.126 425.277C325.079 422.135 319.248 420.001 314.183 421.429C313.987 421.484 314.068 421.762 314.237 421.791C319.372 422.674 323.958 423.906 328.817 425.834C329.16 425.97 329.416 425.502 329.126 425.277Z" fill="white"/>
<path d="M331.355 428.887C327.308 425.744 321.477 423.611 316.412 425.038C316.216 425.093 316.297 425.371 316.466 425.4C321.601 426.283 326.187 427.515 331.046 429.443C331.388 429.579 331.645 429.112 331.355 428.887Z" fill="white"/>
<path d="M333.584 432.505C329.537 429.362 323.706 427.228 318.641 428.656C318.445 428.711 318.526 428.989 318.695 429.018C323.83 429.901 328.416 431.133 333.275 433.061C333.617 433.197 333.873 432.73 333.584 432.505Z" fill="white"/>
<path d="M289.383 413.88C285.75 408.912 278.023 414.55 281.662 419.526C285.295 424.495 293.022 418.857 289.383 413.88Z" fill="white"/>
<path opacity="0.1" d="M328.505 426.984L333.356 457.295C339.467 460.334 343.688 462.334 344.34 462.433C347.103 462.864 348.517 455.007 346.981 451.571C345.798 448.963 334.107 434.056 328.505 426.984Z" fill="black"/>
<path d="M346.622 460.55C347.591 461.638 345.239 465.561 344.199 465.437C343.159 465.313 269.726 427.072 268.619 426.147C267.512 425.222 270.285 420.971 271.856 421.489C273.427 422.006 346.622 460.55 346.622 460.55Z" fill="url(#paint0_linear_5775_18300)"/>
<path d="M286.457 390.066L335.008 415.989C335.008 415.989 396.291 328.654 397.517 305.707C399.21 274.017 372.151 173.41 372.151 173.41L328.992 173.117C328.992 173.117 346.537 276.583 345.111 294.235C344.364 303.47 286.457 390.066 286.457 390.066Z" fill="#0A0A0A"/>
<path d="M339.245 405.955C336.746 404.154 313.731 390.818 296.208 382.301C296.09 382.244 296.012 382.409 296.117 382.479C301.432 385.989 335.782 404.807 339.116 406.142C339.226 406.187 339.358 406.037 339.245 405.955Z" fill="#210401"/>
<path d="M351.103 272.124C349.098 256.984 346.892 241.866 344.377 226.803C341.85 211.671 339.186 196.547 336.022 181.535C335.636 179.702 335.231 177.872 334.831 176.042C334.77 175.76 334.339 175.842 334.39 176.127C337.049 191.022 339.785 205.904 342.232 220.836C344.679 235.767 346.961 250.725 349.01 265.716C349.517 269.428 350.011 273.142 350.49 276.857C350.986 280.693 351.547 284.545 351.592 288.419C351.635 292.141 351.052 295.764 349.742 299.252C348.456 302.677 346.625 305.856 344.769 308.996C336.962 322.206 301.991 379.934 301.083 381.612C301.023 381.722 301.176 381.836 301.247 381.726C309.638 368.704 335.671 327.114 343.59 313.69C347.162 307.636 351.256 301.503 352.422 294.438C353.634 287.093 352.068 279.413 351.103 272.124Z" fill="#210401"/>
<path d="M338.666 390.07C338.666 390.07 338.179 439.311 338.179 439.345C338.439 448.763 338.836 457.016 339.439 461.266C339.439 461.289 339.439 461.312 339.45 461.335C339.676 462.939 339.93 463.959 340.225 464.225C340.248 464.248 340.259 464.271 340.282 464.283C343.138 466.104 418.465 466.218 421.093 465.337C423.732 464.468 421.419 456.897 418.499 454.56C415.556 452.223 386.747 439.281 386.747 439.281L386.767 390.076L338.666 390.07Z" fill="#F7A9A0"/>
<path d="M338.279 429.235C338.279 429.235 338.179 439.31 338.179 439.344C338.439 448.762 338.836 457.015 339.439 461.265C339.439 461.288 339.439 461.311 339.45 461.334C339.768 462.916 340.045 463.959 340.225 464.224C340.248 464.247 340.259 464.27 340.282 464.282C343.138 466.103 418.465 466.217 421.093 465.336C423.732 464.467 421.419 456.896 418.499 454.559C415.556 452.222 386.747 439.28 386.747 439.28L386.751 429.016L338.279 429.235Z" fill="#EBEBEB"/>
<path d="M421.131 465.247C418.463 466.094 342.541 464.759 339.685 462.87C338.587 462.172 338.137 451.097 337.977 437.701C337.977 437.561 337.976 437.421 337.976 437.281L386.967 437.596L386.933 438.427C386.933 438.427 415.765 451.936 418.689 454.344C421.589 456.742 423.799 464.411 421.131 465.247Z" fill="#0A0A0A"/>
<path d="M420.323 462.289C407.53 461.749 355.882 460.781 343.196 461.22C343.093 461.224 343.091 461.294 343.195 461.301C355.863 462.112 407.517 462.662 420.321 462.499C420.59 462.495 420.593 462.301 420.323 462.289Z" fill="white"/>
<path d="M391.047 438.651C386.027 437.623 379.854 438.287 375.943 441.808C375.791 441.945 375.987 442.157 376.152 442.109C381.148 440.63 385.806 439.706 391.017 439.287C391.383 439.257 391.406 438.724 391.047 438.651Z" fill="white"/>
<path d="M394.643 440.909C389.623 439.88 383.45 440.545 379.539 444.065C379.387 444.201 379.584 444.415 379.747 444.366C384.744 442.887 389.401 441.963 394.612 441.544C394.979 441.515 395.003 440.982 394.643 440.909Z" fill="white"/>
<path d="M398.24 443.159C393.22 442.13 387.047 442.795 383.136 446.316C382.984 446.452 383.181 446.665 383.345 446.617C388.341 445.138 392.999 444.214 398.209 443.795C398.576 443.766 398.599 443.233 398.24 443.159Z" fill="white"/>
<path d="M422.338 462.546C423.688 463.094 423.314 467.653 422.327 468.002C421.34 468.351 338.565 466.528 337.164 466.188C335.762 465.848 336.369 460.81 338.007 460.58C339.644 460.349 422.338 462.546 422.338 462.546Z" fill="url(#paint1_linear_5775_18300)"/>
<path d="M350.362 446.007C344.906 443.158 340.47 451.632 345.934 454.486C351.39 457.335 355.827 448.861 350.362 446.007Z" fill="white"/>
<path d="M371.607 173.313C371.607 173.313 371.606 173.324 371.591 173.357C371.304 174.247 355.793 216.751 354.332 217.43C352.678 218.192 388.598 278.527 390.723 306.558C392.082 324.486 389.417 425.939 389.417 425.939H336.904C336.904 425.939 339.428 334.728 340.628 305.828C341.094 294.621 304.572 238.824 304.125 204.079C303.984 193.127 311.852 173.117 311.852 173.117L371.607 173.313Z" fill="#0A0A0A"/>
<path d="M340.929 305.046C340.93 304.582 340.564 304.434 340.528 304.908C339.341 320.548 339.065 336.104 338.318 351.771C337.573 367.391 337.997 371.158 337.3 386.78C336.905 395.621 337.279 404.485 337.075 413.332C337.072 413.469 337.278 413.487 337.292 413.349C338.926 397.757 340.918 313.902 340.929 305.046Z" fill="#210401"/>
<path d="M390.723 307.174C390.607 303.321 390.354 299.456 389.662 295.659C388.986 291.946 387.809 288.351 386.419 284.848C383.517 277.532 380.086 270.398 376.809 263.244C373.489 255.997 370.101 248.784 366.599 241.623C364.631 237.598 362.651 233.579 360.656 229.567C358.638 225.509 356.465 221.523 354.351 217.513C354.268 217.354 354.023 217.471 354.099 217.635C357.465 224.862 360.786 232.108 364.152 239.335C367.517 246.561 370.822 253.817 374.129 261.07C377.382 268.204 380.641 275.345 383.706 282.562C385.175 286.021 386.547 289.529 387.452 293.184C388.38 296.93 388.773 300.777 388.991 304.623C389.499 313.593 389.748 322.59 390.629 331.535C390.64 331.647 390.823 331.636 390.827 331.524C391.094 323.426 390.968 315.273 390.723 307.174Z" fill="#210401"/>
<path d="M385.615 415.374C382.557 415.002 359.286 414.391 339.828 415.382C339.697 415.389 339.708 415.571 339.834 415.582C346.183 416.094 382.028 416.039 385.592 415.601C385.709 415.586 385.753 415.391 385.615 415.374Z" fill="#210401"/>
<path d="M361.592 215.074C355.974 216.385 350.465 218.5 345.172 220.767C344.965 220.856 345.063 221.174 345.285 221.104C350.797 219.378 356.403 217.76 361.812 215.733C362.237 215.575 362.023 214.974 361.592 215.074Z" fill="#210401"/>
<path d="M366.887 179.074C366.891 178.89 366.575 178.817 366.556 179.014C365.957 185.286 364.992 190.76 363.863 196.563C363.339 199.258 359.611 214.062 355.008 212.483C354.237 212.219 353.914 211.4 353.912 210.197C353.91 208.751 354.628 207.051 355.011 205.652C355.857 202.56 356.6 199.447 357.196 196.296C358.308 190.415 358.941 184.485 358.826 178.498C358.822 178.302 358.54 178.287 358.52 178.484C357.685 186.697 356.63 194.872 354.569 202.88C353.578 206.728 351.006 212.412 355.033 213.432C359.135 214.472 362.838 204.89 363.623 202.245C365.813 194.866 366.701 186.748 366.887 179.074Z" fill="#210401"/>
<path d="M355.092 212.9C354.562 213.865 354.112 214.881 353.712 215.906C353.402 216.703 353.003 217.557 353.009 218.421C353.01 218.589 353.228 218.627 353.328 218.524C353.953 217.879 354.285 216.944 354.679 216.145C355.136 215.218 355.614 214.3 356.045 213.361C356.331 212.739 355.418 212.305 355.092 212.9Z" fill="#210401"/>
<path d="M346.306 320.477C346.575 313.013 347.404 305.184 344.956 297.978C343.742 294.405 341.898 291.096 340.166 287.758C338.345 284.248 336.561 280.719 334.806 277.175C327.79 263.004 321.179 248.607 315.273 233.936C312.429 226.871 309.886 219.619 308.87 212.037C307.807 204.106 308.564 195.99 310.337 188.217C310.78 186.274 311.251 184.34 311.782 182.419C311.821 182.278 311.611 182.199 311.566 182.341C309.202 189.707 307.575 197.362 307.47 205.122C307.369 212.598 309.007 219.857 311.422 226.895C313.938 234.224 317.092 241.351 320.196 248.446C323.396 255.76 326.717 263.021 330.172 270.219C333.609 277.38 337.273 284.421 340.899 291.487C342.654 294.906 344.253 298.408 344.93 302.217C345.62 306.095 345.509 310.049 345.362 313.968C344.743 330.485 343.318 385.45 343.11 401.924C343.084 404.016 343.058 406.107 343.036 408.198C343.034 408.382 343.312 408.408 343.324 408.22C344.37 391.784 345.713 336.944 346.306 320.477Z" fill="#210401"/>
<path d="M334.526 184.016C334.518 183.898 334.343 183.922 334.328 184.027C333.709 188.572 333.355 193.286 331.16 197.41C329.146 201.194 325.634 203.633 321.806 205.34C319.594 206.327 317.291 207.105 314.989 207.854C314.823 207.908 314.861 208.166 315.042 208.128C319.385 207.226 323.801 206.214 327.576 203.775C331.618 201.163 333.696 196.984 334.361 192.306C334.753 189.556 334.71 186.779 334.526 184.016Z" fill="#210401"/>
<path d="M352.918 115.249C360.78 121.807 385.275 136.584 396.763 135.748C404.5 135.185 425.026 118.875 429.052 113.138C430.699 110.791 414.09 94.2734 411.402 95.7494C408.478 97.3544 395.284 113.306 393.038 113.767C390.792 114.228 369.914 108.959 358.172 107.421C351.138 106.499 349.319 112.248 352.918 115.249Z" fill="#F7A9A0"/>
<path d="M424.427 117.891C428.693 114.795 440.419 100.849 442.114 97.5877C443.81 94.3267 448.01 84.5887 445.645 83.0367C443.279 81.4837 441.822 84.2367 441.822 84.2367C441.822 84.2367 443.119 79.4457 440.422 78.4977C438.269 77.7417 436.012 81.5067 436.012 81.5067C436.012 81.5067 437.158 76.1817 434.361 75.5837C431.812 75.0397 430.405 79.7137 430.405 79.7137C430.405 79.7137 430.913 75.1607 428.357 75.1097C425.283 75.0477 424.401 82.9267 422.258 86.3857C421.771 87.1717 405.087 101.69 405.087 101.69L424.427 117.891Z" fill="#F7A9A0"/>
<path d="M430.245 79.5293C428.983 85.3653 428.291 87.7413 424.696 92.2153C424.625 92.3023 424.74 92.4273 424.821 92.3423C428.74 88.2813 429.765 85.5193 430.527 79.5463C430.564 79.2583 430.304 79.2583 430.245 79.5293Z" fill="#0A0A0A"/>
<path d="M435.955 81.5141C434.742 87.4701 433.274 89.9911 429.853 94.9541C429.805 95.0241 429.918 95.1141 429.973 95.0471C433.736 90.4591 435.725 87.6171 436.156 81.5071C436.176 81.2301 436.011 81.2421 435.955 81.5141Z" fill="#0A0A0A"/>
<path d="M441.652 84.4822C440.061 90.1642 438.675 93.1202 434.735 97.5122C434.642 97.6152 434.784 97.7612 434.888 97.6662C439.34 93.5792 441.098 89.9032 441.82 84.5492C441.869 84.1832 441.752 84.1242 441.652 84.4822Z" fill="#0A0A0A"/>
<path d="M405.087 101.687C405.087 101.687 408.485 95.6628 409.956 92.7238C411.427 89.7848 414.434 80.9098 417.204 80.3668C420.316 79.7578 420.223 88.2889 417.64 93.5499C417.64 93.5499 424.68 100.117 422.437 105.29C421.952 106.409 417.404 110.75 416.007 110.834L405.087 101.687Z" fill="#F7A9A0"/>
<path d="M417.567 94.1792C420.397 96.6392 423.026 100.825 422.45 104.519C422.433 104.627 422.585 104.666 422.616 104.559C423.772 100.681 420.776 95.8082 418.113 93.7642C417.602 93.3712 416.835 93.5432 417.567 94.1792Z" fill="#0A0A0A"/>
<path opacity="0.1" d="M435.372 76.1457L423.047 104.218L419.031 113.369L412.859 127.429C406.689 131.839 400.351 135.49 396.761 135.749C385.275 136.586 360.781 121.805 352.919 115.249C349.318 112.246 351.138 106.5 358.173 107.42C369.914 108.959 390.79 114.227 393.039 113.765C394.466 113.47 400.334 106.902 405.161 101.752L405.088 101.689C405.088 101.689 408.485 95.6667 409.956 92.7237C411.427 89.7857 414.432 80.9097 417.203 80.3687C419.573 79.9057 420.083 84.7388 419.048 89.3978C420.853 87.7798 422.126 86.5948 422.256 86.3868C424.398 82.9238 425.282 75.0468 428.355 75.1098C430.91 75.1598 430.403 79.7147 430.403 79.7147C430.403 79.7147 431.81 75.0398 434.363 75.5828C434.789 75.6728 435.119 75.8707 435.372 76.1457Z" fill="black"/>
<path d="M384.68 136.449L392.637 113.141C392.637 113.141 369.294 107.469 357.675 106.671C347.911 106.001 345.227 112.782 355.584 119.84C365.387 126.521 384.68 136.449 384.68 136.449Z" fill="#455A64"/>
<path d="M356.56 106.625L352.68 117.585C352.36 117.285 352.05 116.995 351.78 116.705L355.34 106.665C355.73 106.635 356.13 106.625 356.56 106.625ZM362.06 107.115L357.18 120.915C357.5 121.125 357.83 121.335 358.17 121.545L363.22 107.275C362.83 107.215 362.44 107.165 362.06 107.115ZM368.6 108.115L362.83 124.405C363.16 124.605 363.5 124.805 363.84 125.005L369.74 108.315C369.36 108.245 368.98 108.175 368.6 108.115ZM375.06 109.305L368.55 127.725C368.89 127.915 369.22 128.105 369.56 128.295L376.2 109.525C375.82 109.455 375.44 109.375 375.06 109.305ZM381.48 110.615L374.3 130.915C374.65 131.105 374.98 131.285 375.32 131.465L382.61 110.865C382.24 110.785 381.86 110.705 381.48 110.615ZM387.87 112.035L380.09 134.035C380.45 134.225 380.79 134.405 381.11 134.575L388.99 112.285C388.64 112.205 388.26 112.115 387.87 112.035Z" fill="#210401"/>
<path d="M386.313 113.806C385.601 115.131 385.124 116.566 384.582 117.944C384.017 119.381 383.508 120.831 382.99 122.28C382.473 123.727 380.638 129.578 380.181 131.039C380.16 131.105 380.28 131.132 380.305 131.068C380.874 129.632 383.128 123.938 383.628 122.516C384.128 121.093 384.641 119.672 385.093 118.238C385.551 116.787 386.109 115.316 386.383 113.832C386.389 113.799 386.332 113.77 386.313 113.806Z" fill="#0A0A0A"/>
<path opacity="0.1" d="M387.021 129.59L384.679 136.449C384.679 136.449 365.388 126.52 355.586 119.84C346.484 113.639 347.45 107.651 354.444 106.75L387.021 129.59Z" fill="black"/>
<path d="M377.868 188.954L305.373 183.228C305.651 181.858 326.749 120.681 344.172 107.616C350.156 103.128 360.549 107.654 361.803 108.857C373.96 120.525 378.913 188.224 377.868 188.954Z" fill="#455A64"/>
<path d="M364.77 113.015L340.38 111.125C340.72 110.755 341.06 110.395 341.4 110.055L364.07 111.815C364.31 112.195 364.54 112.595 364.77 113.015ZM367.2 118.575L336.31 116.185C336.05 116.535 335.79 116.895 335.54 117.265L367.62 119.745C367.48 119.345 367.34 118.955 367.2 118.575ZM369.33 125.245L332.22 122.375C331.99 122.735 331.77 123.105 331.55 123.475L369.65 126.415C369.54 126.025 369.43 125.635 369.33 125.245ZM370.99 131.885L328.62 128.605C328.42 128.965 328.22 129.335 328.02 129.705L371.25 133.045C371.17 132.655 371.08 132.265 370.99 131.885ZM372.38 138.505L325.34 134.865C325.15 135.235 324.96 135.605 324.78 135.975L372.6 139.675C372.53 139.275 372.45 138.885 372.38 138.505ZM373.56 145.105L322.28 141.145C322.1 141.505 321.93 141.875 321.76 142.245L373.75 146.275C373.69 145.885 373.63 145.495 373.56 145.105ZM374.59 151.695L319.39 147.425C319.23 147.795 319.06 148.165 318.9 148.535L374.76 152.855C374.7 152.465 374.65 152.085 374.59 151.695ZM375.49 158.285L316.65 153.735C316.49 154.105 316.33 154.475 316.18 154.845L375.63 159.445C375.59 159.055 375.54 158.675 375.49 158.285ZM376.28 164.855L314.03 160.045C313.87 160.415 313.72 160.785 313.58 161.155L376.4 166.015C376.36 165.635 376.32 165.245 376.28 164.855ZM376.96 171.425L311.51 166.365C311.37 166.735 311.22 167.105 311.08 167.465L377.06 172.575C377.03 172.195 376.99 171.815 376.96 171.425ZM377.52 177.975L309.1 172.685C308.96 173.065 308.82 173.445 308.68 173.805L377.6 179.135C377.58 178.755 377.55 178.375 377.52 177.975ZM377.93 184.515L306.79 179.015C306.65 179.415 306.52 179.785 306.4 180.135L377.97 185.665C377.96 185.315 377.94 184.925 377.93 184.515Z" fill="#210401"/>
<path d="M359.52 118.779C355.583 119.502 349.208 113.219 346.814 108.268C346.652 107.928 347.334 104.472 347.965 100.234C348.338 97.6598 348.692 94.7858 348.826 92.1398C348.851 91.5968 365.218 97.0128 365.218 97.0128C365.218 97.0128 363.306 102.477 363.1 107.092C363.087 107.478 363.107 107.838 363.159 108.183C363.162 108.233 363.173 108.294 363.174 108.364C363.407 110.444 363.324 118.078 359.52 118.779Z" fill="#F7A9A0"/>
<path d="M349.844 92.2578C350.387 96.7698 352.623 107.72 361.468 108.369C362.084 108.415 362.651 108.413 363.171 108.363C363.179 108.289 363.164 108.234 363.159 108.18C363.112 107.832 363.087 107.476 363.096 107.092C363.303 102.469 365.22 97.0058 365.22 97.0058C365.22 97.0058 353.412 93.0988 349.844 92.2578Z" fill="#0A0A0A"/>
<path d="M344.8 74.4742C343.498 80.4952 348.013 97.1992 352.504 100.633C359.016 105.611 368.972 105.308 373.023 97.6422C376.95 90.2112 370.681 68.5462 365.729 65.4982C358.436 61.0092 346.723 65.5802 344.8 74.4742Z" fill="#F7A9A0"/>
<path d="M347.393 92.0438C350.775 91.3068 352.384 87.2638 351.719 80.6898C351.053 74.1158 351.676 71.5248 354.645 70.0798C357.614 68.6348 361.565 70.9618 363.208 70.6228C364.851 70.2828 363.964 67.6298 365.323 67.3808C365.995 67.2578 368.224 68.9168 370.579 73.2438C370.579 73.2438 368.492 60.8418 355.211 63.8988C342.859 66.7418 343.483 76.9928 343.981 79.9998C344.793 84.9018 347.393 92.0438 347.393 92.0438Z" fill="#0A0A0A"/>
<path d="M351.337 88.1422C351.337 88.1422 346.941 83.0642 344.598 84.6872C342.255 86.3102 345.956 93.9482 348.986 94.7312C352.015 95.5142 352.795 92.7252 352.795 92.7252L351.337 88.1422Z" fill="#F7A9A0"/>
<path d="M345.714 86.8517C345.667 86.8527 345.664 86.9187 345.707 86.9307C347.838 87.5477 349.111 89.3317 350.069 91.2197C349.382 90.5257 348.511 90.1977 347.572 91.0267C347.523 91.0697 347.582 91.1487 347.639 91.1297C348.458 90.8637 349.077 90.9457 349.713 91.5587C350.163 91.9917 350.499 92.5647 350.843 93.0827C350.958 93.2557 351.278 93.1237 351.186 92.9207C351.179 92.9057 351.171 92.8897 351.164 92.8747C350.945 90.2627 348.54 86.8237 345.714 86.8517Z" fill="#0A0A0A"/>
<path d="M369.176 81.7248C369.173 81.6798 369.278 81.7548 369.289 81.8008C369.551 82.9368 370.041 84.1948 371.159 84.2998C371.194 84.3028 371.206 84.3608 371.166 84.3648C369.876 84.5188 369.242 82.8428 369.176 81.7248Z" fill="#0A0A0A"/>
<path d="M369.872 80.2814C371.648 79.6664 372.749 83.2634 371.104 83.8334C369.484 84.3954 368.383 80.7974 369.872 80.2814Z" fill="#0A0A0A"/>
<path d="M360.299 82.8042C360.826 82.8402 361.318 82.7852 361.844 82.7672C362.436 82.7462 362.91 82.7912 363.412 82.4292C363.681 82.2352 363.753 81.7532 363.589 81.4742C363.207 80.8242 362.475 80.6692 361.761 80.6642C360.986 80.6592 360.388 80.8542 359.785 81.3392C359.199 81.8092 359.603 82.7562 360.299 82.8042Z" fill="#0A0A0A"/>
<path d="M370.228 77.4604C369.7 77.4504 369.214 77.3534 368.693 77.2894C368.104 77.2174 367.628 77.2204 367.16 76.8164C366.909 76.5994 366.879 76.1134 367.067 75.8494C367.503 75.2354 368.246 75.1444 368.958 75.2024C369.73 75.2654 370.31 75.5114 370.868 76.0464C371.41 76.5644 370.925 77.4734 370.228 77.4604Z" fill="#0A0A0A"/>
<path d="M364.458 94.6378C364.798 94.8308 365.163 95.1228 365.58 95.0488C365.981 94.9778 366.394 94.6798 366.717 94.4458C366.749 94.4228 366.795 94.4508 366.781 94.4908C366.603 95.0008 366.059 95.4338 365.512 95.4798C364.978 95.5248 364.61 95.1508 364.363 94.7168C364.329 94.6568 364.408 94.6098 364.458 94.6378Z" fill="#0A0A0A"/>
<path d="M360.073 84.2324C360.336 84.0414 360.638 83.9274 360.948 83.8234C361.261 83.7334 361.592 83.6874 361.935 83.6964C362.276 83.7184 362.632 83.7864 362.969 83.9474C363.306 84.1104 363.612 84.3614 363.857 84.6644L364.299 85.2114L363.637 85.2654C363.19 85.3024 362.705 85.3894 362.262 85.5314C361.817 85.6814 361.39 85.8874 361.041 86.2844C361.164 85.7434 361.57 85.2964 362.03 85.0244C362.499 84.7464 363.001 84.5844 363.557 84.5254L363.338 85.1274C362.97 84.7024 362.478 84.4324 361.903 84.3174C361.331 84.2064 360.712 84.1854 360.073 84.2324Z" fill="#0A0A0A"/>
<path d="M362.527 86.6321C362.975 86.3611 363.425 86.1841 363.797 85.7941C363.882 85.7051 364.208 85.3201 364.166 85.2381C364.08 85.0071 363.911 84.7621 363.75 84.5391C363.952 84.7301 364.17 84.9021 364.307 85.1881C364.327 85.4491 364.204 85.7491 363.954 85.9801C363.552 86.3531 362.978 86.5651 362.527 86.6321Z" fill="#0A0A0A"/>
<path d="M365.25 92.2216C366.522 91.2576 368.411 90.9316 369.614 90.7526C369.739 90.6976 369.786 90.4086 369.773 90.2796L369.77 90.2716C369.758 90.2306 369.036 87.9096 369.036 87.9096C369.393 87.9796 371.19 88.2536 371.041 87.8126C369.788 84.1646 368.396 80.1086 366.379 76.7426C366.318 76.6286 366.139 76.7086 366.183 76.8276C367.248 80.3816 368.931 83.7236 370.057 87.2766C369.493 87.2246 368.562 87.0966 368.116 87.2306C368.004 87.2996 369.021 89.6916 369.087 90.0866C369.087 90.0866 366.623 90.0376 365.095 91.7356C364.7 92.1756 364.644 92.6806 365.25 92.2216Z" fill="#0A0A0A"/>
<path d="M367.329 90.4766C367.329 90.4766 367.64 92.7396 366.582 93.5636C365.365 94.5116 364.026 93.1426 365.116 91.6416C365.688 90.8546 367.329 90.4766 367.329 90.4766Z" fill="#0A0A0A"/>
<path d="M367.343 91.8178C367.278 92.4528 367.075 93.1728 366.578 93.5608C365.939 94.0618 365.26 93.9168 364.925 93.4428L364.919 93.4348C364.907 93.4188 364.91 93.4048 364.907 93.3828C365.851 91.8928 366.729 91.6768 367.343 91.8178Z" fill="#FF99BA"/>
<path d="M406.701 90.0143L369.269 87.3083L369.449 78.7812L406.961 77.6562L406.701 90.0143Z" fill="#210401"/>
<path d="M427.622 93.9206L390.213 90.1416L390.494 76.8386L428.029 74.6406L427.622 93.9206Z" fill="#455A64"/>
<path d="M445.372 98.7803L417.016 93.8013L417.427 74.3092L445.968 70.5312L445.372 98.7803Z" fill="#210401"/>
<path d="M447.603 84.6969C447.453 91.8199 446.465 97.5769 445.397 97.5539C444.329 97.5319 443.585 91.7389 443.735 84.6149C443.885 77.4919 444.873 71.7349 445.941 71.7579C447.01 71.7809 447.754 77.5739 447.603 84.6969Z" fill="url(#paint2_linear_5775_18300)"/>
<path d="M343.323 122.288C354.395 136.038 384.798 159.624 392.135 157.305C405.672 153.026 413.75 115.927 416.021 108.777C416.99 105.729 390.387 101.44 389.284 104.677C388.323 107.497 385.496 127.112 382.991 127.626C381.96 127.837 367.774 120.665 351.421 115.489C338.895 111.523 340.045 118.218 343.323 122.288Z" fill="#F7A9A0"/>
<path d="M387.99 110.701C387.99 110.701 388.904 107.686 388.887 100.005C388.874 94.0043 393.025 79.8953 408.562 73.3364C414.515 70.8224 418.878 73.9014 413.157 77.6114C409.128 80.2234 406.111 81.6883 405.036 82.9083C405.036 82.9083 412.352 83.6204 414.47 87.3154C415.416 88.9664 417.894 93.5343 419.316 97.3663C419.316 97.3663 418.565 97.9004 417.517 98.4414C417.517 98.4414 420.031 103.182 416.281 107.902L414.495 114.22L387.99 110.701Z" fill="#F7A9A0"/>
<path d="M390.499 94.8562C392.504 92.4332 396.839 87.3692 401.827 84.4592C407.367 81.2282 418.909 76.4962 421.252 80.6102C422.97 83.6272 418.722 85.8212 418.722 85.8212C418.722 85.8212 423.905 84.8712 424.861 87.9352C425.732 90.7282 422.344 92.2282 422.344 92.2282C422.344 92.2282 425.587 92.1922 425.908 95.0442C426.294 98.4742 419.434 97.9862 416.824 101.798C416.238 102.654 390.499 94.8562 390.499 94.8562Z" fill="#F7A9A0"/>
<path d="M404.265 90.88C406.524 88.91 412.803 85.754 418.608 85.75C418.74 85.75 418.81 85.849 418.69 85.875C412.299 87.237 406.635 89.73 404.295 90.932C404.264 90.948 404.24 90.902 404.265 90.88Z" fill="#0A0A0A"/>
<path d="M407.69 96.377C409.814 94.878 416.431 91.913 422.314 92.111C422.446 92.116 422.51 92.22 422.389 92.241C415.653 93.388 410.126 95.37 407.718 96.431C407.684 96.445 407.662 96.396 407.69 96.377Z" fill="#0A0A0A"/>
<path d="M370.34 148.279L382.408 126.809C382.408 126.809 360.488 116.982 349.208 114.082C339.729 111.646 335.855 117.825 344.754 126.65C353.177 135.005 370.34 148.279 370.34 148.279Z" fill="#455A64"/>
<path d="M348.3 113.872L342.59 124.252C342.31 123.912 342.06 123.572 341.84 123.242L347.11 113.672C347.49 113.722 347.89 113.782 348.3 113.872Z" fill="#210401"/>
<path d="M354.69 115.735L347.33 129.115C347.04 128.845 346.75 128.575 346.47 128.315L353.59 115.375C353.95 115.485 354.32 115.605 354.69 115.735Z" fill="#210401"/>
<path d="M360.89 117.931L352.3 133.551C352.01 133.291 351.71 133.041 351.42 132.781L359.81 117.531C360.17 117.661 360.53 117.801 360.89 117.931Z" fill="#210401"/>
<path d="M367 120.303L357.36 137.833C357.06 137.593 356.76 137.343 356.46 137.093L365.93 119.883C366.29 120.023 366.65 120.163 367 120.303Z" fill="#210401"/>
<path d="M373.05 122.768L362.47 142.018C362.17 141.778 361.87 141.538 361.57 141.278L371.99 122.328C372.35 122.478 372.7 122.628 373.05 122.768Z" fill="#210401"/>
<path d="M379.06 125.335L367.61 146.135C367.33 145.915 367.03 145.675 366.71 145.425L378 124.875C378.38 125.035 378.73 125.185 379.06 125.335Z" fill="#210401"/>
<path d="M376.067 126.308C375.126 127.481 374.396 128.806 373.612 130.062C372.795 131.372 372.03 132.705 371.257 134.035C370.485 135.364 367.615 140.783 366.9 142.136C366.868 142.197 366.98 142.245 367.017 142.187C367.838 140.878 371.091 135.69 371.841 134.383C372.592 133.074 373.354 131.771 374.061 130.443C374.775 129.1 375.591 127.755 376.132 126.346C376.144 126.315 376.092 126.277 376.067 126.308Z" fill="#0A0A0A"/>
<path d="M347.888 129.625C353.525 133.827 359.468 138.887 364.854 143.462C366.691 145.052 368.533 146.641 370.424 148.148L370.208 148.197C370.649 147.55 371.093 146.905 371.554 146.269C371.183 147.018 370.792 147.755 370.399 148.491L370.255 148.405C362.141 143.001 354.86 136.414 347.888 129.625Z" fill="#0A0A0A"/>
<path d="M348.465 131.18C349.975 131.596 351.171 132.34 352.289 133.429C350.732 133.281 349.379 132.435 348.465 131.18Z" fill="#0A0A0A"/>
<path d="M271.444 285.645V322.872C271.444 338.886 259.416 350.914 243.378 350.914C228.506 350.914 215.312 338.886 215.312 322.872V263.314C215.312 262.755 215.918 262.755 215.918 262.172C215.312 261.613 215.312 261.613 215.312 261.03C215.312 246.135 228.506 232.964 243.378 232.964C279.462 232.964 308.647 204.339 308.647 168.837C308.647 132.776 279.462 104.71 243.378 104.71C219.928 104.71 199.322 117.321 188.412 136.202C180.393 149.955 163.237 154.524 149.484 146.505C136.337 138.51 131.722 121.889 139.74 108.16C160.346 72.6576 199.321 48.6016 243.378 48.6016C309.812 48.6016 364.219 102.425 364.219 168.837C364.219 225.528 324.685 273.057 271.444 285.645ZM271.444 411.031V421.334C271.444 437.372 259.416 449.4 243.378 449.4C228.506 449.4 215.312 437.372 215.312 421.334V411.031C215.312 395.576 228.506 382.989 243.378 382.989C259.416 382.989 271.444 395.576 271.444 411.031Z" fill="url(#paint3_linear_5775_18300)"/>
<path opacity="0.6" d="M254.019 60.9231C302.081 54.8741 345.41 103.866 353.226 148.013C354.12 152.871 354.549 158.223 354.615 163.171C354.553 164.863 354.509 166.543 354.397 168.214C342.721 120.805 304.485 69.4201 254.019 60.9231Z" fill="white"/>
<path d="M375.419 353.291L366.139 370.173C362.147 377.435 353.694 379.892 346.421 375.894C339.677 372.187 336.702 363.449 340.694 356.187L355.54 329.178C355.679 328.924 355.944 329.07 356.089 328.805C355.964 328.406 355.964 328.406 356.11 328.142C359.823 321.387 369.079 318.697 375.823 322.405C392.187 331.4 412.568 325.699 421.418 309.599C430.407 293.245 424.158 273.237 407.793 264.242C397.148 258.391 384.66 258.973 375.016 264.822C367.962 269.066 359.032 266.855 354.794 259.791C350.814 252.882 352.886 244.206 359.944 239.979C378.138 229.016 401.789 227.81 421.778 238.798C451.906 255.358 463.152 293.323 446.597 323.44C432.467 349.148 402.701 360.854 375.419 353.291ZM344.164 410.153L341.596 414.826C337.598 422.099 329.145 424.555 321.872 420.558C315.128 416.851 312.153 408.113 316.151 400.84L318.719 396.167C322.571 389.158 331.682 386.733 338.426 390.44C345.7 394.438 348.016 403.144 344.164 410.153Z" fill="url(#paint4_linear_5775_18300)"/>
<g opacity="0.6">
<path d="M375.419 353.291L366.139 370.173C362.147 377.435 353.694 379.892 346.421 375.894C339.677 372.187 336.702 363.449 340.694 356.187L355.54 329.178C355.679 328.924 355.944 329.07 356.089 328.805C355.964 328.406 355.964 328.406 356.11 328.142C359.823 321.387 369.079 318.697 375.823 322.405C392.187 331.4 412.568 325.699 421.418 309.599C430.407 293.245 424.158 273.237 407.793 264.242C397.148 258.391 384.66 258.973 375.016 264.822C367.962 269.066 359.032 266.855 354.794 259.791C350.814 252.882 352.886 244.206 359.944 239.979C378.138 229.016 401.789 227.81 421.778 238.798C451.906 255.358 463.152 293.323 446.597 323.44C432.467 349.148 402.701 360.854 375.419 353.291ZM344.164 410.153L341.596 414.826C337.598 422.099 329.145 424.555 321.872 420.558C315.128 416.851 312.153 408.113 316.151 400.84L318.719 396.167C322.571 389.158 331.682 386.733 338.426 390.44C345.7 394.438 348.016 403.144 344.164 410.153Z" fill="white"/>
</g>
<path d="M73.646 275.281L67.908 258.065C65.44 250.659 69.148 243.242 76.565 240.77C83.443 238.478 91.388 242.01 93.856 249.416L103.036 276.959C103.122 277.217 102.853 277.308 102.943 277.577C103.299 277.746 103.299 277.746 103.389 278.016C105.685 284.904 101.624 293.025 94.746 295.318C78.059 300.88 68.963 318.62 74.436 335.038C79.994 351.715 97.828 360.192 114.515 354.63C125.371 351.012 132.957 342.003 135.08 331.594C136.658 324.001 143.898 319.24 151.495 320.829C158.818 322.496 163.493 329.478 161.901 337.064C157.843 356.658 143.549 373.784 123.164 380.578C92.441 390.818 58.994 374.31 48.757 343.597C40.018 317.379 50.964 289.308 73.646 275.281ZM54.319 217.294L52.731 212.529C50.259 205.112 53.968 197.696 61.384 195.224C68.262 192.931 76.206 196.464 78.679 203.881L80.267 208.646C82.649 215.793 78.499 223.645 71.621 225.937C64.204 228.409 56.701 224.441 54.319 217.294Z" fill="url(#paint5_linear_5775_18300)"/>
<g opacity="0.6">
<path d="M73.646 275.281L67.908 258.065C65.44 250.659 69.148 243.242 76.565 240.77C83.443 238.478 91.388 242.01 93.856 249.416L103.036 276.959C103.122 277.217 102.853 277.308 102.943 277.577C103.299 277.746 103.299 277.746 103.389 278.016C105.685 284.904 101.624 293.025 94.746 295.318C78.059 300.88 68.963 318.62 74.436 335.038C79.994 351.715 97.828 360.192 114.515 354.63C125.371 351.012 132.957 342.003 135.08 331.594C136.658 324.001 143.898 319.24 151.495 320.829C158.818 322.496 163.493 329.478 161.901 337.064C157.843 356.658 143.549 373.784 123.164 380.578C92.441 390.818 58.994 374.31 48.757 343.597C40.018 317.379 50.964 289.308 73.646 275.281ZM54.319 217.294L52.731 212.529C50.259 205.112 53.968 197.696 61.384 195.224C68.262 192.931 76.206 196.464 78.679 203.881L80.267 208.646C82.649 215.793 78.499 223.645 71.621 225.937C64.204 228.409 56.701 224.441 54.319 217.294Z" fill="white"/>
</g>
<path d="M187.311 166.581C187.288 167.771 186.808 168.558 185.983 169.127C185.297 169.602 184.574 170.018 183.83 170.395C184.035 167.53 183.922 164.561 183.864 161.73C183.794 158.4 183.52 155.142 183.184 151.849C183.18 151.799 183.112 151.808 183.113 151.857C183.24 155.192 183.26 158.545 183.307 161.881C183.348 164.801 183.185 167.757 183.243 170.677C182.479 171.031 181.7 171.343 180.915 171.622C180.966 170.603 181.009 169.585 181.041 168.562C181.139 165.49 180.994 162.457 180.947 159.391C180.947 159.316 180.855 159.313 180.856 159.388C180.863 162.37 180.642 165.388 180.515 168.37C180.467 169.52 180.411 170.67 180.347 171.82C179.808 171.997 179.273 172.164 178.744 172.317C178.39 172.419 178.036 172.517 177.683 172.601C177.728 170.587 177.672 168.555 177.67 166.582C177.664 163.39 177.481 160.213 177.432 157.022C177.43 156.912 177.291 156.907 177.29 157.017C177.322 160.192 177.166 163.387 177.132 166.564C177.111 168.607 177.009 170.698 176.999 172.77C172.257 173.861 167.382 173.849 162.628 173.095C159.872 172.657 157.146 171.975 154.455 171.13C153.807 170.927 152.155 170.348 150.526 169.749C150.541 168.786 150.534 167.823 150.56 166.892C150.618 164.768 150.565 162.626 150.673 160.508C150.675 160.448 150.604 160.445 150.599 160.505C150.428 162.632 150.146 164.738 150.033 166.874C149.99 167.729 149.926 168.616 149.887 169.51C149.305 169.295 148.745 169.08 148.254 168.882C148.577 164.876 148.485 160.796 148.6 156.797C148.603 156.701 148.49 156.697 148.483 156.793C148.208 160.712 147.721 164.68 147.633 168.63C147.055 168.39 146.654 168.202 146.557 168.11C145.765 167.355 146.848 151.515 147.024 147.817C147.351 140.924 149.126 126.956 150.833 120.308C152.294 114.617 155.301 106.495 169.46 106.74C179.846 106.92 184.689 117.78 185.538 124.084C185.975 127.333 187.344 164.769 187.311 166.581Z" fill="#0A0A0A"/>
<path d="M157.003 162.278C153.135 185.767 151.858 210.018 154.461 214.693C158.495 221.938 187.924 239.475 198.041 243.144C201.353 244.345 211.271 222.498 209.294 219.292C207.317 216.086 174.97 199.672 173.435 197.95C172.617 197.032 169.64 177.126 166.815 163.542C164.19 150.918 158.178 155.147 157.003 162.278Z" fill="#D3766A"/>
<path d="M186.647 238.955L199.556 211.497C199.556 211.497 177.038 198.592 174.403 196.779C173.289 196.012 169.484 171.389 167.305 160.668C165.872 153.617 159.722 149.585 155.953 162.964C153.746 170.797 148.769 209.261 153.278 216.166C156.866 221.659 186.647 238.955 186.647 238.955Z" fill="url(#paint6_linear_5775_18300)"/>
<path d="M180.443 233.547C181.056 231.442 184.992 223.282 185.995 221.259C186.977 219.279 191.294 211.264 192.331 209.19C192.388 209.077 192.565 209.124 192.51 209.24C191.518 211.31 187.841 219.631 186.858 221.661C185.872 223.698 181.849 231.787 180.551 233.594C180.507 233.657 180.424 233.614 180.443 233.547Z" fill="#0A0A0A"/>
<path opacity="0.1" d="M156.65 160.773C156.537 161.095 156.416 161.436 156.309 161.793C156.185 162.165 156.07 162.563 155.956 162.961C155.578 164.305 155.11 166.552 154.634 169.399C154.542 169.917 154.455 170.449 154.369 171.003C154.315 171.341 154.257 171.688 154.208 172.039C154.093 172.777 153.98 173.538 153.867 174.321C153.85 174.456 153.833 174.591 153.811 174.735C153.687 175.59 153.561 176.477 153.448 177.381C153.361 178.033 153.271 178.695 153.194 179.374C153.108 180.049 153.022 180.723 152.951 181.415C152.906 181.757 152.87 182.103 152.83 182.458C152.396 186.279 152.027 190.294 151.78 194.189C151.709 195.244 151.651 196.293 151.61 197.328C151.574 198.014 151.547 198.704 151.528 199.376C151.5 200.044 151.481 200.716 151.471 201.37C151.342 208.227 151.807 213.893 153.283 216.163C155.705 219.882 170.142 229.018 179.208 234.526L164.28 154.929C164.16 154.831 164.026 154.738 163.898 154.658C163.068 154.14 162.162 153.982 161.231 154.318C160.851 154.454 160.453 154.679 160.067 154.999C159.803 155.22 159.544 155.476 159.291 155.768C159.025 156.065 158.774 156.401 158.525 156.782C157.872 157.781 157.243 159.098 156.65 160.773Z" fill="#020100"/>
<path d="M251.042 467.672C248.468 468.508 174.998 467.862 172.211 466.066C171.151 465.391 170.621 454.685 170.348 441.731C170.288 438.933 164.741 393.852 164.741 393.852L213.857 394.142L217.716 442.011C217.716 442.011 245.735 454.84 248.579 457.137C251.41 459.434 253.616 466.836 251.042 467.672Z" fill="#D3766A"/>
<path d="M251.04 467.671C248.471 468.507 175.003 467.859 172.214 466.063C171.41 465.551 170.909 459.286 170.585 450.628C180.088 452.811 233.506 457.197 239.646 456.455C245.578 455.745 231.835 448.675 229.349 447.422C237.411 451.223 246.977 455.839 248.585 457.134C251.405 459.432 253.619 466.836 251.04 467.671Z" fill="#0A0A0A"/>
<path d="M113.578 195.117C113.578 195.117 100.735 213.77 107.796 234.028C119.859 268.634 150.497 307.579 151.438 312.032C153.656 322.528 165.47 430.141 165.47 430.141L220.355 429.803C220.355 429.803 211.324 338.531 202.006 308.384C196.919 291.926 167.858 246.805 155.315 224.785C154.194 222.816 156.839 214.314 156.839 214.314L113.578 195.117Z" fill="#210401"/>
<path d="M214.868 420.171C206.346 420.004 180.548 419.292 169.19 420.211C169.103 420.218 169.104 420.361 169.19 420.375C173.088 420.984 206.346 420.574 214.868 420.406C215.028 420.403 215.029 420.175 214.868 420.171Z" fill="#0A0A0A"/>
<path d="M104.427 220.582C108.092 226.49 111.965 232.279 115.715 238.136C119.467 243.997 123.204 249.866 126.891 255.766C134.261 267.559 141.433 279.472 148.469 291.456C151.769 297.077 154.908 302.748 157.147 308.862C159.365 314.919 160.847 321.21 161.924 327.546C163.008 333.93 163.695 340.37 164.34 346.807C165.026 353.661 165.7 360.517 166.38 367.372C167.771 381.399 169.163 395.426 170.553 409.452C170.724 411.172 170.89 412.893 171.041 414.615C171.063 414.867 170.611 414.912 170.583 414.659C169.009 400.719 167.73 386.741 166.315 372.784C165.611 365.836 164.907 358.888 164.203 351.94C163.548 345.48 162.929 339.012 162.007 332.581C161.101 326.265 159.901 319.971 158.057 313.845C156.131 307.445 153.365 301.424 150.076 295.586C143.344 283.64 136.211 271.892 129.073 260.174C121.874 248.355 114.614 236.568 107.076 224.951C106.145 223.516 105.206 222.09 104.24 220.678C104.167 220.57 104.357 220.467 104.427 220.582Z" fill="#0A0A0A"/>
<path d="M117.248 468.034C114.544 467.835 45.0311 438.668 43.1161 435.962C43.0531 435.871 43.0161 435.694 43.0151 435.444C43.0581 433.042 76.2981 372.703 76.2981 372.703L121.739 391.409L95.9801 431.735C95.9801 431.735 117.139 454.147 118.91 457.339C120.669 460.53 119.942 468.22 117.248 468.034Z" fill="#D3766A"/>
<path d="M118.912 457.335C120.666 460.53 119.946 468.217 117.251 468.029C114.546 467.831 45.025 438.663 43.114 435.958C43.051 435.864 43.02 435.687 43.02 435.436C43.03 434.653 46.592 427.687 51.374 418.664C61.233 400.065 76.302 372.703 76.302 372.703L121.74 391.407L95.978 431.728C95.978 431.728 101.816 437.921 107.612 444.249L107.633 444.27C112.876 449.993 118.066 455.821 118.912 457.335Z" fill="#D3766A"/>
<path d="M117.251 468.029C114.546 467.831 45.025 438.663 43.114 435.958C43.051 435.864 43.02 435.687 43.02 435.436C43.03 434.653 46.592 427.687 51.374 418.664C63.373 431.29 110.728 454.302 112.284 453.655C113.892 452.976 108.029 444.845 107.632 444.271C112.875 449.994 118.065 455.821 118.911 457.336C120.666 460.531 119.946 468.217 117.251 468.029Z" fill="#0A0A0A"/>
<path d="M102.679 425.422L55.5513 403.076C55.5513 403.076 116.342 311.749 116.896 304.82C117.387 298.681 90.2083 244.875 89.3033 229.281C88.3263 212.452 96.5843 199.537 105.58 191.57L156.84 214.316C156.84 214.316 152.36 223.468 143.532 228.316C143.532 228.316 169.812 290.446 168.044 309.428C166.266 328.513 102.679 425.422 102.679 425.422Z" fill="#210401"/>
<path d="M105.297 414.603C98.7623 411.264 100.689 412.121 94.1133 408.862C90.8953 407.267 69.7403 396.81 66.4543 395.901C66.3813 395.881 66.3223 396.004 66.3833 396.049C69.1403 398.056 90.4913 408.107 93.7423 409.633C100.385 412.752 98.5153 411.777 105.195 414.814C105.321 414.872 105.42 414.666 105.297 414.603Z" fill="#0A0A0A"/>
<path d="M151.168 228.821C145.557 229.128 139.931 230.203 134.491 231.454C134.277 231.503 134.325 231.816 134.549 231.787C140.119 231.075 145.764 230.48 151.282 229.471C151.715 229.392 151.598 228.797 151.168 228.821Z" fill="#0A0A0A"/>
<path d="M145.328 225.697C144.673 226.511 144.087 227.384 143.549 228.275C143.131 228.967 142.619 229.699 142.495 230.506C142.471 230.662 142.676 230.734 142.788 230.654C143.487 230.154 143.946 229.337 144.446 228.655C145.025 227.866 145.623 227.088 146.178 226.282C146.546 225.749 145.732 225.195 145.328 225.697Z" fill="#0A0A0A"/>
<path d="M156.379 210.85C156.403 210.761 156.228 210.678 156.194 210.771C155.113 213.74 153.913 216.265 152.58 218.926C151.961 220.162 148.069 226.825 145.588 225.369C145.173 225.125 145.081 224.678 145.221 224.091C145.389 223.386 146.004 222.664 146.389 222.039C147.241 220.657 148.036 219.25 148.75 217.803C150.082 215.101 151.143 212.304 151.778 209.368C151.799 209.271 151.637 209.223 151.603 209.316C150.158 213.196 148.59 217.025 146.459 220.622C145.435 222.351 143.28 224.739 145.492 225.836C147.746 226.954 151.013 222.834 151.776 221.661C153.908 218.389 155.373 214.564 156.379 210.85Z" fill="#0A0A0A"/>
<path d="M144.33 230.338C146.155 234.334 147.754 238.312 149.457 242.292C151.121 246.181 152.676 250.114 154.184 254.066C157.231 262.051 159.949 270.177 162.319 278.389C163.492 282.453 164.568 286.544 165.535 290.661C166.505 294.79 167.451 298.959 167.822 303.191C168.194 307.436 167.84 311.625 166.609 315.711C165.36 319.856 158.338 333.722 156.416 337.59C155.241 339.954 154.85 339.629 155.42 338.435C157.036 335.049 166.68 314.524 166.488 305.842C166.395 301.653 165.586 297.519 164.69 293.439C163.776 289.274 162.737 285.137 161.599 281.027C159.356 272.93 156.671 264.988 153.906 257.058C152.357 252.615 150.69 248.215 149.118 243.781C147.533 239.313 145.892 235.291 144.133 230.414C144.086 230.286 144.273 230.214 144.33 230.338Z" fill="#0A0A0A"/>
<path d="M105.682 216.733C106.602 216.405 107.865 216.982 108.797 217.15C109.992 217.366 111.201 217.503 112.415 217.559C113.611 217.615 114.817 217.581 116.01 217.48C117.202 217.379 118.419 217.247 119.461 216.614C121.219 215.547 122.702 213.647 123.904 212.01C125.225 210.211 126.599 208.14 127.398 206.047C127.447 205.918 127.631 206.009 127.589 206.136C127.189 207.357 126.888 208.589 126.384 209.782C125.91 210.903 125.301 211.973 124.657 213.004C123.454 214.929 122.077 216.983 120.041 218.111C117.905 219.295 115.173 219.189 112.81 219.023C111.443 218.927 110.083 218.73 108.746 218.431C107.781 218.215 106.154 218.04 105.548 217.181C105.439 217.029 105.501 216.798 105.682 216.733Z" fill="#0A0A0A"/>
<path d="M69.6402 394.589C78.1992 381.977 86.6022 369.261 94.8582 356.449C103.136 343.603 111.265 330.662 119.284 317.653C121.202 314.542 123.412 311.437 124.665 307.98C126.027 304.222 125.325 300.557 124.179 296.85C122.076 290.05 119.435 283.427 116.576 276.914C113.708 270.381 110.613 263.953 107.57 257.501C104.552 251.102 101.335 244.68 99.0682 237.965C96.9042 231.552 96.1312 224.92 97.9342 218.318C99.7232 211.768 103.492 205.913 107.419 200.454C108.455 199.014 109.509 197.587 110.55 196.15C110.629 196.04 110.795 196.176 110.712 196.285C106.388 201.973 102.166 207.998 99.5892 214.708C98.3162 218.023 97.4742 221.52 97.3522 225.078C97.2282 228.687 97.8612 232.277 98.8822 235.728C100.868 242.439 104.054 248.809 107.019 255.128C110.05 261.587 113.164 268.008 116.083 274.519C119.02 281.07 121.76 287.718 123.996 294.543C124.991 297.582 126.103 300.762 125.995 304.004C125.876 307.555 124.142 310.732 122.349 313.704C114.544 326.646 106.45 339.422 98.2592 352.122C90.0372 364.871 81.6562 377.517 73.1492 390.078C72.0762 391.662 71.0012 393.244 69.9242 394.825C69.7912 395.021 69.5082 394.784 69.6402 394.589Z" fill="#0A0A0A"/>
<path d="M156.84 214.314L161.163 192.513C161.163 192.513 168.804 189.812 168.706 179.904C168.661 175.344 166.507 157.517 161.364 150.474C156.54 143.868 148.786 145.48 144.125 147.774C135 152.266 122.031 164.89 105.579 191.567L156.84 214.314Z" fill="url(#paint7_linear_5775_18300)"/>
<path d="M148.683 185.059C150.765 185.914 152.829 186.877 154.747 188.172C155.701 188.817 156.62 189.523 157.53 190.262C157.983 190.63 158.445 190.974 158.911 191.315C159.39 191.665 159.91 192.011 160.459 192.174C160.508 192.189 160.481 192.295 160.431 192.285C159.886 192.172 159.365 192.061 158.846 191.845C158.353 191.64 157.882 191.357 157.424 191.056C156.45 190.416 155.506 189.709 154.538 189.054C152.586 187.733 150.634 186.413 148.593 185.306C148.501 185.257 148.585 185.019 148.683 185.059Z" fill="#0A0A0A"/>
<path d="M142.666 186.469C144.504 186.653 146.35 186.963 148.128 187.438C149.023 187.677 149.891 187.989 150.755 188.335C151.167 188.5 151.576 188.677 151.983 188.86C152.43 189.062 152.848 189.351 153.298 189.544C153.345 189.564 153.319 189.673 153.27 189.655C152.839 189.492 152.375 189.433 151.934 189.307C151.491 189.181 151.049 189.049 150.606 188.922C149.719 188.668 148.828 188.428 147.944 188.162C146.174 187.629 144.405 187.124 142.612 186.68C142.515 186.655 142.57 186.459 142.666 186.469Z" fill="#0A0A0A"/>
<path d="M137.641 153.559C124.162 167.725 104.726 193.187 106.123 199.232C109.624 214.374 122.61 232.716 129.156 239.353C132.977 243.227 154.409 224.07 151.186 220.462C146.102 214.769 133.624 196.511 132.177 194.115C131.405 192.837 141.06 173.359 145.511 160.377C150.35 146.264 144.211 146.654 137.641 153.559Z" fill="#D3766A"/>
<path d="M158.97 236.793C158.423 235.001 159.36 234.702 162.092 236.605C164.861 238.524 174.026 248.359 177.191 244.86C180.374 241.353 167.175 227.648 162.382 224.828C157.594 221.996 148.847 219.125 148.847 219.125C150.878 222.307 155.067 230.497 158.97 236.793Z" fill="#D3766A"/>
<path d="M151.917 250.481L158.225 257.18L207.833 210.468L201.525 203.769L151.917 250.481Z" fill="#C7C7C7"/>
<path d="M132.761 265.273L142.301 275.405L169.605 249.693L160.065 239.562L132.761 265.273Z" fill="#0A0A0A"/>
<path d="M181.812 231.837C182.421 228.237 186.314 231.015 186.314 231.015C186.314 231.015 181.673 225.665 183.736 222.197C185.733 218.86 190.319 222.381 190.651 222.629C190.408 222.344 186.272 217.317 188.704 214.045C191.234 210.647 195.23 214.973 195.487 215.253C195.342 214.912 193.501 210.367 195.914 208.301C200.062 204.754 206.414 217.296 210.593 218.733L217.451 214.181C216.781 215.624 215.953 216.974 216.048 220.24C216.137 223.295 216.219 225.334 215.4 227.064C214.048 229.906 211.262 229.447 211.262 229.447C211.262 229.447 213.262 232.763 211.429 235.399C210.484 236.75 207.483 236.44 207.483 236.44C207.483 236.44 208.974 239.162 207.196 241.405C205.784 243.2 202.993 242.61 202.993 242.61C202.993 242.61 203.212 245.887 201.173 247.252C197.067 250.014 180.515 239.546 181.812 231.837Z" fill="#D3766A"/>
<path d="M212.327 217.926L217.326 214.287C217.54 214.196 217.762 214.1 217.972 214.023C225.375 211.25 234.09 216.411 229.577 219.845C226.148 222.463 219.262 219.961 216.138 223.151L216.133 223.142L212.327 217.926Z" fill="#AD6359"/>
<path d="M202.537 242.581C202.595 242.611 202.564 242.698 202.5 242.677C196.216 240.563 189.96 236.315 186.088 230.884C185.961 230.706 186.195 230.422 186.373 230.591C191.433 235.426 196.311 239.312 202.537 242.581Z" fill="#0A0A0A"/>
<path d="M207.544 236.527C207.612 236.562 207.554 236.675 207.476 236.648C201.013 234.435 194.098 229.456 190.372 222.671C190.244 222.438 190.363 222.101 190.53 222.358C193.35 226.682 201.924 233.613 207.544 236.527Z" fill="#0A0A0A"/>
<path d="M195.39 214.688C199.214 221.056 204.695 225.556 210.988 229.371C211.07 229.421 210.991 229.531 210.912 229.509C207.325 228.482 203.566 225.633 200.83 223.169C198.209 220.809 196.318 218.152 195.168 214.823C195.123 214.693 195.308 214.552 195.39 214.688Z" fill="#0A0A0A"/>
<g opacity="0.4">
<path d="M194.863 160.35C199.607 133.06 225.679 114.729 252.959 119.474C266.156 121.776 277.681 129.089 285.416 140.076C293.142 151.064 296.137 164.383 293.835 177.581C291.543 190.778 284.22 202.302 273.233 210.038C262.246 217.764 248.926 220.749 235.729 218.457C222.532 216.155 211.007 208.842 203.281 197.855C195.556 186.867 192.561 173.547 194.863 160.35Z" fill="white"/>
</g>
<path d="M186.509 158.906C192.061 127.012 222.526 105.582 254.42 111.134C286.314 116.686 307.745 147.151 302.192 179.045C296.64 210.939 266.175 232.369 234.281 226.817C202.387 221.265 180.957 190.799 186.509 158.906ZM193.14 160.06C188.224 188.298 207.198 215.27 235.436 220.186C263.674 225.102 290.646 206.128 295.562 177.89C300.478 149.652 281.504 122.68 253.266 117.764C225.028 112.849 198.055 131.822 193.14 160.06Z" fill="#210401"/>
<path d="M258.339 220.859C264.309 219.242 270.025 216.567 275.247 212.9C287.004 204.625 294.821 192.298 297.283 178.184C299.735 164.071 296.538 149.823 288.273 138.076C280.009 126.318 267.682 118.492 253.569 116.04C239.446 113.578 225.199 116.784 213.451 125.049C207.577 129.181 202.688 134.324 198.949 140.204C195.22 146.083 192.651 152.698 191.414 159.755C186.341 188.947 205.946 216.826 235.138 221.899C242.981 223.268 250.864 222.891 258.339 220.859ZM235.734 218.456C208.444 213.712 190.113 187.639 194.858 160.359C197.16 147.162 204.473 135.638 215.46 127.902C226.448 120.176 239.767 117.181 252.964 119.483C266.161 121.775 277.685 129.098 285.422 140.085C293.148 151.073 296.133 164.392 293.841 177.589C291.539 190.786 284.226 202.31 273.239 210.036C262.25 217.763 248.931 220.758 235.734 218.456ZM258.339 220.859C264.309 219.242 270.025 216.567 275.247 212.9C287.004 204.625 294.821 192.298 297.283 178.184C299.735 164.071 296.538 149.823 288.273 138.076C280.009 126.318 267.682 118.492 253.569 116.04C239.446 113.578 225.199 116.784 213.451 125.049C207.577 129.181 202.688 134.324 198.949 140.204C195.22 146.083 192.651 152.698 191.414 159.755C186.341 188.947 205.946 216.826 235.138 221.899C242.981 223.268 250.864 222.891 258.339 220.859ZM235.734 218.456C208.444 213.712 190.113 187.639 194.858 160.359C197.16 147.162 204.473 135.638 215.46 127.902C226.448 120.176 239.767 117.181 252.964 119.483C266.161 121.775 277.685 129.098 285.422 140.085C293.148 151.073 296.133 164.392 293.841 177.589C291.539 190.786 284.226 202.31 273.239 210.036C262.25 217.763 248.931 220.758 235.734 218.456ZM260.089 227.358C266.816 225.543 273.247 222.531 279.121 218.399C292.34 209.099 301.144 195.225 303.917 179.34C309.63 146.493 287.561 115.13 254.724 109.407C238.829 106.644 222.806 110.241 209.577 119.541C196.359 128.851 187.554 142.715 184.791 158.6C182.018 174.485 185.625 190.518 194.925 203.737C204.225 216.966 218.099 225.77 233.984 228.534C242.812 230.07 251.675 229.641 260.089 227.358ZM234.579 225.09C219.62 222.486 206.55 214.185 197.778 201.727C189.016 189.268 185.62 174.163 188.234 159.204C190.837 144.235 199.128 131.165 211.597 122.403C217.125 118.509 223.188 115.676 229.527 113.96C237.451 111.808 245.804 111.4 254.119 112.849C285.063 118.234 305.859 147.8 300.474 178.744C296.555 201.233 279.881 218.361 259.17 223.968C251.386 226.078 243.034 226.565 234.579 225.09ZM275.247 212.9C287.004 204.625 294.821 192.298 297.283 178.184C299.735 164.071 296.538 149.823 288.273 138.076C280.009 126.318 267.682 118.492 253.569 116.04C239.446 113.578 225.199 116.784 213.451 125.049C207.577 129.181 202.688 134.324 198.949 140.204C195.22 146.083 192.651 152.698 191.414 159.755C186.341 188.947 205.946 216.826 235.138 221.899C242.981 223.268 250.864 222.891 258.339 220.859C264.31 219.241 270.025 216.567 275.247 212.9ZM235.734 218.456C208.444 213.712 190.113 187.639 194.858 160.359C197.16 147.162 204.473 135.638 215.46 127.902C226.448 120.176 239.767 117.181 252.964 119.483C266.161 121.775 277.685 129.098 285.422 140.085C293.148 151.073 296.133 164.392 293.841 177.589C291.539 190.786 284.226 202.31 273.239 210.036C262.25 217.763 248.931 220.758 235.734 218.456Z" fill="#210401"/>
<path opacity="0.3" d="M222.297 133.775C226.682 130.789 231.841 128.935 237.173 127.972C239.844 127.47 242.589 127.312 245.339 127.349C248.092 127.421 250.847 127.796 253.56 128.393C258.969 129.687 264.131 132.131 268.534 135.497C272.939 138.86 276.67 143 279.491 147.626C275.562 143.884 271.474 140.475 267.05 137.702C264.802 136.383 262.56 135.072 260.155 134.138C257.786 133.142 255.359 132.279 252.856 131.748C247.882 130.551 242.72 130.248 237.581 130.633C232.445 131.063 227.317 132.088 222.297 133.775Z" fill="#EBEBEB"/>
<path opacity="0.3" d="M253.729 207.701C248.695 209.376 243.226 209.75 237.834 209.219C235.127 208.972 232.444 208.374 229.808 207.587C227.18 206.766 224.632 205.652 222.185 204.336C217.335 201.613 213.038 197.852 209.721 193.411C206.403 188.972 203.944 183.97 202.494 178.75C205.252 183.423 208.252 187.819 211.751 191.696C213.553 193.578 215.352 195.453 217.41 197.008C219.417 198.614 221.516 200.107 223.779 201.301C228.237 203.811 233.12 205.513 238.168 206.547C243.226 207.537 248.439 207.952 253.729 207.701Z" fill="#EBEBEB"/>
<path d="M127.19 236.555C133.237 245.311 140.232 256.58 151.124 261.633C153.26 262.624 154.986 262.124 154.986 262.124C159.827 264.476 162.391 262.896 162.391 262.896C167.571 263.706 169.971 261.729 169.971 261.729C169.971 261.729 175.685 264.428 177.889 261.245C180.372 257.683 171.862 254.59 168.222 250.027C159.883 239.572 150.953 222.379 148.847 219.125L127.19 236.555Z" fill="#D3766A"/>
<path d="M151.782 245.215C154.298 248.243 156.69 251.283 159.602 253.954C162.798 256.885 166.364 259.169 169.937 261.586C170.049 261.662 169.955 261.824 169.834 261.767C162.673 258.417 155.811 252.025 151.643 245.327C151.542 245.165 151.656 245.063 151.782 245.215Z" fill="#0A0A0A"/>
<path d="M144.741 249.335C147.352 252.145 151.973 257.055 162.453 262.79C162.487 262.809 162.466 262.873 162.426 262.857C155.127 260.039 149.394 255.566 144.608 249.459C144.458 249.27 144.567 249.149 144.741 249.335Z" fill="#0A0A0A"/>
<path d="M140.998 251.614C145.62 256.224 149.117 258.545 154.977 262.089C155.01 262.109 154.984 262.172 154.946 262.154C147.864 258.826 145.672 256.816 140.818 251.751C140.65 251.577 140.817 251.434 140.998 251.614Z" fill="#0A0A0A"/>
<path d="M122.333 238.937L150.277 217.081L133.938 194.225C138.394 183.854 145.937 163.358 147.941 155.724C150.292 146.768 145.973 145.181 138.915 151.44C122.772 165.756 104.893 192.097 104.224 197.449C103.265 205.117 122.333 238.937 122.333 238.937Z" fill="url(#paint8_linear_5775_18300)"/>
<path d="M121.361 229.525C122.832 227.859 129.964 222.073 131.757 220.65C133.512 219.257 140.931 213.769 142.777 212.315C142.877 212.236 143.02 212.356 142.919 212.438C141.116 213.908 134.152 219.954 132.375 221.392C130.592 222.835 123.411 228.519 121.44 229.616C121.371 229.653 121.314 229.578 121.361 229.525Z" fill="#0A0A0A"/>
<path d="M144.142 169.32C141.527 177.307 137.857 185.503 134.776 193.332C134.642 193.676 134.516 193.994 134.416 194.309C134.423 194.293 134.432 194.208 134.415 194.165C134.416 194.156 134.415 194.165 134.424 194.184C137.949 199.846 142.561 205.818 146.398 211.368L150.347 216.999L150.375 217.039L150.338 217.066L149.567 217.631L150.277 216.99L150.269 217.057L146 211.662C141.872 206.162 137.151 200.393 133.537 194.565C133.476 194.441 133.424 194.201 133.483 194.072C133.768 193.124 134.131 192.275 134.492 191.374C137.39 184.313 141.085 176.293 144.142 169.32Z" fill="#0A0A0A"/>
<path d="M144.388 171C143.846 172.183 143.201 173.375 142.193 174.221C142.935 173.174 143.565 171.994 144.388 171Z" fill="#0A0A0A"/>
<path d="M145.82 147.04C145.82 147.04 153.183 164.97 160.309 165.806C165.641 166.432 164.858 155.54 164.858 155.54C164.858 155.54 159.906 141.154 145.82 147.04Z" fill="#D3766A"/>
<path d="M153.053 148.212C152.899 149.365 155.254 158.332 160.486 159.558C163.207 160.195 165.117 151.656 165.117 151.656L165.502 151.073L170.884 142.91L162.958 132.207L161.782 130.742C161.782 130.742 160.457 133.073 158.835 135.991C158.759 136.126 158.683 136.261 158.604 136.406C158.508 136.569 158.415 136.721 158.333 136.877C158.085 137.31 157.834 137.753 157.593 138.2C157.408 138.539 157.227 138.868 157.046 139.231C156.855 139.591 156.677 139.944 156.486 140.303C154.68 143.89 153.126 147.725 153.053 148.212Z" fill="#D3766A"/>
<path d="M158.836 135.991C158.696 144.061 163.268 149.109 165.502 151.073L170.884 142.91L162.958 132.207L161.782 130.742C161.782 130.742 160.457 133.073 158.836 135.991Z" fill="#0A0A0A"/>
<path d="M187.25 127.588C189.834 144.553 179.965 148.017 176.306 148.57C172.984 149.072 161.611 150.36 157.287 133.753C152.964 117.145 160.034 110.581 167.57 109.03C175.106 107.479 184.665 110.622 187.25 127.588Z" fill="#D3766A"/>
<path d="M157.419 133.634C160.685 134.139 161.734 126.652 161.734 126.652C161.734 126.652 175.768 124.671 177.267 113.33C177.267 113.33 179.46 120.646 186.685 124.129C186.685 124.129 186.542 111.647 176.724 108.951C176.724 108.951 164.58 104.147 157.415 113.69C150.249 123.233 155.226 133.295 157.419 133.634Z" fill="#0A0A0A"/>
<path d="M177.339 112.492C177.478 114.232 177.175 116.006 176.572 117.667C175.969 119.328 175.044 120.899 173.809 122.187C173.527 122.533 173.16 122.797 172.84 123.104L172.343 123.549C172.166 123.683 171.982 123.808 171.799 123.933C171.429 124.179 171.07 124.441 170.693 124.672C170.301 124.879 169.905 125.076 169.508 125.269C169.309 125.364 169.115 125.468 168.913 125.555L168.291 125.776L167.05 126.214C166.2 126.425 165.34 126.593 164.488 126.747C165.3 126.419 166.129 126.179 166.922 125.848L168.094 125.317L168.678 125.054C168.866 124.953 169.045 124.836 169.229 124.729C169.593 124.508 169.958 124.291 170.328 124.083C170.679 123.846 171.01 123.581 171.351 123.332L171.86 122.956L172.324 122.526C172.623 122.229 172.967 121.977 173.229 121.646C174.412 120.44 175.298 118.977 176.008 117.44C176.36 116.667 176.637 115.858 176.857 115.03C177.096 114.206 177.247 113.357 177.339 112.492Z" fill="#0A0A0A"/>
<path d="M160.9 133.043C160.9 133.043 156.817 127.939 154.477 129.429C152.138 130.919 155.45 138.485 158.366 139.361C161.282 140.237 162.145 137.553 162.145 137.553L160.9 133.043Z" fill="#D3766A"/>
<path d="M155.481 131.578C155.435 131.577 155.43 131.642 155.471 131.655C157.52 132.335 158.691 134.118 159.551 135.99C158.91 135.29 158.075 134.937 157.131 135.708C157.081 135.748 157.136 135.827 157.192 135.812C157.999 135.584 158.598 135.687 159.193 136.306C159.614 136.745 159.92 137.314 160.235 137.831C160.34 138.004 160.656 137.887 160.575 137.686C160.569 137.671 160.562 137.656 160.556 137.641C160.44 135.091 158.231 131.657 155.481 131.578Z" fill="#0A0A0A"/>
<path d="M184.941 128.211C184.535 128.193 184.163 128.109 183.764 128.049C183.313 127.982 182.947 127.974 182.595 127.654C182.406 127.482 182.393 127.107 182.543 126.909C182.891 126.445 183.464 126.39 184.01 126.449C184.603 126.513 185.044 126.714 185.462 127.136C185.868 127.547 185.477 128.235 184.941 128.211Z" fill="#0A0A0A"/>
<path d="M173.687 126.824C174.083 126.73 174.432 126.577 174.813 126.443C175.244 126.292 175.602 126.216 175.888 125.836C176.041 125.632 175.983 125.261 175.799 125.094C175.37 124.704 174.797 124.757 174.271 124.918C173.7 125.092 173.305 125.372 172.974 125.866C172.652 126.346 173.165 126.949 173.687 126.824Z" fill="#0A0A0A"/>
<path d="M176.114 130.276C176.101 130.232 176.028 130.34 176.034 130.388C176.183 131.551 176.158 132.908 175.139 133.396C175.108 133.411 175.117 133.469 175.155 133.46C176.425 133.155 176.441 131.353 176.114 130.276Z" fill="#0A0A0A"/>
<path d="M174.956 129.156C173.066 129.193 173.28 132.97 175.031 132.935C176.754 132.901 176.54 129.125 174.956 129.156Z" fill="#0A0A0A"/>
<path d="M174.226 129.4C173.908 129.632 173.606 130.028 173.211 130.089C172.753 130.161 172.384 129.785 172.062 129.422C172.028 129.384 171.998 129.419 172 129.469C172.03 130.193 172.35 130.92 173.132 130.984C173.845 131.043 174.317 130.373 174.456 129.635C174.482 129.498 174.354 129.306 174.226 129.4Z" fill="#0A0A0A"/>
<path d="M182.652 129.871C182.66 129.826 182.745 129.924 182.745 129.972C182.742 131.144 182.937 132.487 184.008 132.845C184.041 132.856 184.04 132.915 184 132.911C182.702 132.767 182.462 130.981 182.652 129.871Z" fill="#0A0A0A"/>
<path d="M183.662 128.617C185.541 128.418 185.8 132.192 184.059 132.376C182.345 132.558 182.086 128.784 183.662 128.617Z" fill="#0A0A0A"/>
<path d="M184.417 128.768C184.761 128.959 185.11 129.314 185.51 129.325C185.973 129.339 186.293 128.92 186.567 128.519C186.595 128.478 186.63 128.508 186.634 128.558C186.695 129.28 186.467 130.041 185.7 130.202C184.999 130.349 184.448 129.744 184.218 129.029C184.175 128.898 184.278 128.691 184.417 128.768Z" fill="#0A0A0A"/>
<path d="M175.372 140.201C175.641 140.487 175.905 140.876 176.328 140.93C176.734 140.981 177.219 140.817 177.599 140.688C177.637 140.675 177.672 140.716 177.647 140.75C177.324 141.187 176.673 141.441 176.135 141.323C175.609 141.208 175.366 140.739 175.258 140.249C175.242 140.181 175.333 140.16 175.372 140.201Z" fill="#0A0A0A"/>
<path d="M181.162 134.986C181.162 134.986 181.435 136.756 181.449 137.593C181.45 137.671 179.065 137.507 176.625 138.374C176.259 138.504 176.258 138.194 176.667 137.939C177.485 137.429 178.541 136.915 180.718 136.876C180.774 136.644 180.247 134.159 180.38 134.146C180.837 134.1 181.743 134.397 182.287 134.547C181.825 130.843 180.773 127.243 180.368 123.548C180.356 123.416 180.545 123.373 180.585 123.49C181.955 127.185 182.58 131.436 183.155 135.249C183.232 135.725 181.499 135.123 181.162 134.986Z" fill="#0A0A0A"/>
<path d="M179.419 137.736C179.419 137.736 178.646 139.762 177.389 139.966C175.944 140.201 175.453 138.45 177.045 137.697C177.88 137.302 179.419 137.736 179.419 137.736Z" fill="#0A0A0A"/>
<path d="M178.819 138.857C178.475 139.356 177.978 139.863 177.387 139.96C176.627 140.086 176.127 139.656 176.064 139.108L176.063 139.099C176.061 139.08 176.069 139.07 176.077 139.05C177.542 138.239 178.371 138.459 178.819 138.857Z" fill="#FF99BA"/>
<path d="M86.4673 85.609C86.4673 100.853 98.8323 113.218 114.076 113.218C120.237 113.218 125.925 111.198 130.524 107.774L144.049 111.227L138.418 98.633C140.51 94.75 141.685 90.309 141.685 85.609C141.685 70.364 129.32 58 114.076 58C98.8323 58 86.4673 70.365 86.4673 85.609Z" fill="white"/>
<path d="M86.4672 85.6111C86.8992 108.629 112.168 120.78 130.612 107.43L144.158 110.803L143.649 111.408L137.98 98.8311L137.884 98.6171C146.406 83.2771 137.753 63.3671 120.72 59.1241C103.651 54.4751 86.3722 67.9591 86.4672 85.6111ZM86.4672 85.6111C86.5392 62.1131 113.945 49.2531 132.09 64.2171C142.109 72.3271 145.187 87.5721 138.842 98.8631L138.858 98.4381L144.45 111.049L144.82 111.884L143.94 111.654L130.435 108.121C113.139 121.228 86.6152 108.908 86.4672 85.6111Z" fill="#0A0A0A"/>
<path d="M115.88 89.2836V92.3356C115.88 93.6486 114.894 94.6346 113.579 94.6346C112.36 94.6346 111.278 93.6486 111.278 92.3356V87.4536C111.278 87.4076 111.328 87.4076 111.328 87.3596C111.278 87.3136 111.278 87.3136 111.278 87.2656C111.278 86.0446 112.36 84.9646 113.579 84.9646C116.537 84.9646 118.93 82.6176 118.93 79.7076C118.93 76.7516 116.538 74.4506 113.579 74.4506C111.657 74.4506 109.967 75.4846 109.073 77.0326C108.416 78.1596 107.009 78.5346 105.882 77.8776C104.804 77.2216 104.426 75.8596 105.083 74.7336C106.772 71.8236 109.967 69.8516 113.579 69.8516C119.025 69.8516 123.485 74.2636 123.485 79.7076C123.486 84.3556 120.245 88.2526 115.88 89.2836ZM115.88 99.5626V100.408C115.88 101.723 114.894 102.709 113.579 102.709C112.36 102.709 111.278 101.723 111.278 100.408V99.5626C111.278 98.2956 112.36 97.2636 113.579 97.2636C114.894 97.2636 115.88 98.2956 115.88 99.5626Z" fill="url(#paint9_linear_5775_18300)"/>
<path d="M45.7539 468.258C176.607 467.646 323.394 467.641 454.246 468.258C323.393 468.875 176.606 468.87 45.7539 468.258Z" fill="#0A0A0A"/>
<defs>
<linearGradient id="paint0_linear_5775_18300" x1="268.365" y1="465.44" x2="305.894" y2="398.487" gradientUnits="userSpaceOnUse">
<stop stop-color="#406051"/>
<stop offset="1" stop-color="#406051" stop-opacity="0.5"/>
</linearGradient>
<linearGradient id="paint1_linear_5775_18300" x1="336.382" y1="468.046" x2="337.663" y2="453.19" gradientUnits="userSpaceOnUse">
<stop stop-color="#406051"/>
<stop offset="1" stop-color="#406051" stop-opacity="0.5"/>
</linearGradient>
<linearGradient id="paint2_linear_5775_18300" x1="443.716" y1="97.554" x2="451.354" y2="96.3972" gradientUnits="userSpaceOnUse">
<stop stop-color="#406051"/>
<stop offset="1" stop-color="#406051" stop-opacity="0.5"/>
</linearGradient>
<linearGradient id="paint3_linear_5775_18300" x1="135.781" y1="449.4" x2="480.631" y2="252.849" gradientUnits="userSpaceOnUse">
<stop stop-color="#406051"/>
<stop offset="1" stop-color="#406051" stop-opacity="0.5"/>
</linearGradient>
<linearGradient id="paint4_linear_5775_18300" x1="314.348" y1="422.467" x2="496.671" y2="289.158" gradientUnits="userSpaceOnUse">
<stop stop-color="#406051"/>
<stop offset="1" stop-color="#406051" stop-opacity="0.5"/>
</linearGradient>
<linearGradient id="paint5_linear_5775_18300" x1="45.7539" y1="383.612" x2="214.613" y2="279.609" gradientUnits="userSpaceOnUse">
<stop stop-color="#406051"/>
<stop offset="1" stop-color="#406051" stop-opacity="0.5"/>
</linearGradient>
<linearGradient id="paint6_linear_5775_18300" x1="151.45" y1="238.955" x2="224.244" y2="197.666" gradientUnits="userSpaceOnUse">
<stop stop-color="#406051"/>
<stop offset="1" stop-color="#406051" stop-opacity="0.5"/>
</linearGradient>
<linearGradient id="paint7_linear_5775_18300" x1="105.579" y1="214.314" x2="173.888" y2="151.399" gradientUnits="userSpaceOnUse">
<stop stop-color="#406051"/>
<stop offset="1" stop-color="#406051" stop-opacity="0.5"/>
</linearGradient>
<linearGradient id="paint8_linear_5775_18300" x1="104.189" y1="238.937" x2="177.638" y2="201.849" gradientUnits="userSpaceOnUse">
<stop stop-color="#406051"/>
<stop offset="1" stop-color="#406051" stop-opacity="0.5"/>
</linearGradient>
<linearGradient id="paint9_linear_5775_18300" x1="104.759" y1="102.709" x2="133.029" y2="86.5965" gradientUnits="userSpaceOnUse">
<stop stop-color="#406051"/>
<stop offset="1" stop-color="#406051" stop-opacity="0.5"/>
</linearGradient>
</defs>
</svg>
