<svg width="24" height="24" viewBox="0 0 24 24" fill="none" xmlns="http://www.w3.org/2000/svg">
<path d="M22.0001 16.9201V19.9201C22.0012 20.1986 21.9442 20.4743 21.8326 20.7294C21.7211 20.9846 21.5574 21.2137 21.3522 21.402C21.147 21.5902 20.9047 21.7336 20.6409 21.8228C20.377 21.912 20.0975 21.9452 19.8201 21.9201C16.7429 21.5857 13.7871 20.5342 11.1901 18.8501C8.77394 17.3148 6.72545 15.2663 5.19012 12.8501C3.50009 10.2413 2.44836 7.27109 2.12012 4.1801C2.09513 3.90356 2.12799 3.62486 2.21662 3.36172C2.30524 3.09859 2.44769 2.85679 2.63488 2.65172C2.82208 2.44665 3.04992 2.28281 3.30391 2.17062C3.55789 2.05843 3.83246 2.00036 4.11012 2.0001H7.11012C7.59542 1.99532 8.06591 2.16718 8.43388 2.48363C8.80185 2.80008 9.04219 3.23954 9.11012 3.7201C9.23674 4.68016 9.47157 5.62282 9.81012 6.5301C9.94466 6.88802 9.97378 7.27701 9.89402 7.65098C9.81427 8.02494 9.62898 8.36821 9.36012 8.6401L8.09012 9.9101C9.51367 12.4136 11.5866 14.4865 14.0901 15.9101L15.3601 14.6401C15.632 14.3712 15.9753 14.1859 16.3492 14.1062C16.7232 14.0264 17.1122 14.0556 17.4701 14.1901C18.3774 14.5286 19.3201 14.7635 20.2801 14.8901C20.7659 14.9586 21.2095 15.2033 21.5266 15.5776C21.8438 15.9519 22.0123 16.4297 22.0001 16.9201Z" stroke="#210401" stroke-width="1.5" stroke-linecap="round" stroke-linejoin="round"/>
</svg>
