<svg width="71" height="57" viewBox="0 0 71 57" fill="none" xmlns="http://www.w3.org/2000/svg">
<g filter="url(#filter0_di_5698_57760)">
<g filter="url(#filter1_di_5698_57760)">
<path d="M70.0793 26.6817V20.3352L70.4085 19.7539C70.4085 21.7551 70.3862 26.373 70.3862 26.5102C70.3862 26.6474 70.4272 26.7389 70.4476 26.7675C70.8957 27.2821 71.0001 27.9682 71.0001 28.0539C71.0001 28.8762 70.8656 29.1323 70.816 29.2546C70.7116 29.5119 70.4844 30.0265 70.2818 30.2838L69.8951 30.7984C69.7969 30.7984 69.8542 30.3981 69.8951 30.198C69.936 29.9979 69.7907 29.2546 69.7723 29.1689C69.7508 29.0685 69.7109 28.8258 69.4654 27.8824C69.2689 27.1277 69.7928 26.7675 70.0793 26.6817Z" fill="#210401"/>
</g>
<path d="M63.9413 14.7011C63.8159 14.6793 63.7505 14.6249 63.8468 14.5033C63.9432 14.3818 63.9669 14.2995 63.9669 14.158C64.0738 14.1411 64.3728 14.111 64.4702 14.158C64.5677 14.205 64.6687 14.3155 64.7219 14.4096C64.7468 14.4355 64.6137 14.5033 64.616 14.5391C64.6183 14.575 64.6079 14.6105 64.5865 14.6394C64.5751 14.6536 64.5609 14.6654 64.5448 14.674C64.5287 14.6825 64.511 14.6877 64.4928 14.6893C64.4746 14.6908 64.4563 14.6886 64.439 14.6828C64.4216 14.6771 64.4057 14.6678 64.3921 14.6557C64.2303 14.5269 64.0722 14.4616 63.9413 14.7011Z" fill="#210401"/>
<path d="M70.1363 20.3562C70.1244 20.3559 70.1126 20.3581 70.1017 20.3626C70.0907 20.3671 70.0808 20.3738 70.0726 20.3824C70.0644 20.3909 70.0581 20.401 70.054 20.4121C70.05 20.4232 70.0483 20.4351 70.049 20.4469C69.9127 20.4668 69.8455 20.3779 69.7819 20.28C69.8818 20.1131 70.0545 19.9571 69.8945 19.7358C69.7346 19.5145 69.8091 19.4147 70.0763 19.3875C70.2398 19.3712 70.2398 19.2497 70.1599 19.1336C70.1324 19.0827 70.0899 19.0416 70.0381 19.0157C69.7473 18.9232 69.5111 18.6529 69.153 18.7708C69.0955 18.7831 69.0355 18.7754 68.9829 18.749C68.9304 18.7227 68.8884 18.6791 68.8641 18.6257C68.8132 18.5296 68.8895 18.4697 68.964 18.4171C69.113 18.3101 69.0658 18.2085 68.964 18.0942C68.8186 17.9328 68.6005 17.8076 68.4333 17.8657C68.1662 17.9582 67.9972 17.7859 67.7827 17.7478H67.2611C67.2411 17.5283 67.2993 17.3759 67.5628 17.4031C67.5912 17.4059 67.6198 17.4059 67.6482 17.4031C67.6847 17.4024 67.7202 17.3915 67.7507 17.3716C67.7812 17.3517 67.8055 17.3237 67.8209 17.2907C67.8536 17.2072 67.7809 17.1709 67.7282 17.1093C67.6178 16.9862 67.4687 16.9044 67.3055 16.8773C67.1423 16.8503 66.9746 16.8796 66.8304 16.9605H66.6486C66.6486 16.8589 66.6486 16.7574 66.6486 16.6576C66.6486 16.5197 66.8776 16.4254 66.7413 16.2712C66.6423 16.1656 66.5313 16.0719 66.4106 15.9919C66.2777 15.9031 66.1245 15.8495 65.9653 15.8359C65.7999 15.8159 65.7109 15.8069 65.7345 15.5819C65.7425 15.4704 65.7102 15.3597 65.6436 15.2699C65.5769 15.1801 65.4802 15.117 65.371 15.0922C65.0075 15.045 64.6768 14.7893 64.2806 14.8709C64.2102 14.8846 64.1372 14.8741 64.0735 14.8411C64.0099 14.8082 63.9592 14.7548 63.9298 14.6895C64.0607 14.4501 64.2188 14.5081 64.3896 14.6442C64.4032 14.6563 64.4192 14.6655 64.4365 14.6713C64.4538 14.677 64.4722 14.6792 64.4903 14.6777C64.5085 14.6762 64.5262 14.671 64.5423 14.6624C64.5585 14.6538 64.5727 14.6421 64.5841 14.6278C64.6054 14.5989 64.6159 14.5634 64.6135 14.5276C64.6112 14.4917 64.5963 14.4578 64.5713 14.4319C64.5182 14.3378 64.4375 14.2622 64.34 14.2152C64.2426 14.1682 64.133 14.152 64.0261 14.1689C63.989 14.0975 63.9262 14.0429 63.8503 14.0159C63.7744 13.989 63.6911 13.9918 63.6172 14.0238C63.4681 14.0521 63.3147 14.0497 63.1665 14.0166C63.0184 13.9835 62.8786 13.9205 62.7558 13.8315C62.6249 13.7517 62.6413 13.6338 62.7848 13.5812C62.8503 13.5576 62.9284 13.5649 62.9993 13.5467C63.1629 13.5068 63.1629 13.4034 63.0811 13.2873C63.0356 13.2214 62.9697 13.1724 62.8934 13.1478C62.8172 13.1232 62.7349 13.1244 62.6594 13.1513C62.3795 13.2112 62.3087 13.1513 62.2142 12.8974C62.1996 12.8556 62.1996 12.8103 62.1869 12.7686C62.1183 12.5313 61.9781 12.321 61.7853 12.1663C61.6181 12.023 61.4327 12.1228 61.24 12.1337C61.0231 12.151 60.8055 12.1083 60.6112 12.0103C60.5058 11.9559 60.364 11.8671 60.4077 11.7165C60.4422 11.595 60.5894 11.653 60.6766 11.6403C60.7203 11.6403 60.7639 11.6403 60.8075 11.6403C60.8367 11.6397 60.8649 11.6297 60.8878 11.6117C60.9108 11.5937 60.9272 11.5687 60.9347 11.5405C60.9432 11.5057 60.9399 11.4691 60.9255 11.4364C60.911 11.4036 60.8862 11.3764 60.8547 11.3592C60.7705 11.3014 60.6729 11.2658 60.5712 11.2558C60.2077 11.2721 59.8752 11.0744 59.5153 11.0435C59.3736 11.0435 59.2245 10.9982 59.2409 10.8349C59.2591 10.639 59.4226 10.7116 59.548 10.7243C59.708 10.7406 59.7807 10.6281 59.7098 10.4921C59.6922 10.4518 59.6632 10.4175 59.6264 10.3934C59.5896 10.3692 59.5466 10.3563 59.5026 10.3561C59.2827 10.3561 59.25 10.1221 59.1009 10.0586C58.9192 9.97877 58.7774 10.24 58.5757 10.1747C58.5467 10.1719 58.5175 10.1719 58.4885 10.1747C58.4447 10.1748 58.402 10.1608 58.3669 10.1346C58.3318 10.1084 58.3063 10.0715 58.294 10.0296C58.2892 9.9864 58.295 9.94274 58.3108 9.9023C58.3266 9.86186 58.3521 9.82586 58.3849 9.79737C58.4576 9.71212 58.6357 9.79737 58.6539 9.61598C58.6248 9.57166 58.5906 9.53088 58.5521 9.49445C58.3021 9.31673 58.0011 9.22447 57.6943 9.23143C57.3072 9.23143 57.2635 9.15525 57.4144 8.80153C57.4725 8.67093 57.4635 8.58387 57.3381 8.51131C57.2127 8.43875 57.1 8.30089 57.0091 8.32992C56.682 8.40247 56.4039 8.1322 56.0877 8.23559C56.0649 8.24765 56.0398 8.25443 56.014 8.25541C55.9883 8.2564 55.9627 8.25156 55.9391 8.24127C55.9155 8.23098 55.8945 8.21549 55.8778 8.19598C55.861 8.17646 55.8489 8.15342 55.8423 8.12857C55.832 8.10099 55.8279 8.07147 55.8304 8.04213C55.8328 8.01279 55.8418 7.98436 55.8565 7.95888C55.8713 7.93339 55.8915 7.91148 55.9158 7.89472C55.94 7.87795 55.9677 7.86676 55.9968 7.86193C56.0537 7.84988 56.1114 7.8426 56.1695 7.84016C56.2476 7.84016 56.3112 7.79844 56.3167 7.71319C56.3218 7.67647 56.3136 7.63915 56.2936 7.6079C56.2736 7.57666 56.2431 7.55353 56.2076 7.54268C55.9277 7.48826 55.6969 7.26878 55.3825 7.32138C55.2241 7.34495 55.063 7.34495 54.9045 7.32138C54.8302 7.31964 54.7592 7.28986 54.706 7.23804C54.6527 7.18622 54.621 7.11619 54.6174 7.04204C54.6174 6.87153 54.7755 6.91144 54.8827 6.8933C54.99 6.87516 55.0645 6.84795 55.0772 6.75C55.1008 6.62302 54.9972 6.56861 54.8955 6.53596C54.5229 6.41805 54.1812 6.17317 53.7541 6.27838C53.616 6.30922 53.4306 6.27838 53.4179 6.09699C53.4052 5.95006 53.5669 5.95006 53.6814 5.94099H53.725C53.8105 5.94099 53.9068 5.95006 53.945 5.84304C53.9595 5.78535 53.9509 5.72427 53.9211 5.67279C53.8912 5.6213 53.8424 5.58347 53.785 5.56733C53.3997 5.41677 53.0144 5.24989 52.5855 5.29524C52.4838 5.30612 52.3729 5.36054 52.342 5.21543C52.3147 5.09752 52.4002 5.03404 52.5074 4.99957C52.5509 4.99391 52.594 4.98542 52.6364 4.97418C52.8448 4.89074 52.863 4.77646 52.6909 4.63135C52.6019 4.55516 52.4801 4.44995 52.3856 4.48805C52.1294 4.59507 51.9367 4.43 51.7204 4.37558C51.426 4.30121 51.4133 4.27038 51.5987 4.0128C51.7223 3.84048 51.6768 3.74253 51.5114 3.67723C51.1988 3.55388 50.9081 3.31444 50.5319 3.49584C50.4737 3.52667 50.3883 3.49584 50.3156 3.50853C50.2798 3.5161 50.2428 3.51618 50.2069 3.50878C50.1711 3.50138 50.1371 3.48665 50.1073 3.46552C50.0774 3.44439 50.0522 3.41733 50.0333 3.38602C50.0145 3.35471 50.0023 3.31984 49.9975 3.28361C49.9721 3.13124 50.0993 3.10222 50.212 3.0605C50.3247 3.01878 50.4319 3.01333 50.4392 2.88999C50.4464 2.76664 50.3229 2.7086 50.2393 2.62516C50.142 2.55886 50.0228 2.53285 49.9067 2.5526H49.3833C49.2379 2.5526 49.1252 2.49456 49.1016 2.33674C49.0779 2.17893 49.1724 2.14447 49.2978 2.10456C49.4941 2.04108 49.4287 1.92317 49.336 1.80527C49.2715 1.74693 49.1953 1.70302 49.1125 1.67648C48.9974 1.63159 48.8949 1.55968 48.8136 1.46685C48.7323 1.37402 48.6746 1.263 48.6454 1.14319L48.8562 0.820312C48.8618 0.829099 48.8704 0.835579 48.8804 0.838575C48.8904 0.841571 48.9012 0.840884 48.9107 0.836638C48.9216 0.887427 48.9634 0.892869 49.0034 0.903752C49.8358 1.60211 50.6663 2.30409 51.5024 3.00064L70.9995 19.266C70.9886 19.4057 70.8759 19.4837 70.796 19.5798C70.5924 19.812 70.3634 20.0841 70.1363 20.3562Z" fill="#210401"/>
<path d="M64.2593 15.6691C63.8354 15.367 63.4294 15.0405 63.0434 14.6914C58.0892 10.5641 53.1385 6.43508 48.1915 2.30419C48.0916 2.22075 47.9953 2.1228 47.8844 2.03573C48.1213 1.70488 48.3831 1.39258 48.6677 1.10156C48.6969 1.22137 48.7546 1.33239 48.8359 1.42522C48.9172 1.51805 49.0197 1.58996 49.1348 1.63485C49.2176 1.66139 49.2939 1.70531 49.3583 1.76364C49.451 1.8761 49.5546 2.09353 49.3583 2.15702C49.2329 2.19692 49.1002 2.14819 49.1239 2.29512C49.1475 2.44204 49.2602 2.50735 49.4056 2.51097H49.929C50.0451 2.49123 50.1643 2.51724 50.2616 2.58353C50.3452 2.6579 50.4706 2.71776 50.4615 2.84836C50.4524 2.97896 50.3543 3.08005 50.2616 3.1127C50.1689 3.14535 49.9944 3.08961 50.0199 3.24198C50.0234 3.27902 50.0348 3.31489 50.0531 3.34726C50.0715 3.37963 50.0965 3.40777 50.1265 3.42984C50.1566 3.45192 50.1909 3.46744 50.2273 3.47539C50.2637 3.48334 50.3014 3.48354 50.3379 3.47598C50.4106 3.47598 50.496 3.49412 50.5542 3.46328C50.9304 3.28189 51.2212 3.52132 51.5338 3.64467C51.6991 3.70997 51.7446 3.80792 51.621 3.98024C51.4393 4.23963 51.4483 4.27047 51.7428 4.34303C51.959 4.39744 52.1517 4.56251 52.4079 4.45549C52.5024 4.4174 52.6242 4.52261 52.7133 4.59879C52.8865 4.7439 52.8526 5.01487 52.6429 5.09831C52.6005 5.10955 52.6865 5.09264 52.6429 5.09831C52.5357 5.12914 52.3371 5.06497 52.3643 5.18287C52.3952 5.32798 52.5061 5.27357 52.6079 5.26268C53.0368 5.21733 53.4221 5.38421 53.8073 5.53477C53.8647 5.55091 53.9135 5.58875 53.9434 5.64023C53.9732 5.69171 53.9818 5.75279 53.9673 5.81048C53.9346 5.91751 53.9302 6.20105 53.7764 6.00461L53.6495 6.10487C53.535 6.10487 53.4275 5.90843 53.4402 6.06443C53.4529 6.24582 53.6383 6.27847 53.7764 6.24582C54.2035 6.14424 54.5452 6.3855 54.9178 6.5034C55.0123 6.53424 55.1159 6.59047 55.0995 6.71744C55.0813 6.81539 55.0068 6.94751 54.9178 6.96203C54.8287 6.97654 54.6379 6.83897 54.6397 7.00948C54.6441 7.08179 54.6751 7.14993 54.7268 7.20081C54.7784 7.2517 54.8471 7.28175 54.9196 7.2852C55.078 7.30877 55.2391 7.30877 55.3976 7.2852C55.712 7.23259 55.9428 7.45208 56.2227 7.50649C56.2582 7.51735 56.2887 7.54047 56.3086 7.57172C56.3286 7.60296 56.3368 7.64029 56.3317 7.677C56.3317 7.76226 56.3008 7.86527 56.2227 7.87253C56.1646 7.87497 56.0859 7.88081 56.0291 7.89285C56 7.89768 55.9784 7.92181 55.9541 7.93858C55.9299 7.95534 55.929 7.98046 55.9143 8.00595C55.8995 8.03144 55.8479 7.97661 55.8454 8.00595C55.843 8.03529 55.8471 8.06481 55.8574 8.09239C55.864 8.11724 55.8761 8.14028 55.8928 8.1598C55.9096 8.17931 55.9305 8.19479 55.9541 8.20508C55.9777 8.21538 56.0034 8.22021 56.0291 8.21923C56.0548 8.21825 56.08 8.21147 56.1027 8.19941C56.419 8.09602 56.697 8.36629 57.0242 8.29373C57.115 8.27378 57.2422 8.41889 57.3531 8.47512C57.464 8.53136 57.4876 8.63475 57.4294 8.76535C57.2786 9.12813 57.3222 9.18799 57.7093 9.19525C58.0162 9.18829 58.3171 9.28055 58.5671 9.45827C58.6057 9.49469 58.6398 9.53548 58.6689 9.5798C58.6507 9.76119 58.5034 9.80331 58.4307 9.87949C58.3979 9.90798 58.3417 9.82568 58.3259 9.86612C58.31 9.90656 58.3043 9.95022 58.3091 9.99337C58.3213 10.0354 58.3469 10.0722 58.382 10.0984C58.4171 10.1246 58.4597 10.1386 58.5035 10.1385C58.5325 10.1357 58.5617 10.1357 58.5908 10.1385C58.7925 10.2056 58.9324 9.94258 59.116 10.0224C59.265 10.0859 59.2977 10.3253 59.5176 10.3199C59.5617 10.3201 59.6047 10.333 59.6415 10.3572C59.6783 10.3813 59.7072 10.4156 59.7248 10.4559C59.7957 10.592 59.8147 11.084 59.6889 10.8861C59.5631 11.084 59.2741 10.6028 59.2559 10.7987C59.2396 10.962 59.3886 10.9983 59.5304 11.0073C59.8938 11.0309 60.2137 11.2359 60.5863 11.2196C60.688 11.2297 60.7855 11.2652 60.8698 11.323C60.9012 11.3403 60.9261 11.3674 60.9405 11.4002C60.955 11.4329 60.9582 11.4696 60.9498 11.5044C60.9423 11.5325 60.9701 11.623 60.9471 11.641C60.9242 11.659 60.9763 11.6404 60.9471 11.641C60.9035 11.641 60.7391 11.641 60.6955 11.641C60.5863 11.7157 60.4438 11.641 60.4438 11.641C60.4438 11.8926 60.5208 11.9197 60.6263 11.9742C60.8205 12.0721 61.0381 12.1148 61.2551 12.0975C61.4368 12.0866 61.6186 11.9869 61.8003 12.1302C61.9931 12.2848 62.1334 12.4952 62.202 12.7324C62.2147 12.7741 62.2147 12.8194 62.2292 12.8612C62.3237 13.1242 62.3946 13.175 62.6745 13.1151C62.75 13.0882 62.8322 13.087 62.9085 13.1116C62.9847 13.1362 63.0507 13.1853 63.0961 13.2512C63.1779 13.3673 63.2597 13.5454 63.0961 13.5853C63.0252 13.6034 63.0257 13.6305 62.9602 13.6541C62.8167 13.7067 62.64 13.7155 62.7708 13.7953C62.8937 13.8844 63.0334 13.9474 63.1816 13.9804C63.3298 14.0135 63.4831 14.0159 63.6323 13.9876C63.7062 13.9556 63.7895 13.9528 63.8654 13.9797C63.9413 14.0067 64.0041 14.0613 64.0412 14.1327C64.0412 14.2742 64.0395 14.3093 63.9668 14.409C63.8941 14.5088 63.8285 14.637 63.9539 14.6533C63.9834 14.7186 64.034 14.772 64.0977 14.805C64.1614 14.8379 64.2343 14.8484 64.3047 14.8347C64.3079 14.8849 64.3215 14.9339 64.3446 14.9785C64.3678 15.0232 64.4 15.0625 64.4392 15.0941C64.6209 15.2537 64.5664 15.3898 64.4028 15.5186L64.2593 15.6691Z" fill="#210401"/>
<path d="M68.2155 18.9672C67.9892 18.825 67.7821 18.6543 67.5994 18.4594C67.6321 18.4358 67.6648 18.3959 67.7011 18.3904C67.9738 18.3596 67.9774 18.3596 67.8829 18.1183C67.8227 18.0064 67.7886 17.8824 67.7829 17.7556C67.9974 17.7936 68.2289 17.7733 68.496 17.6808C68.6596 17.6228 68.8539 17.771 68.9993 17.9325C69.1011 18.0467 69.1133 18.3179 68.9642 18.4249C68.9993 18.4357 68.8296 18.4679 68.8804 18.564C68.9048 18.6175 68.9468 18.661 68.9993 18.6874C69.0519 18.7138 69.0941 18.7438 69.1517 18.7314C69.5151 18.6099 69.7857 18.9098 70.0765 19.0023C70.1282 19.0282 70.23 19.1398 70.2575 19.1907C70.3375 19.3068 70.2401 19.379 70.0765 19.3953C69.813 19.4225 69.8351 19.4545 70.0059 19.6939C70.1767 19.9334 69.882 20.1191 69.7821 20.2878C69.3829 19.9961 69.0029 19.6792 68.6444 19.3391C68.7207 19.2212 68.7714 19.2142 68.8804 19.1907C68.9895 19.1671 69.0805 19.1359 69.0315 19.067C68.9119 18.9017 68.7384 18.783 68.5408 18.7314C68.3554 18.677 68.3281 18.8947 68.2155 18.9672Z" fill="#210401"/>
<path d="M64.2592 15.6682L64.2184 15.4147C64.382 15.2859 64.5991 15.2945 64.4264 15.1349C64.3872 15.1033 64.355 15.0639 64.3319 15.0193C64.3087 14.9746 64.2216 14.7099 64.2184 14.6597C64.6091 14.5781 65.0062 15.0569 65.3824 15.0968C65.4916 15.1216 65.5883 15.1847 65.6549 15.2745C65.7216 15.3643 65.7539 15.475 65.7458 15.5865C65.7222 15.8115 65.8113 15.8205 65.9767 15.8405C66.1359 15.8541 66.2891 15.9077 66.4219 15.9965C66.544 16.0727 66.6568 16.1628 66.7581 16.2649C66.8945 16.4191 66.6655 16.5134 66.6655 16.6513C66.6655 16.7511 66.6655 16.8527 66.6655 16.9542C66.2315 17.1761 65.79 16.7083 65.7282 16.1696C65.7248 16.1292 65.7471 16.2054 65.7282 16.1696C65.6682 16.1696 65.5079 16.1953 65.4766 16.1696C65.4452 16.1439 65.5155 15.9294 65.4766 15.9179C65.4377 15.9064 65.4808 15.9212 65.4405 15.9257C65.2261 15.9457 64.9335 15.7679 64.8244 16.1253C64.609 16.0096 64.4172 15.8546 64.2592 15.6682Z" fill="#210401"/>
<path d="M64.8062 16.1256C64.9152 15.7628 65.2078 15.9442 65.4223 15.9261C65.4626 15.9215 65.5034 15.9252 65.5423 15.9367C65.5812 15.9482 65.6174 15.9673 65.6487 15.993C65.6801 16.0187 65.7059 16.0505 65.7248 16.0863C65.7436 16.1222 65.7551 16.1614 65.7585 16.2018C65.8203 16.7459 66.1747 16.9128 66.6472 16.9545H66.8289C66.8522 16.9864 66.8689 17.0226 66.8781 17.0609C66.8873 17.0993 66.8888 17.1391 66.8826 17.178C66.8763 17.2169 66.8624 17.2543 66.8417 17.2878C66.8209 17.3214 66.7938 17.3505 66.7617 17.3736C66.6777 17.4262 66.6079 17.4984 66.5581 17.584C65.9489 17.1289 65.3641 16.6421 64.8062 16.1256Z" fill="#210401"/>
<path d="M66.554 17.5864C66.6037 17.5008 66.6735 17.4286 66.7575 17.376C66.7896 17.3529 66.8167 17.3238 66.8375 17.2902C66.8582 17.2567 66.8721 17.2193 66.8784 17.1804C66.8846 17.1415 66.8831 17.1017 66.8739 17.0633C66.8647 17.025 66.848 16.9888 66.8247 16.957C66.9692 16.8756 67.1372 16.846 67.3008 16.873C67.4645 16.9001 67.6139 16.9822 67.7244 17.1057C67.7771 17.1583 67.8875 17.1977 67.8547 17.2902C67.8394 17.3232 67.7929 17.3797 67.7623 17.3995C67.7318 17.4194 67.6808 17.3988 67.6444 17.3995C67.616 17.4023 67.5175 17.4315 67.4891 17.4287C67.2256 17.4015 67.4891 17.4287 67.2573 17.7442C67.2374 17.932 67.1083 17.9256 66.9738 17.9256C66.8132 17.8406 66.6706 17.7255 66.554 17.5864Z" fill="#210401"/>
<path d="M66.9741 17.9322C67.1086 17.9322 67.1668 17.8125 67.2576 17.7508L67.4894 17.6797L67.7792 17.7508C67.7849 17.8777 67.9326 18.0711 67.9927 18.183C68.0908 18.4242 68.0173 18.4038 67.7411 18.4346C67.7847 18.4836 67.6284 18.431 67.5957 18.4546C67.3638 18.312 67.1543 18.136 66.9741 17.9322Z" fill="#210401"/>
<path d="M68.2159 18.9667C68.3286 18.8869 68.3632 18.6764 68.5413 18.7236C68.7389 18.7752 68.9124 18.8938 69.032 19.0592C69.081 19.1281 69.052 19.1989 68.9593 19.2188C68.8666 19.2388 68.7212 19.2188 68.6449 19.3313C68.4783 19.2405 68.3323 19.1164 68.2159 18.9667Z" fill="#210401"/>
</g>
<g filter="url(#filter2_di_5698_57760)">
<path d="M58.9723 23.7606C59.005 23.2599 59.0922 23.1438 59.4921 23.0586C59.2885 23.2708 59.2049 23.5719 58.9723 23.7606Z" fill="#210401"/>
<path d="M51.552 6.45703L64.1903 16.7963C64.372 16.9523 64.6701 17.0721 64.7046 17.3006C64.7391 17.5292 64.452 17.6979 64.3011 17.8829C62.2547 20.3716 60.2059 22.8609 58.1547 25.3508C58.1001 25.4179 58.0547 25.4922 58.0056 25.563L57.8348 25.6102C57.6676 25.5049 57.9475 25.4415 57.8584 25.3435C58.0129 25.309 58.0238 25.1621 58.0874 25.0551C58.2837 24.7304 58.3473 24.3477 58.5163 24.0103C58.7217 24.0248 58.9271 24.0393 58.9725 23.76C59.2051 23.5786 59.2887 23.2702 59.4923 23.058C59.6592 22.9681 59.7882 22.8213 59.8558 22.6444C59.8927 22.5268 59.9547 22.4186 60.0376 22.3271C60.1204 22.2357 60.222 22.1633 60.3356 22.1147C60.399 22.0958 60.457 22.0618 60.5044 22.0157C60.5519 21.9696 60.5875 21.9127 60.6082 21.8499C60.679 21.5452 60.9135 21.3692 61.0989 21.1479C61.5405 20.6201 61.9658 20.0777 62.3947 19.5408C62.6709 19.1925 63.0617 18.9368 63.2343 18.505C63.2471 18.4783 63.269 18.4571 63.2961 18.4452C63.616 18.2892 63.7741 17.9935 63.9449 17.7069C64.1376 17.384 64.0758 17.092 63.7123 16.9505C63.4487 16.8312 63.2138 16.6567 63.0235 16.439C62.8233 16.2307 62.5981 16.0479 62.3529 15.8948C62.1094 15.7658 61.8967 15.5857 61.7295 15.367C61.59 15.1821 61.4113 15.0304 61.2061 14.9226C60.6609 14.6178 60.2229 14.1644 59.7649 13.758C59.2469 13.2973 58.7072 12.8601 58.1583 12.4484C57.5586 11.9985 56.9915 11.507 56.4154 11.0317C55.6375 10.3932 54.8561 9.76198 54.0855 9.10716C53.9201 8.96749 53.7602 8.81875 53.5912 8.68452C53.0368 8.24736 52.4498 7.85193 51.9555 7.34404C51.8016 7.18834 51.6049 7.08167 51.3903 7.03748C51.2358 6.98125 51.134 7.16446 50.985 7.13181C51.1613 6.89963 51.3012 6.63117 51.552 6.45703Z" fill="#210401"/>
<path d="M50.9777 7.13052C51.1267 7.16317 51.2285 6.97996 51.383 7.03619C51.4121 7.21451 51.3814 7.39742 51.2956 7.5565C51.2098 7.71559 51.0738 7.84195 50.9086 7.91594C50.7269 8.01208 50.5706 8.16445 50.636 8.39844C50.6942 8.59979 50.587 8.64332 50.4379 8.70862C50.1999 8.81383 49.9491 8.94443 49.92 9.2401C49.8963 9.4886 49.8291 9.62102 49.5565 9.67907C49.2839 9.73711 49.193 9.96748 49.313 10.2232C49.3893 10.3919 49.313 10.4645 49.2003 10.5443C49.1116 10.5964 49.0074 10.6157 48.9059 10.5987C48.6678 10.5987 48.5533 10.7801 48.417 10.9216C48.2807 11.0631 48.3934 11.1774 48.4533 11.3098C48.5333 11.4912 48.3934 11.5474 48.2534 11.5528C48.0924 11.5557 47.9366 11.6101 47.809 11.7081C47.6813 11.8061 47.5887 11.9424 47.5446 12.097C47.4513 12.3273 47.2887 12.5231 47.0794 12.6575C46.8649 12.7954 46.6832 12.9423 46.6577 13.2216C46.6452 13.2736 46.6203 13.3219 46.5852 13.3623C46.5501 13.4027 46.5058 13.4341 46.456 13.4538C46.0362 13.7005 45.8035 14.0941 45.6127 14.5222H44.8549V14.4388C45.0588 14.2848 45.23 14.0918 45.3583 13.871C45.9217 13.1455 46.5142 12.4199 47.1157 11.7288C48.4188 10.216 49.6583 8.64151 50.9777 7.13052Z" fill="#210401"/>
<path d="M45.5966 14.5224C45.7874 14.0943 46.02 13.7007 46.4398 13.454C46.4871 13.4339 46.5291 13.4031 46.5625 13.364C46.5959 13.325 46.6199 13.2789 46.6325 13.2291C46.6579 12.9498 46.8397 12.8028 47.0541 12.665C47.2635 12.5306 47.426 12.3348 47.5194 12.1045C47.5634 11.9499 47.6561 11.8135 47.7837 11.7155C47.9113 11.6176 48.0672 11.5631 48.2282 11.5603C48.3681 11.5603 48.5081 11.495 48.4281 11.3172C48.3681 11.1848 48.2591 11.0687 48.3917 10.9291C48.5244 10.7894 48.6425 10.6026 48.8806 10.6062C48.9821 10.6231 49.0863 10.6039 49.175 10.5518C49.2823 10.472 49.3568 10.3994 49.2877 10.2307C49.1678 9.96588 49.2514 9.73733 49.5313 9.68654C49.8111 9.63575 49.8747 9.50514 49.8947 9.24757C49.9238 8.9519 50.1746 8.8213 50.4127 8.71609C50.5617 8.65079 50.669 8.60726 50.6108 8.40591C50.5454 8.17192 50.7017 8.01955 50.8834 7.92341C51.0495 7.85031 51.1867 7.72433 51.2735 7.56516C51.3604 7.406 51.3973 7.04027 51.3686 6.86133C51.5833 6.90551 51.9697 7.20892 52.1236 7.36461C52.6252 7.87251 53.0882 8.18929 53.6334 8.62282C53.8024 8.75705 53.9713 8.73479 54.1367 8.87446C54.9073 9.52384 55.6393 10.2491 56.4171 10.8876C57.2009 11.2406 57.5789 11.9476 58.1786 12.3974C58.7238 12.8092 59.4083 13.1949 59.9245 13.6556C60.3824 14.062 60.632 14.6091 61.1827 14.9139C61.3878 15.0216 61.5464 14.9806 61.6859 15.1655C61.8532 15.3842 62.213 15.7914 62.4565 15.9204C62.7017 16.0735 62.9956 16.2154 63.1958 16.4237C63.3861 16.6414 63.6871 16.8076 63.9507 16.927C64.3142 17.0685 64.159 17.6107 63.9664 17.9335C63.7955 18.2201 63.5889 18.2954 63.269 18.4514C63.4631 18.6885 63.269 18.6885 63.2073 18.5112C63.2114 18.9401 62.7328 19.3468 62.4565 19.695C62.0276 20.2392 61.6399 20.677 61.1983 21.2049C61.0166 21.4262 60.7503 21.6551 60.6794 21.9598C60.6587 22.0226 60.5248 21.9758 60.4774 22.0219C60.4299 22.068 60.372 22.102 60.3085 22.1209C60.195 22.1694 60.1761 22.4631 59.9245 22.4631C59.9245 22.7147 59.8984 22.5499 59.8614 22.6676C59.7939 22.8445 59.6322 22.9743 59.4652 23.0642C59.4816 22.9154 59.3798 22.8392 59.2944 22.7377C59.2507 22.6884 59.2207 22.6287 59.2073 22.5644C59.1939 22.5 59.1491 22.5256 59.1695 22.4631C59.1899 22.4006 59.1207 22.2556 59.1695 22.2115C59.2183 22.1673 59.4009 22.036 59.4652 22.0219C59.5325 22.002 59.6415 22.0655 59.7106 22.0492C59.7796 22.0329 59.8741 22.0193 59.8614 21.9105C59.8542 21.8747 59.8356 21.8421 59.8085 21.8177C59.7813 21.7932 59.747 21.778 59.7106 21.7745C59.6542 21.7618 59.5942 21.7745 59.5379 21.7581C59.2071 21.7092 58.9442 21.4389 59.1695 21.2049C59.3604 21.0235 59.4434 20.9292 59.3071 20.7514C59.1108 20.4938 59.1999 20.2061 59.5179 20.1535C59.5784 20.1495 59.6123 19.9427 59.6728 19.9467C59.7909 19.9467 59.9904 20.1855 60.0359 20.0621C60.0813 19.9388 59.9396 19.8372 59.8541 19.7501C59.7687 19.6631 59.6179 19.6758 59.5052 19.7683C59.3925 19.8608 59.3016 19.8717 59.2289 19.7846C59.1145 19.6449 58.9345 19.5143 58.9836 19.3039C59.0272 19.1225 59.026 19.0554 59.1695 19.0463C59.1984 19.0473 59.4048 19.138 59.4325 19.1298C59.4325 19.0463 59.5179 19.0989 59.5179 19.0463C59.5176 19.0175 59.5084 18.9894 59.4914 18.9661C59.4745 18.9427 59.4507 18.9251 59.4234 18.9157C59.3525 18.8831 59.2835 18.9157 59.2126 18.9266C59.0415 18.9426 58.8696 18.9071 58.719 18.8247C58.5683 18.7422 58.4459 18.6166 58.3675 18.4641C58.272 18.221 58.1251 18.0013 57.9368 17.8201C57.8332 17.7186 57.715 17.6152 57.7387 17.4573C57.7805 17.1671 57.6351 17.0347 57.3752 16.9785C57.2341 16.9463 57.1015 16.8845 56.9863 16.7971C56.9208 16.7389 56.8443 16.6946 56.7612 16.6668C56.6781 16.6391 56.5902 16.6285 56.5028 16.6356C55.6101 15.9021 54.573 15.3638 53.4587 15.0557C53.4586 15.0192 53.4506 14.9832 53.4352 14.95C53.4199 14.9169 53.3976 14.8874 53.3698 14.8637C53.342 14.8399 53.3095 14.8224 53.2743 14.8124C53.2392 14.8023 53.2022 14.7999 53.1661 14.8054C52.9921 14.8062 52.8191 14.7792 52.6536 14.7256C52.268 14.6062 51.8668 14.5451 51.4632 14.5442L45.5966 14.5224Z" fill="#210401"/>
<path d="M56.517 16.6233C56.6043 16.6161 56.6922 16.6267 56.7753 16.6545C56.8584 16.6822 56.935 16.7265 57.0004 16.7847C57.1156 16.8721 57.2482 16.934 57.3893 16.9661C57.651 17.0223 57.7964 17.1475 57.7528 17.445C57.7292 17.6082 57.8473 17.7116 57.9509 17.8078C58.1392 17.989 58.2862 18.2086 58.3816 18.4517C58.4601 18.6042 58.5825 18.7299 58.7331 18.8123C58.8838 18.8947 59.0557 18.9303 59.2267 18.9142C59.2976 18.9034 59.3667 18.8707 59.4375 18.9034C59.4649 18.9127 59.4886 18.9303 59.5056 18.9537C59.5225 18.9771 59.5317 19.0051 59.5321 19.034C59.5321 19.0866 59.4903 19.1065 59.4466 19.1174C59.4189 19.1256 59.3901 19.1293 59.3612 19.1283C59.2176 19.1283 59.0414 19.112 58.9977 19.2915C58.9487 19.5019 59.1286 19.6326 59.2431 19.7722C59.3158 19.8593 59.4248 19.8266 59.5193 19.7559C59.6138 19.6852 59.752 19.6253 59.8683 19.7378C59.9846 19.8502 60.11 19.8938 60.05 20.0498C59.99 20.2057 59.8683 20.1731 59.7501 20.1731C59.6896 20.1692 59.6289 20.1692 59.5684 20.1731C59.2504 20.2257 59.125 20.4815 59.3212 20.739C59.4575 20.9204 59.503 21.0129 59.3121 21.2016C59.0868 21.4283 59.2213 21.6895 59.552 21.7458C59.6084 21.7548 59.6684 21.7458 59.7247 21.7621C59.7611 21.7656 59.7954 21.7808 59.8226 21.8053C59.8498 21.8298 59.8683 21.8623 59.8755 21.8981C59.8883 22.0052 59.8156 22.0559 59.7247 22.0795C59.6338 22.1031 59.5775 22.0795 59.5102 22.1067C59.4459 22.1209 59.3864 22.1515 59.3377 22.1957C59.2889 22.2398 59.2525 22.2959 59.2321 22.3584C59.2117 22.4209 59.208 22.4876 59.2215 22.552C59.2349 22.6163 59.2649 22.6761 59.3085 22.7253C59.3939 22.8269 59.6888 22.9667 59.4371 23.2183C59.0373 23.3036 59.1855 23.7216 58.9338 23.9733C58.8884 24.2526 58.7088 24.0186 58.5034 24.0041C58.7141 23.2264 58.8114 22.4224 58.7924 21.617C58.6888 19.7232 58.0654 18.0599 56.6242 16.7629C56.5847 16.7193 56.5489 16.6726 56.517 16.6233Z" fill="#210401"/>
<path d="M45.6123 14.5215H51.477C51.8807 14.5224 52.2819 14.5835 52.6674 14.7029C52.8329 14.7565 53.0059 14.7835 53.1799 14.7827C53.2161 14.7772 53.253 14.7796 53.2882 14.7896C53.3234 14.7997 53.3559 14.8172 53.3837 14.841C53.4115 14.8647 53.4338 14.8942 53.4491 14.9273C53.4644 14.9605 53.4724 14.9965 53.4725 15.033C53.0273 15.0022 52.5966 14.8752 52.1477 14.8516C50.9173 14.7664 49.6833 14.8045 48.4529 14.7809C47.2225 14.7573 46.0448 14.7609 44.8417 14.7519V14.6067C44.8455 14.5795 44.8522 14.5528 44.8617 14.5269L45.6123 14.5215Z" fill="#210401"/>
</g>
<g filter="url(#filter3_di_5698_57760)">
<path d="M54.7296 44.3063L53.8664 44.5467C53.3154 44.6871 52.7575 44.7996 52.195 44.8837L51.4875 44.9565L51.3244 44.9675C51.1401 44.9526 50.9545 44.9667 50.7746 45.0094C50.7516 44.9949 50.7244 44.9883 50.6973 44.9906C50.6702 44.9929 50.6445 45.004 50.6243 45.0221L47.1825 45.044C46.7748 45.0194 46.3659 45.0194 45.9582 45.044C44.3772 45.0367 42.7956 45.0294 41.2133 45.0221C40.297 45.0221 39.3971 45.0221 38.4881 45.0221C37.579 45.0221 37.5864 45.0221 37.5882 44.1387C37.5882 39.1161 37.5882 34.0936 37.5882 29.0711C37.5882 24.8342 37.5882 20.5974 37.5882 16.3605C37.5882 16.2148 37.6047 16.0709 37.612 15.9252C37.6817 15.9252 37.7476 15.9161 37.7696 15.8341L37.8503 15.8086L50.2321 15.8377C50.4365 15.8182 50.6427 15.8392 50.8387 15.8997C50.8728 15.9381 50.9153 15.9683 50.963 15.9879C51.0107 16.0075 51.0622 16.0159 51.1137 16.0126C51.5937 16.0433 52.0679 16.1345 52.5249 16.284C53.8117 16.5636 54.9873 17.2136 55.9048 18.153C56.8223 19.0925 57.4411 20.2796 57.684 21.5664C57.8304 22.2793 57.8693 23.0098 57.7994 23.734C57.7778 24.1549 57.6945 24.5703 57.552 24.9672C57.4127 25.3005 57.3504 25.663 57.1855 25.9872C57.1526 26.0359 57.1307 26.091 57.1212 26.1489C57.1117 26.2067 57.1149 26.2659 57.1305 26.3224C57.0297 26.3461 57.0223 26.4171 57.0407 26.5046C56.9532 26.538 56.8796 26.5996 56.8314 26.6795C56.7832 26.7593 56.7634 26.8529 56.7749 26.9454C56.7108 26.9454 56.6815 26.9727 56.6833 27.0364C56.4854 27.0364 56.4762 27.1548 56.5 27.3024C56.4722 27.3127 56.4484 27.3314 56.432 27.356C56.4155 27.3805 56.4073 27.4095 56.4084 27.439C56.084 27.9363 55.5983 28.2532 55.1255 28.5938C54.8579 28.7887 54.5463 28.9235 54.3282 29.1822C54.3268 29.2405 54.3437 29.2978 54.3765 29.3461C54.4094 29.3944 54.4566 29.4313 54.5115 29.4518C54.7202 29.557 54.9343 29.6512 55.153 29.7341C55.7044 29.9242 56.2354 30.1682 56.7383 30.4627C57.742 31.0679 58.5645 31.9289 59.1208 32.9564C59.4986 33.6946 59.7283 34.4989 59.7971 35.3243C59.9346 36.497 59.8551 37.6847 59.5625 38.829C59.3432 39.6882 58.9741 40.5026 58.472 41.2352C58.115 41.7146 57.7164 42.162 57.2808 42.5722C57.1726 42.6796 57.1278 42.8471 56.874 43.0998C56.1127 43.6052 56.2432 43.286 55.9795 43.6195C55.9795 43.6195 55.9795 43.6469 55.9795 43.6614C55.9437 43.6504 55.9051 43.6531 55.8712 43.669C55.8373 43.6848 55.8106 43.7126 55.7963 43.7471C55.7755 43.7519 55.7573 43.7643 55.7454 43.7819C55.7335 43.7994 55.7288 43.8208 55.7321 43.8418H55.7083C55.6533 43.8563 55.5745 43.8308 55.5617 43.9219C55.5607 43.9259 55.5589 43.9295 55.5563 43.9327C55.5537 43.9358 55.5505 43.9384 55.5468 43.9401C55.5431 43.9419 55.5391 43.9428 55.535 43.9428C55.5309 43.9428 55.5269 43.9419 55.5232 43.9401C55.4151 43.9237 55.3124 43.9219 55.2739 44.0549L54.9074 44.2607C54.8377 44.2698 54.7644 44.2717 54.7241 44.3463L54.7296 44.3063ZM49.7318 26.3333V26.3169C49.7535 26.3117 49.7734 26.3008 49.7895 26.2855C49.8056 26.2701 49.8173 26.2508 49.8234 26.2295C49.9606 26.1406 50.0688 26.0141 50.135 25.8652C50.3634 25.4748 50.5116 25.0432 50.571 24.5955C50.6305 24.1477 50.6 23.6927 50.4814 23.2568C50.2798 22.408 49.7226 21.8943 48.8649 21.6575C48.3705 21.5355 47.8641 21.4677 47.3548 21.4553C46.6565 21.4171 45.9546 21.3442 45.2545 21.4298L45.084 21.5245C44.7871 21.5573 44.8164 21.7977 44.8091 21.9872C44.7908 22.3934 44.8091 22.8014 44.7981 23.2076C44.7871 24.1348 44.8733 25.0656 44.7431 25.9909C44.7321 26.0692 44.7908 26.122 44.8494 26.173L44.7999 26.2313C44.1045 26.1759 43.4046 26.2432 42.7326 26.4299C42.7125 26.3916 42.6795 26.337 42.641 26.357C42.3459 26.5064 42.0124 26.5628 41.7246 26.7614C41.4603 26.9671 41.2183 27.1997 41.0026 27.4554C40.4906 27.986 40.1619 28.6648 40.0642 29.3935C39.9639 30.1118 40.0608 30.8438 40.3446 31.5119C40.5967 32.1845 41.0761 32.7492 41.7008 33.1094C42.1682 33.3753 42.6007 33.7178 43.1578 33.7724C43.5334 33.8314 43.9123 33.8667 44.2923 33.8781C44.5654 33.8781 44.6588 33.9582 44.6588 34.2005C44.7156 34.8607 44.7303 35.5238 44.7028 36.1859C44.6332 37.0293 44.6662 37.869 44.6662 38.7106C44.6662 39.4246 44.8329 39.5284 45.5587 39.5576C46.2844 39.5867 46.9882 39.4865 47.703 39.4811C48.2729 39.4811 48.8448 39.4592 49.4147 39.4701C49.8766 39.4792 50.2614 39.288 50.6463 39.0767C50.738 39.0275 50.7343 38.9364 50.7141 38.8453C50.9065 38.8104 51.0828 38.7161 51.2181 38.5758C51.2552 38.5666 51.29 38.5496 51.32 38.5261C51.35 38.5025 51.3746 38.4729 51.3922 38.4391L51.4674 38.3754C51.5163 38.3511 51.5585 38.3154 51.5905 38.2713C51.6224 38.2272 51.643 38.176 51.6506 38.1222V38.1313C51.6856 38.1211 51.7182 38.1038 51.7462 38.0807C51.7743 38.0575 51.7972 38.0288 51.8138 37.9965C52.097 37.5234 52.2937 37.0041 52.3947 36.4628C52.6531 34.8708 51.8852 33.3516 50.0873 32.9546C49.3021 32.8003 48.5035 32.7228 47.703 32.7232C46.4311 32.6923 45.1555 32.7232 43.8836 32.6923C43.1729 32.6782 42.4952 32.3911 41.9929 31.8912C41.4906 31.3913 41.2026 30.7174 41.1895 30.011C41.1816 29.3531 41.369 28.7075 41.7283 28.1548C41.8005 28.112 41.858 28.0485 41.8933 27.9727L42.0582 27.8033C42.4573 27.4939 42.905 27.2521 43.3833 27.0874C43.9465 27.0231 44.5136 26.9988 45.0804 27.0146C45.8134 27.0146 46.5667 27.0146 47.3089 26.9891C47.7378 26.969 48.1795 26.9891 48.5918 26.8379L48.755 26.8179C48.7783 26.8225 48.8025 26.8204 48.8246 26.8117C48.8467 26.8029 48.8658 26.788 48.8796 26.7687C49.1396 26.7464 49.3802 26.6226 49.5485 26.4244L49.6457 26.3916C49.6988 26.3953 49.719 26.3716 49.7318 26.3333ZM44.996 30.7797V30.7961C45.4817 30.4154 45.4176 29.8853 45.2875 29.4081C45.1445 28.8762 44.723 28.5774 44.1677 28.5064C43.8772 28.4645 43.6048 28.3779 43.3413 28.5064L43.1709 28.5199C43.099 28.5055 43.0737 28.6112 43.0052 28.6373C42.9368 28.6634 42.8772 28.7084 42.8334 28.7669C42.5925 28.9672 42.4191 29.2361 42.3365 29.5373C42.254 29.8385 42.2662 30.1577 42.3716 30.4518C42.4919 30.8112 42.7437 31.1125 43.077 31.2961C43.4104 31.4796 43.801 31.532 44.1713 31.4427C44.2147 31.4343 44.254 31.4119 44.2832 31.3789C44.3124 31.346 44.4369 31.3399 44.4397 31.2961C44.5644 31.2214 44.6093 31.1622 44.7101 31.0474C44.778 31.0256 44.8678 31.0474 44.8934 30.9454C44.9539 30.9072 45.0235 30.8707 44.996 30.7797Z" fill="#C97119"/>
</g>
<g filter="url(#filter4_di_5698_57760)">
<path d="M2.52792 44.6719V15.581H14.1756C16.3158 15.581 18.1008 15.8982 19.5308 16.5327C20.9607 17.1671 22.0355 18.0478 22.7552 19.1747C23.4749 20.2921 23.8347 21.58 23.8347 23.0384C23.8347 24.1747 23.6075 25.1738 23.1529 26.0355C22.6984 26.8878 22.0734 27.5885 21.2779 28.1378C20.4919 28.6776 19.5923 29.0611 18.5791 29.2884V29.5724C19.687 29.6198 20.7239 29.9323 21.6899 30.5099C22.6652 31.0876 23.456 31.8973 24.062 32.9389C24.6681 33.9711 24.9711 35.2022 24.9711 36.6321C24.9711 38.1757 24.5876 39.5535 23.8205 40.7656C23.063 41.9683 21.9408 42.92 20.4541 43.6207C18.9673 44.3215 17.1349 44.6719 14.9569 44.6719H2.52792ZM8.67849 39.6435H13.6927C15.4067 39.6435 16.6567 39.3168 17.4427 38.6634C18.2287 38.0005 18.6217 37.1198 18.6217 36.0213C18.6217 35.2164 18.4275 34.5062 18.0393 33.8906C17.651 33.2751 17.0971 32.7921 16.3774 32.4418C15.6671 32.0914 14.8196 31.9162 13.8347 31.9162H8.67849V39.6435ZM8.67849 27.7543H13.2381C14.081 27.7543 14.8291 27.6075 15.4825 27.3139C16.1453 27.0109 16.6662 26.5848 17.045 26.0355C17.4332 25.4863 17.6274 24.8281 17.6274 24.0611C17.6274 23.0099 17.2533 22.1624 16.5052 21.5185C15.7666 20.8745 14.7154 20.5526 13.3518 20.5526H8.67849V27.7543Z" fill="#210401"/>
</g>
<g filter="url(#filter5_di_5698_57760)">
<path d="M28.0282 45.045H32.4831V9.88607H44.7341L47.3328 6.06445H2.78369V9.88607H20.6033C25.9492 9.88607 28.0282 14.472 28.0282 17.1471V45.045Z" fill="#210401"/>
</g>
<defs>
<filter id="filter0_di_5698_57760" x="47.3844" y="0.820312" width="23.6157" height="30.4785" filterUnits="userSpaceOnUse" color-interpolation-filters="sRGB">
<feFlood flood-opacity="0" result="BackgroundImageFix"/>
<feColorMatrix in="SourceAlpha" type="matrix" values="0 0 0 0 0 0 0 0 0 0 0 0 0 0 0 0 0 0 127 0" result="hardAlpha"/>
<feOffset dx="-0.2" dy="0.2"/>
<feGaussianBlur stdDeviation="0.1"/>
<feComposite in2="hardAlpha" operator="out"/>
<feColorMatrix type="matrix" values="0 0 0 0 1 0 0 0 0 1 0 0 0 0 1 0 0 0 1 0"/>
<feBlend mode="normal" in2="BackgroundImageFix" result="effect1_dropShadow_5698_57760"/>
<feBlend mode="normal" in="SourceGraphic" in2="effect1_dropShadow_5698_57760" result="shape"/>
<feColorMatrix in="SourceAlpha" type="matrix" values="0 0 0 0 0 0 0 0 0 0 0 0 0 0 0 0 0 0 127 0" result="hardAlpha"/>
<feOffset dx="-0.5" dy="0.5"/>
<feGaussianBlur stdDeviation="0.5"/>
<feComposite in2="hardAlpha" operator="arithmetic" k2="-1" k3="1"/>
<feColorMatrix type="matrix" values="0 0 0 0 0 0 0 0 0 0 0 0 0 0 0 0 0 0 1 0"/>
<feBlend mode="normal" in2="shape" result="effect2_innerShadow_5698_57760"/>
</filter>
<filter id="filter1_di_5698_57760" x="68.9224" y="19.7539" width="2.07776" height="11.5449" filterUnits="userSpaceOnUse" color-interpolation-filters="sRGB">
<feFlood flood-opacity="0" result="BackgroundImageFix"/>
<feColorMatrix in="SourceAlpha" type="matrix" values="0 0 0 0 0 0 0 0 0 0 0 0 0 0 0 0 0 0 127 0" result="hardAlpha"/>
<feOffset dx="-0.2" dy="0.2"/>
<feGaussianBlur stdDeviation="0.1"/>
<feComposite in2="hardAlpha" operator="out"/>
<feColorMatrix type="matrix" values="0 0 0 0 1 0 0 0 0 1 0 0 0 0 1 0 0 0 1 0"/>
<feBlend mode="normal" in2="BackgroundImageFix" result="effect1_dropShadow_5698_57760"/>
<feBlend mode="normal" in="SourceGraphic" in2="effect1_dropShadow_5698_57760" result="shape"/>
<feColorMatrix in="SourceAlpha" type="matrix" values="0 0 0 0 0 0 0 0 0 0 0 0 0 0 0 0 0 0 127 0" result="hardAlpha"/>
<feOffset dx="-0.5" dy="0.5"/>
<feGaussianBlur stdDeviation="0.5"/>
<feComposite in2="hardAlpha" operator="arithmetic" k2="-1" k3="1"/>
<feColorMatrix type="matrix" values="0 0 0 0 0 0 0 0 0 0 0 0 0 0 0 0 0 0 1 0"/>
<feBlend mode="normal" in2="shape" result="effect2_innerShadow_5698_57760"/>
</filter>
<filter id="filter2_di_5698_57760" x="44.3417" y="6.45703" width="20.3657" height="19.6523" filterUnits="userSpaceOnUse" color-interpolation-filters="sRGB">
<feFlood flood-opacity="0" result="BackgroundImageFix"/>
<feColorMatrix in="SourceAlpha" type="matrix" values="0 0 0 0 0 0 0 0 0 0 0 0 0 0 0 0 0 0 127 0" result="hardAlpha"/>
<feOffset dx="-0.2" dy="0.2"/>
<feGaussianBlur stdDeviation="0.1"/>
<feComposite in2="hardAlpha" operator="out"/>
<feColorMatrix type="matrix" values="0 0 0 0 1 0 0 0 0 1 0 0 0 0 1 0 0 0 1 0"/>
<feBlend mode="normal" in2="BackgroundImageFix" result="effect1_dropShadow_5698_57760"/>
<feBlend mode="normal" in="SourceGraphic" in2="effect1_dropShadow_5698_57760" result="shape"/>
<feColorMatrix in="SourceAlpha" type="matrix" values="0 0 0 0 0 0 0 0 0 0 0 0 0 0 0 0 0 0 127 0" result="hardAlpha"/>
<feOffset dx="-0.5" dy="0.5"/>
<feGaussianBlur stdDeviation="0.5"/>
<feComposite in2="hardAlpha" operator="arithmetic" k2="-1" k3="1"/>
<feColorMatrix type="matrix" values="0 0 0 0 0 0 0 0 0 0 0 0 0 0 0 0 0 0 1 0"/>
<feBlend mode="normal" in2="shape" result="effect2_innerShadow_5698_57760"/>
</filter>
<filter id="filter3_di_5698_57760" x="37.088" y="15.8086" width="22.7745" height="29.7363" filterUnits="userSpaceOnUse" color-interpolation-filters="sRGB">
<feFlood flood-opacity="0" result="BackgroundImageFix"/>
<feColorMatrix in="SourceAlpha" type="matrix" values="0 0 0 0 0 0 0 0 0 0 0 0 0 0 0 0 0 0 127 0" result="hardAlpha"/>
<feOffset dx="-0.2" dy="0.2"/>
<feGaussianBlur stdDeviation="0.1"/>
<feComposite in2="hardAlpha" operator="out"/>
<feColorMatrix type="matrix" values="0 0 0 0 1 0 0 0 0 1 0 0 0 0 1 0 0 0 1 0"/>
<feBlend mode="normal" in2="BackgroundImageFix" result="effect1_dropShadow_5698_57760"/>
<feBlend mode="normal" in="SourceGraphic" in2="effect1_dropShadow_5698_57760" result="shape"/>
<feColorMatrix in="SourceAlpha" type="matrix" values="0 0 0 0 0 0 0 0 0 0 0 0 0 0 0 0 0 0 127 0" result="hardAlpha"/>
<feOffset dx="-0.5" dy="0.5"/>
<feGaussianBlur stdDeviation="0.5"/>
<feComposite in2="hardAlpha" operator="arithmetic" k2="-1" k3="1"/>
<feColorMatrix type="matrix" values="0 0 0 0 0 0 0 0 0 0 0 0 0 0 0 0 0 0 1 0"/>
<feBlend mode="normal" in2="shape" result="effect2_innerShadow_5698_57760"/>
</filter>
<filter id="filter4_di_5698_57760" x="2.02795" y="15.5801" width="22.9431" height="29.5918" filterUnits="userSpaceOnUse" color-interpolation-filters="sRGB">
<feFlood flood-opacity="0" result="BackgroundImageFix"/>
<feColorMatrix in="SourceAlpha" type="matrix" values="0 0 0 0 0 0 0 0 0 0 0 0 0 0 0 0 0 0 127 0" result="hardAlpha"/>
<feOffset dx="-0.2" dy="0.2"/>
<feGaussianBlur stdDeviation="0.1"/>
<feComposite in2="hardAlpha" operator="out"/>
<feColorMatrix type="matrix" values="0 0 0 0 1 0 0 0 0 1 0 0 0 0 1 0 0 0 1 0"/>
<feBlend mode="normal" in2="BackgroundImageFix" result="effect1_dropShadow_5698_57760"/>
<feBlend mode="normal" in="SourceGraphic" in2="effect1_dropShadow_5698_57760" result="shape"/>
<feColorMatrix in="SourceAlpha" type="matrix" values="0 0 0 0 0 0 0 0 0 0 0 0 0 0 0 0 0 0 127 0" result="hardAlpha"/>
<feOffset dx="-0.5" dy="0.5"/>
<feGaussianBlur stdDeviation="0.5"/>
<feComposite in2="hardAlpha" operator="arithmetic" k2="-1" k3="1"/>
<feColorMatrix type="matrix" values="0 0 0 0 0 0 0 0 0 0 0 0 0 0 0 0 0 0 1 0"/>
<feBlend mode="normal" in2="shape" result="effect2_innerShadow_5698_57760"/>
</filter>
<filter id="filter5_di_5698_57760" x="2.28369" y="6.06445" width="45.0492" height="39.4805" filterUnits="userSpaceOnUse" color-interpolation-filters="sRGB">
<feFlood flood-opacity="0" result="BackgroundImageFix"/>
<feColorMatrix in="SourceAlpha" type="matrix" values="0 0 0 0 0 0 0 0 0 0 0 0 0 0 0 0 0 0 127 0" result="hardAlpha"/>
<feOffset dx="-0.2" dy="0.2"/>
<feGaussianBlur stdDeviation="0.1"/>
<feComposite in2="hardAlpha" operator="out"/>
<feColorMatrix type="matrix" values="0 0 0 0 1 0 0 0 0 1 0 0 0 0 1 0 0 0 1 0"/>
<feBlend mode="normal" in2="BackgroundImageFix" result="effect1_dropShadow_5698_57760"/>
<feBlend mode="normal" in="SourceGraphic" in2="effect1_dropShadow_5698_57760" result="shape"/>
<feColorMatrix in="SourceAlpha" type="matrix" values="0 0 0 0 0 0 0 0 0 0 0 0 0 0 0 0 0 0 127 0" result="hardAlpha"/>
<feOffset dx="-0.5" dy="0.5"/>
<feGaussianBlur stdDeviation="0.5"/>
<feComposite in2="hardAlpha" operator="arithmetic" k2="-1" k3="1"/>
<feColorMatrix type="matrix" values="0 0 0 0 0 0 0 0 0 0 0 0 0 0 0 0 0 0 1 0"/>
<feBlend mode="normal" in2="shape" result="effect2_innerShadow_5698_57760"/>
</filter>
</defs>
</svg>
