<svg width="20" height="20" viewBox="0 0 20 20" fill="none" xmlns="http://www.w3.org/2000/svg">
<g clip-path="url(#clip0_5736_45548)">
<g clip-path="url(#clip1_5736_45548)">
<path d="M17.9443 5.93492C17.957 6.11258 17.957 6.29027 17.957 6.46793C17.957 11.8867 13.8326 18.1304 6.29454 18.1304C3.97219 18.1304 1.81485 17.4577 0.00012207 16.2903C0.330083 16.3283 0.64731 16.341 0.989966 16.341C2.90618 16.341 4.67016 15.6938 6.07879 14.5898C4.27676 14.5517 2.76661 13.3715 2.24629 11.7471C2.50012 11.7852 2.75391 11.8105 3.02043 11.8105C3.38844 11.8105 3.75649 11.7598 4.09911 11.671C2.22094 11.2902 0.812271 9.64051 0.812271 7.64813V7.59738C1.35793 7.90195 1.9925 8.0923 2.66504 8.11766C1.56098 7.3816 0.837661 6.12527 0.837661 4.70395C0.837661 3.94254 1.04067 3.24457 1.39602 2.63543C3.41379 5.12273 6.4468 6.74707 9.84778 6.92477C9.78434 6.6202 9.74625 6.30297 9.74625 5.9857C9.74625 3.7268 11.5737 1.88672 13.8452 1.88672C15.0254 1.88672 16.0914 2.38164 16.8402 3.18113C17.7665 3.00348 18.6548 2.66082 19.4417 2.19129C19.1371 3.14309 18.4899 3.94258 17.6397 4.45016C18.4645 4.36137 19.264 4.13289 20 3.81566C19.4418 4.62781 18.7438 5.35113 17.9443 5.93492Z" fill="#210401"/>
</g>
</g>
<defs>
<clipPath id="clip0_5736_45548">
<rect width="20" height="20" fill="white" transform="translate(0.00012207 0.0078125)"/>
</clipPath>
<clipPath id="clip1_5736_45548">
<path d="M0.00012207 0.0078125H20.0001V20.0078H0.00012207V0.0078125Z" fill="white"/>
</clipPath>
</defs>
</svg>
