<svg width="338" height="448" viewBox="0 0 338 448" fill="none" xmlns="http://www.w3.org/2000/svg">
<path style="mix-blend-mode:multiply" opacity="0.5" d="M276.279 198.184H245.813V280.696H276.279V198.184Z" fill="url(#paint0_linear_3188_11780)"/>
<path d="M276.277 280.697V0.0578918L245.812 0.0578918L245.812 280.697H276.277Z" fill="white"/>
<path style="mix-blend-mode:multiply" opacity="0.5" d="M276.279 208.94H245.813V280.648H276.279V208.94Z" fill="url(#paint1_linear_3188_11780)"/>
<path d="M337.26 447.851V0.0578918L306.794 0.0578918V447.851H337.26Z" fill="white"/>
<path d="M170.568 356.865H0V387.244H169.872C173.761 387.465 177.419 389.162 180.094 391.986C182.769 394.81 184.259 398.548 184.259 402.433C184.259 406.317 182.769 410.055 180.094 412.879C177.419 415.703 173.761 417.4 169.872 417.622H0V448H169.772C181.644 447.727 192.943 442.858 201.279 434.426C209.615 425.993 214.334 414.657 214.438 402.817C214.541 390.977 210.021 379.561 201.833 370.984C193.645 362.408 182.433 357.345 170.568 356.865Z" fill="white"/>
<path d="M242.532 324.605C253.154 321.741 262.382 315.149 268.52 306.042C274.657 296.935 277.29 285.924 275.936 275.036C274.581 264.147 269.33 254.112 261.148 246.775C252.965 239.439 242.402 235.295 231.399 235.106H188.459C177.078 235.106 169.375 232.975 165.349 228.762C163.201 226.196 161.702 223.155 160.976 219.892C160.427 217.674 160.029 215.423 159.783 213.152C159.783 212.012 159.783 210.773 159.485 209.485C159.485 209.485 159.485 209.138 159.485 208.94C159.485 207.552 159.485 206.115 159.485 204.628V206.115C159.186 166.866 146.331 142.402 120.918 132.722C146.331 122.876 159.137 98.478 159.336 59.5265V61.3106C159.336 49.0701 161.373 40.8437 165.349 36.5322C169.325 32.2208 177.078 30.189 188.459 30.189H195.517V0.0585789H173.947C166.893 -0.2983 159.852 0.979133 153.377 3.79069C146.901 6.60225 141.167 10.8715 136.623 16.2636C132.74 21.663 129.799 27.6779 127.926 34.0544C127.23 36.2349 126.584 38.4154 126.037 40.4472C124.48 46.4294 123.416 52.5287 122.856 58.6841C122.126 65.7822 120.386 72.7405 117.688 79.3492C116.215 82.7417 114.556 86.0505 112.718 89.2605C105.8 100.629 96.0829 110.046 84.4886 116.616V148.728C96.2029 155.243 106.03 164.666 113.016 176.084C116.233 181.707 118.8 187.675 120.67 193.874C121.518 196.623 122.198 199.419 122.707 202.25C122.956 203.687 123.155 205.124 123.304 206.611L124.049 212.607C124.049 213.003 124.049 213.4 124.049 213.846C124.574 217.603 125.321 221.326 126.286 224.996C128.268 233.692 131.858 241.943 136.872 249.328C141.394 254.677 147.09 258.916 153.52 261.718C159.949 264.519 166.938 265.808 173.947 265.484H231.002C234.893 265.75 238.533 267.493 241.176 270.352C243.819 273.212 245.263 276.972 245.212 280.86C245.161 284.749 243.619 288.47 240.902 291.26C238.186 294.05 234.501 295.697 230.604 295.862H170.965C149.919 295.862 129.73 287.542 114.825 272.726C99.9191 257.91 91.5123 237.805 91.4465 216.819V219.892C91.4726 213.904 90.3158 207.971 88.0421 202.429C85.7684 196.888 82.4224 191.847 78.195 187.595C73.9677 183.343 68.9418 179.963 63.4044 177.648C57.867 175.333 51.9265 174.127 45.922 174.101C33.7955 174.049 22.1447 178.802 13.5326 187.315C4.92055 195.828 0.0527242 207.403 0 219.495H0V222.122V256.217C0 274.788 7.39868 292.599 20.5684 305.731C33.7381 318.863 51.6001 326.24 70.2249 326.24H169.623C183.773 326.254 197.64 330.194 209.672 337.62C221.704 345.045 231.426 355.663 237.75 368.285C244.074 380.907 246.75 395.035 245.479 409.087C244.209 423.139 239.041 436.562 230.555 447.852H265.99C275.712 427.487 278.679 404.565 274.461 382.406C270.244 360.247 259.061 340.002 242.532 324.605ZM74.7973 295.862C68.9779 295.868 63.2143 294.731 57.836 292.515C52.4578 290.299 47.5703 287.048 43.4531 282.947C39.3358 278.846 36.0696 273.976 33.8411 268.616C31.6126 263.256 30.4656 257.51 30.4656 251.707V219.793C30.4656 215.758 32.0731 211.888 34.9345 209.035C37.7958 206.182 41.6767 204.579 45.7232 204.579C49.7698 204.579 53.6507 206.182 56.512 209.035C59.3734 211.888 60.9809 215.758 60.9809 219.793V222.37C60.9446 236.018 63.6179 249.539 68.8467 262.152C74.0755 274.766 81.7564 286.222 91.4465 295.862H74.7973Z" fill="white"/>
<path style="mix-blend-mode:multiply" opacity="0.5" d="M159.037 70.1309C159.286 66.761 159.435 63.2921 159.435 59.724V61.508C159.435 49.2675 161.472 41.0411 165.448 36.7297C167.776 34.5242 170.833 33.0532 173.947 32.2697C164.471 34.6247 155.549 39.2384 148.396 45.8684C141.243 52.4985 135.892 60.8291 132.846 70.0813L159.037 70.1309Z" fill="url(#paint2_linear_3188_11780)"/>
<path style="mix-blend-mode:multiply" opacity="0.5" d="M159.037 195.411C159.286 198.78 159.435 202.249 159.435 205.817V204.033C159.435 216.274 161.472 224.5 165.448 228.812C167.772 231.033 170.63 232.621 173.748 233.42C164.272 231.048 155.552 226.323 148.401 219.686C141.249 213.049 135.898 204.715 132.846 195.46L159.037 195.411Z" fill="url(#paint3_linear_3188_11780)"/>
<path style="mix-blend-mode:multiply" d="M252.92 281.144L252.125 279.36L251.38 277.973C249.604 274.783 247.124 272.037 244.128 269.942C241.132 267.847 237.698 266.459 234.084 265.881C237.501 266.921 240.444 269.123 242.399 272.105C244.355 275.086 245.199 278.657 244.785 282.195C244.371 285.734 242.725 289.015 240.134 291.467C237.543 293.919 234.171 295.387 230.605 295.615V314.149H230.953C237.322 313.956 243.364 311.297 247.799 306.736C252.234 302.175 254.713 296.071 254.71 289.718C254.654 286.774 254.047 283.866 252.92 281.144Z" fill="url(#paint4_linear_3188_11780)"/>
<path style="mix-blend-mode:multiply" d="M46.2214 197.64C45.6121 197.874 45.0149 198.139 44.4322 198.433L43.0407 199.126C39.8672 200.941 37.1348 203.433 35.0385 206.422C32.9423 209.412 31.5339 212.827 30.9141 216.422C31.7144 212.744 33.8579 209.494 36.9278 207.304C39.9977 205.114 43.7746 204.141 47.5242 204.573C51.2738 205.006 54.728 206.813 57.2153 209.644C59.7026 212.475 61.0452 216.127 60.9821 219.891H79.5696C79.3757 213.541 76.709 207.516 72.1349 203.094C67.5607 198.671 61.439 196.2 55.0679 196.203C52.0536 196.106 49.0492 196.595 46.2214 197.64Z" fill="url(#paint5_linear_3188_11780)"/>
<path style="mix-blend-mode:multiply" d="M192.087 402.707C191.862 402.095 191.596 401.499 191.292 400.923C191.292 400.427 190.845 400.031 190.596 399.535C188.804 396.348 186.313 393.606 183.31 391.512C180.307 389.418 176.869 388.028 173.251 387.443C176.724 388.429 179.731 390.614 181.736 393.608C183.741 396.602 184.612 400.21 184.194 403.785C183.775 407.361 182.095 410.672 179.453 413.125C176.81 415.579 173.379 417.015 169.772 417.177V435.711C176.172 435.582 182.267 432.966 186.761 428.421C191.254 423.876 193.789 417.761 193.827 411.379C193.798 408.405 193.208 405.463 192.087 402.707Z" fill="url(#paint6_linear_3188_11780)"/>
<path style="mix-blend-mode:multiply" d="M257.741 342.347L257.195 341.554C255.836 339.605 254.445 337.722 253.02 335.905L252.424 335.261C251.181 333.675 249.889 332.188 248.547 330.751L247.354 329.462C245.814 327.778 244.223 326.192 242.384 324.507L172.209 326.291C191.756 327.054 210.253 335.309 223.846 349.335C224.691 350.177 225.536 351.119 226.331 352.06L226.63 352.358L228.866 355.083L229.214 355.48C229.91 356.372 230.606 357.313 231.252 358.255L231.55 358.651C232.246 359.642 232.941 360.683 233.588 361.724C236.73 366.413 239.347 371.431 241.39 376.69H273.347C272.064 371.618 270.402 366.648 268.377 361.823C266.475 357.221 264.267 352.751 261.767 348.443L261.369 347.898C260.177 346.014 258.984 344.181 257.741 342.347Z" fill="url(#paint7_linear_3188_11780)"/>
<g style="mix-blend-mode:multiply">
<path style="mix-blend-mode:multiply" d="M92.4903 229.703H61.2295C62.9458 254.674 73.6812 278.179 91.4466 295.861H170.965C152.15 295.874 133.939 289.234 119.57 277.12C105.202 265.007 95.6066 248.206 92.4903 229.703Z" fill="url(#paint8_linear_3188_11780)"/>
</g>
<defs>
<linearGradient id="paint0_linear_3188_11780" x1="248.746" y1="279.061" x2="265.061" y2="226.157" gradientUnits="userSpaceOnUse">
<stop/>
<stop offset="1" stop-opacity="0"/>
</linearGradient>
<linearGradient id="paint1_linear_3188_11780" x1="251.231" y1="273.512" x2="267.498" y2="225.612" gradientUnits="userSpaceOnUse">
<stop/>
<stop offset="0.97" stop-opacity="0"/>
</linearGradient>
<linearGradient id="paint2_linear_3188_11780" x1="153.297" y1="32.1705" x2="153.297" y2="70.1309" gradientUnits="userSpaceOnUse">
<stop/>
<stop offset="1" stop-opacity="0"/>
</linearGradient>
<linearGradient id="paint3_linear_3188_11780" x1="154.067" y1="245.363" x2="154.067" y2="180.939" gradientUnits="userSpaceOnUse">
<stop/>
<stop offset="0.85901" stop-color="#ACA9A9" stop-opacity="0"/>
</linearGradient>
<linearGradient id="paint4_linear_3188_11780" x1="283.287" y1="275.098" x2="236.122" y2="297.503" gradientUnits="userSpaceOnUse">
<stop/>
<stop offset="1" stop-opacity="0"/>
</linearGradient>
<linearGradient id="paint5_linear_3188_11780" x1="59.6402" y1="175.983" x2="67.054" y2="213.159" gradientUnits="userSpaceOnUse">
<stop/>
<stop offset="1" stop-opacity="0"/>
</linearGradient>
<linearGradient id="paint6_linear_3188_11780" x1="201.282" y1="371.733" x2="171.585" y2="418.889" gradientUnits="userSpaceOnUse">
<stop/>
<stop offset="1" stop-opacity="0"/>
</linearGradient>
<linearGradient id="paint7_linear_3188_11780" x1="218.678" y1="282.531" x2="222.754" y2="376.691" gradientUnits="userSpaceOnUse">
<stop/>
<stop offset="1" stop-opacity="0"/>
</linearGradient>
<linearGradient id="paint8_linear_3188_11780" x1="2886.93" y1="4883.26" x2="2798.48" y2="3840.96" gradientUnits="userSpaceOnUse">
<stop/>
<stop offset="1" stop-opacity="0"/>
</linearGradient>
</defs>
</svg>
