<svg width="108" height="189" viewBox="0 0 108 189" fill="none" xmlns="http://www.w3.org/2000/svg">
<path d="M0.785248 180.282V178.986H5.05375V180.282H3.61437V188.002H2.20808V180.282H0.785248Z" fill="white"/>
<path d="M6.71924 187.985V178.986H10.337V180.282H8.10347V182.642H9.71381V183.943H8.10347V186.634H10.337V187.985H6.71924Z" fill="white"/>
<path d="M12.2617 185.675V181.065C12.2305 180.459 12.4384 179.865 12.8407 179.411C13.0505 179.204 13.3012 179.044 13.5767 178.941C13.8522 178.837 14.1463 178.792 14.44 178.809C14.7276 178.789 15.0161 178.832 15.285 178.936C15.5539 179.04 15.7965 179.202 15.9952 179.411C16.3866 179.883 16.5838 180.486 16.5467 181.098V181.964H15.1239V180.977C15.1437 180.729 15.0796 180.483 14.9419 180.276C14.8742 180.202 14.7916 180.142 14.6995 180.101C14.6073 180.06 14.5077 180.039 14.4069 180.039C14.3062 180.039 14.2066 180.06 14.1144 180.101C14.0223 180.142 13.9397 180.202 13.872 180.276C13.7343 180.483 13.6702 180.729 13.69 180.977V186C13.6731 186.247 13.737 186.493 13.872 186.7C13.9397 186.775 14.0223 186.834 14.1144 186.875C14.2066 186.916 14.3062 186.937 14.4069 186.937C14.5077 186.937 14.6073 186.916 14.6995 186.875C14.7916 186.834 14.8742 186.775 14.9419 186.7C15.0769 186.493 15.1408 186.247 15.1239 186V184.77H16.5467V185.713C16.5905 186.367 16.3944 187.014 15.9952 187.533C15.5703 187.945 15.0016 188.175 14.4097 188.175C13.8178 188.175 13.2491 187.945 12.8242 187.533C12.4175 187.002 12.2176 186.342 12.2617 185.675Z" fill="white"/>
<path d="M18.7527 178.986H20.1259V182.653H21.5101V178.986H22.8943V187.985H21.5101V183.954H20.1204V187.985H18.7527V178.986Z" fill="white"/>
<path d="M25.3705 187.985V178.986H26.6169L28.3761 184.362C28.4092 184.467 28.4478 184.599 28.4974 184.77C28.5471 184.941 28.5912 185.123 28.6408 185.322C28.5967 185.057 28.5581 184.814 28.5305 184.594C28.507 184.431 28.4923 184.267 28.4864 184.103V178.986H29.7824V187.985H28.4588L26.7658 183.022L26.7382 182.929C26.6224 182.587 26.5341 182.294 26.4735 182.046C26.5231 182.361 26.5617 182.598 26.5893 182.829C26.6113 182.981 26.6242 183.134 26.6279 183.287V187.996L25.3705 187.985Z" fill="white"/>
<path d="M32.1979 187.985V178.986H33.6097V187.985H32.1979Z" fill="white"/>
<path d="M35.8488 185.675V181.065C35.81 180.463 36.0079 179.869 36.4002 179.411C36.6101 179.204 36.8608 179.044 37.1362 178.941C37.4117 178.837 37.7058 178.792 37.9995 178.81C38.2837 178.796 38.5675 178.844 38.8313 178.95C39.0951 179.057 39.3325 179.22 39.5272 179.427C39.9185 179.899 40.1157 180.502 40.0787 181.114V181.98H38.6558V180.993C38.6756 180.746 38.6115 180.499 38.4738 180.293C38.4083 180.211 38.3238 180.147 38.2276 180.106C38.1315 180.064 38.0267 180.047 37.9223 180.056C37.818 180.047 37.713 180.064 37.6168 180.105C37.5205 180.146 37.436 180.211 37.3709 180.293C37.2332 180.499 37.169 180.746 37.1889 180.993V186.016C37.172 186.263 37.2358 186.509 37.3709 186.717C37.435 186.8 37.5194 186.865 37.6159 186.907C37.7124 186.948 37.8178 186.964 37.9223 186.954C38.0268 186.964 38.1321 186.948 38.2285 186.906C38.3249 186.865 38.4093 186.799 38.4738 186.717C38.6088 186.509 38.6727 186.263 38.6558 186.016V184.787H40.0787V185.73C40.1224 186.383 39.9263 187.03 39.5272 187.549C39.1013 187.962 38.5317 188.192 37.9389 188.192C37.3461 188.192 36.7765 187.962 36.3506 187.549C35.9657 187.004 35.7877 186.339 35.8488 185.675Z" fill="white"/>
<path d="M41.6945 187.985L43.178 178.986H44.9869L46.4649 187.985H45.0365L44.7553 186.033H43.36L43.0567 187.985H41.6945ZM43.531 184.759H44.5898L44.1155 180.999H44.0273L43.531 184.759Z" fill="white"/>
<path d="M48.2792 187.985V178.986H49.6359V186.706H51.7922V188.007L48.2792 187.985Z" fill="white"/>
<path d="M56.8052 185.697L58.1288 185.498C58.1239 185.853 58.2133 186.203 58.388 186.513C58.4613 186.619 58.5606 186.705 58.6765 186.762C58.7923 186.819 58.9208 186.845 59.0498 186.838C59.1639 186.842 59.2776 186.823 59.3838 186.781C59.4901 186.739 59.5866 186.676 59.6674 186.595C59.7466 186.512 59.8083 186.413 59.849 186.305C59.8897 186.197 59.9086 186.082 59.9046 185.967C59.9046 185.5 59.5369 184.893 58.8016 184.147L58.6747 184.02C58.1328 183.523 57.6598 182.956 57.2685 182.333C57.0609 181.951 56.9528 181.522 56.9541 181.087C56.9458 180.791 56.9972 180.496 57.1052 180.221C57.2133 179.945 57.3757 179.694 57.5828 179.482C57.7781 179.274 58.015 179.109 58.2781 178.998C58.5413 178.886 58.8248 178.832 59.1104 178.837C59.3781 178.828 59.6446 178.877 59.8919 178.979C60.1392 179.082 60.3617 179.237 60.5443 179.433C60.9458 179.892 61.1741 180.477 61.1895 181.087L59.8329 181.28C59.833 180.978 59.7591 180.681 59.6178 180.414C59.5568 180.326 59.4738 180.255 59.3771 180.209C59.2804 180.162 59.1733 180.142 59.0663 180.149C58.9634 180.144 58.8606 180.162 58.7653 180.201C58.67 180.24 58.5845 180.3 58.5148 180.376C58.3771 180.547 58.3065 180.762 58.3163 180.982C58.3163 181.508 58.752 182.192 59.6233 183.033L59.7005 183.111C60.1955 183.552 60.6196 184.067 60.9579 184.638C61.1604 185.049 61.2625 185.503 61.2557 185.961C61.2684 186.258 61.2212 186.553 61.117 186.831C61.0127 187.109 60.8536 187.362 60.6491 187.577C60.4507 187.785 60.2107 187.949 59.9446 188.059C59.6785 188.168 59.3924 188.22 59.1049 188.211C58.7975 188.228 58.4901 188.178 58.2043 188.064C57.9184 187.949 57.6611 187.774 57.4504 187.549C57.0155 187.032 56.7858 186.372 56.8052 185.697Z" fill="white"/>
<path d="M63.0646 181.065C63.0335 180.459 63.2414 179.865 63.6437 179.411C63.8537 179.205 64.1044 179.045 64.3798 178.941C64.6552 178.838 64.9492 178.793 65.243 178.81C65.5273 178.795 65.8113 178.843 66.0752 178.949C66.339 179.056 66.5764 179.219 66.7706 179.427C67.162 179.899 67.3591 180.502 67.3221 181.114V185.73C67.3659 186.383 67.1698 187.03 66.7706 187.549C66.3466 187.961 65.7788 188.191 65.1878 188.191C64.5968 188.191 64.0291 187.961 63.6051 187.549C63.2042 187.014 63.0086 186.353 63.0536 185.686L63.0646 181.065ZM65.9103 186V180.977C65.9301 180.729 65.866 180.483 65.7283 180.276C65.6606 180.202 65.578 180.142 65.4859 180.101C65.3938 180.06 65.2941 180.039 65.1934 180.039C65.0926 180.039 64.993 180.06 64.9008 180.101C64.8087 180.142 64.7261 180.202 64.6584 180.276C64.5207 180.483 64.4566 180.729 64.4764 180.977V186C64.4595 186.247 64.5234 186.493 64.6584 186.7C64.7261 186.775 64.8087 186.834 64.9008 186.875C64.993 186.916 65.0926 186.937 65.1934 186.937C65.2941 186.937 65.3938 186.916 65.4859 186.875C65.578 186.834 65.6606 186.775 65.7283 186.7C65.8633 186.493 65.9272 186.247 65.9103 186Z" fill="white"/>
<path d="M69.6162 187.985V178.986H70.995V186.706H73.1458V188.007L69.6162 187.985Z" fill="white"/>
<path d="M74.8388 178.986H76.2561V185.956C76.2438 186.182 76.3166 186.404 76.4602 186.579C76.5277 186.658 76.6128 186.72 76.7085 186.76C76.8042 186.8 76.9081 186.817 77.0117 186.81C77.1096 186.815 77.2073 186.797 77.2972 186.758C77.3871 186.719 77.4667 186.659 77.53 186.584C77.6645 186.403 77.7309 186.181 77.7176 185.956V178.986H79.1294V185.713C79.1735 186.368 78.9774 187.017 78.5779 187.538C78.1539 187.95 77.5861 188.18 76.9951 188.18C76.4041 188.18 75.8364 187.95 75.4123 187.538C75.0096 187.006 74.8137 186.346 74.8609 185.68L74.8388 178.986Z" fill="white"/>
<path d="M80.6791 180.282V178.986H84.931V180.282H83.4861V188.002H82.1184V180.282H80.6791Z" fill="white"/>
<path d="M86.613 187.985V178.986H88.0248V187.985H86.613Z" fill="white"/>
<path d="M90.2694 181.065C90.2382 180.459 90.4462 179.865 90.8485 179.411C91.0585 179.205 91.3092 179.045 91.5846 178.941C91.86 178.838 92.154 178.793 92.4478 178.81C92.732 178.795 93.016 178.843 93.2799 178.949C93.5438 179.056 93.7812 179.219 93.9754 179.427C94.3668 179.899 94.5639 180.502 94.5269 181.114V185.73C94.5732 186.383 94.3769 187.031 93.9754 187.549C93.5514 187.961 92.9836 188.191 92.3926 188.191C91.8016 188.191 91.2339 187.961 90.8098 187.549C90.409 187.014 90.2133 186.353 90.2584 185.686L90.2694 181.065ZM93.1151 186V180.977C93.1349 180.729 93.0708 180.483 92.9331 180.276C92.8654 180.202 92.7828 180.142 92.6907 180.101C92.5985 180.06 92.4989 180.039 92.3981 180.039C92.2974 180.039 92.1977 180.06 92.1056 180.101C92.0135 180.142 91.9309 180.202 91.8632 180.276C91.7255 180.483 91.6614 180.729 91.6812 180.977V186C91.6643 186.247 91.7282 186.493 91.8632 186.7C91.9309 186.775 92.0135 186.834 92.1056 186.875C92.1977 186.916 92.2974 186.937 92.3981 186.937C92.4989 186.937 92.5985 186.916 92.6907 186.875C92.7828 186.834 92.8654 186.775 92.9331 186.7C93.0681 186.493 93.132 186.247 93.1151 186Z" fill="white"/>
<path d="M96.821 187.985V178.986H98.0674L99.8322 184.362C99.8652 184.467 99.9038 184.599 99.9535 184.77C100.003 184.941 100.047 185.123 100.097 185.322C100.053 185.057 100.014 184.814 99.9866 184.594C99.9603 184.431 99.9455 184.267 99.9425 184.103V178.986H101.244V187.985H99.9425L98.2494 183.022C98.2357 182.992 98.2247 182.961 98.2163 182.929C98.1146 182.639 98.0281 182.345 97.9571 182.046C98.0067 182.361 98.0453 182.598 98.0729 182.829C98.0949 182.981 98.1078 183.134 98.1115 183.287V187.996L96.821 187.985Z" fill="white"/>
<path d="M103.257 185.697L104.586 185.498C104.581 185.853 104.671 186.203 104.845 186.513C104.918 186.619 105.018 186.705 105.134 186.762C105.25 186.819 105.378 186.845 105.507 186.838C105.62 186.842 105.733 186.823 105.838 186.781C105.944 186.739 106.039 186.676 106.119 186.595C106.199 186.512 106.262 186.414 106.303 186.306C106.343 186.198 106.362 186.082 106.356 185.967C106.356 185.498 105.987 184.892 105.253 184.147L105.121 184.02C104.571 183.522 104.087 182.955 103.682 182.333C103.478 181.949 103.372 181.521 103.373 181.087C103.366 180.792 103.417 180.498 103.524 180.222C103.631 179.947 103.792 179.696 103.996 179.482C104.192 179.274 104.429 179.11 104.692 178.998C104.955 178.887 105.238 178.832 105.524 178.837C105.792 178.828 106.059 178.877 106.307 178.98C106.556 179.083 106.779 179.237 106.963 179.433C107.365 179.891 107.592 180.477 107.603 181.087L106.246 181.28C106.251 180.977 106.177 180.679 106.031 180.414C105.971 180.325 105.888 180.253 105.791 180.206C105.694 180.16 105.587 180.14 105.479 180.149C105.376 180.143 105.273 180.161 105.178 180.2C105.083 180.239 104.997 180.299 104.928 180.376C104.788 180.546 104.716 180.762 104.724 180.982C104.724 181.508 105.16 182.192 106.031 183.033L106.114 183.111C106.609 183.552 107.033 184.067 107.371 184.638C107.573 185.049 107.676 185.503 107.669 185.961C107.68 186.257 107.632 186.553 107.527 186.83C107.423 187.107 107.265 187.361 107.062 187.577C106.863 187.785 106.623 187.948 106.357 188.058C106.091 188.167 105.805 188.219 105.518 188.211C105.211 188.227 104.904 188.176 104.618 188.062C104.333 187.947 104.075 187.773 103.864 187.549C103.446 187.025 103.23 186.367 103.257 185.697Z" fill="white"/>
<path style="mix-blend-mode:multiply" opacity="0.5" d="M88.3833 63.4764H78.7213V89.7015H88.3833V63.4764Z" fill="url(#paint0_linear_4_10)"/>
<path d="M88.3778 89.7015V0.48877L78.7158 0.48877V89.7015H88.3778Z" fill="white"/>
<path style="mix-blend-mode:multiply" opacity="0.5" d="M88.3833 66.9007H78.7213V89.7015H88.3833V66.9007Z" fill="url(#paint1_linear_4_10)"/>
<path d="M107.707 142.846L107.707 0.48877L98.0454 0.48877L98.0454 142.846H107.707Z" fill="white"/>
<path d="M54.8695 113.87H0.785248V123.531H54.6489C55.9302 123.535 57.1572 124.048 58.0601 124.957C58.963 125.866 59.4678 127.096 59.4634 128.377C59.459 129.659 58.9458 130.885 58.0367 131.788C57.1276 132.691 55.8971 133.196 54.6158 133.191H0.785248V142.852H54.5993C58.4416 142.886 62.1399 141.392 64.8807 138.699C67.6214 136.006 69.18 132.335 69.2137 128.493C69.2473 124.651 67.7532 120.954 65.06 118.213C62.3669 115.473 58.6953 113.915 54.853 113.881L54.8695 113.87Z" fill="white"/>
<path d="M77.69 103.674C81.0563 102.761 83.9799 100.664 85.9235 97.7682C87.8671 94.8723 88.7002 91.3724 88.2695 87.9116C87.8389 84.4508 86.1735 81.2616 83.5794 78.9303C80.9854 76.5989 77.6369 75.282 74.1495 75.2215H60.5388C56.9321 75.2215 54.4927 74.5488 53.2206 73.2034C52.5301 72.3965 52.0523 71.4297 51.8308 70.3911C51.6492 69.6662 51.5202 68.9291 51.4448 68.1855C51.4448 68.1855 51.4448 68.1855 51.4448 68.1414C51.4062 67.7719 51.3786 67.3804 51.3566 66.9779C51.3566 66.9173 51.3566 66.8676 51.3566 66.807C51.3124 66.3328 51.2904 65.8641 51.2904 65.4009V65.3347V65.8089C51.1911 53.4573 47.1285 45.7376 39.1025 42.6497V42.578C47.1322 39.5011 51.1948 31.7814 51.2904 19.4187V19.9702C51.2904 16.0698 51.9283 13.4488 53.204 12.107C54.4798 10.7653 56.9192 10.0925 60.5223 10.0889H62.7282V0.477783H55.9946C50.9503 0.477783 47.0072 2.19635 44.1652 5.63348C43.0181 7.02855 42.0971 9.2011 41.4077 11.2854C41.1816 11.9857 40.9776 12.6695 40.8011 13.3146C40.312 15.2202 39.9764 17.1618 39.7974 19.121C39.5439 21.362 38.97 23.5551 38.0933 25.6331C37.6354 26.7312 37.1124 27.801 36.5271 28.8368C34.8451 31.8145 31.9828 34.8141 27.4937 37.5381V47.7061C31.9828 50.4301 34.8451 53.4242 36.5271 56.4074C37.5474 58.1948 38.365 60.0905 38.9647 62.0593C39.2303 62.9333 39.4421 63.8228 39.5989 64.7226C39.6816 65.1803 39.7478 65.649 39.7974 66.1177C39.8691 66.7573 39.9463 67.3915 40.0345 68.0311C40.0345 68.1579 40.0731 68.2848 40.0897 68.4116C40.2572 69.6064 40.4947 70.7903 40.8011 71.9572C41.507 74.5653 42.6265 77.8352 44.1652 79.6769C46.9998 83.114 50.9411 84.8326 55.989 84.8326H74.0282C75.3094 84.8509 76.5309 85.3773 77.424 86.2961C78.3171 87.2149 78.8085 88.4508 78.7902 89.7319C78.7719 91.013 78.2454 92.2343 77.3265 93.1273C76.4076 94.0202 75.1716 94.5116 73.8903 94.4933H54.9136C48.2556 94.4919 41.87 91.8493 37.1584 87.1456C32.4468 82.4419 29.7941 76.0613 29.7824 69.4041V70.3856C29.8 66.5424 28.2899 62.8495 25.5843 60.1195C22.8787 57.3895 19.1993 55.8459 15.3555 55.8284C11.5117 55.8108 7.8184 57.3208 5.08801 60.0259C2.35762 62.7311 0.813847 66.41 0.796295 70.2533V71.0914V81.9377C0.797756 87.8401 3.14308 93.5005 7.31679 97.6746C11.4905 101.849 17.151 104.195 23.0543 104.198H54.5993C59.0842 104.201 63.4797 105.453 67.2934 107.813C71.107 110.173 74.1882 113.548 76.1919 117.56C78.1956 121.572 79.0426 126.062 78.638 130.529C78.2334 134.995 76.5933 139.26 73.9013 142.847H85.1351C88.2024 136.375 89.1352 129.096 87.7992 122.06C86.4631 115.024 82.9272 108.594 77.7011 103.696L77.69 103.674ZM24.4992 94.5319C22.6541 94.5326 20.827 94.1699 19.1222 93.4644C17.4174 92.759 15.8682 91.7246 14.5633 90.4203C13.2584 89.1161 12.2233 87.5676 11.517 85.8633C10.8108 84.159 10.4473 82.3323 10.4473 80.4875V70.347C10.4937 69.0935 11.0255 67.907 11.9304 67.0381C12.8353 66.1692 14.0425 65.6859 15.2971 65.6902C16.5517 65.6945 17.7555 66.186 18.6544 67.0611C19.5533 67.9362 20.077 69.1263 20.1149 70.3801V71.2017C20.1087 75.5357 20.9597 79.8281 22.6188 83.832C24.2779 87.8359 26.7125 91.4723 29.7824 94.5319H24.4992Z" fill="white"/>
<path style="mix-blend-mode:multiply" opacity="0.5" d="M51.1745 22.7658C51.2517 21.7034 51.2959 20.6006 51.3069 19.4573V20.0087C51.3069 16.1084 51.9448 13.4874 53.2206 12.1456C53.9502 11.4381 54.8539 10.9359 55.8401 10.6899C52.8368 11.4394 50.0726 12.9383 47.8061 15.0463C45.5395 17.1544 43.8448 19.8027 42.8802 22.7437L51.1745 22.7658Z" fill="url(#paint2_linear_4_10)"/>
<path style="mix-blend-mode:multiply" opacity="0.5" d="M51.1745 62.5997C51.2517 63.6657 51.2959 64.7686 51.3069 65.9081V65.3567C51.3069 69.2497 51.9448 71.8689 53.2206 73.2143C53.9496 73.9239 54.8533 74.428 55.8401 74.6756C52.8368 73.9241 50.0729 72.4239 47.8066 70.315C45.5402 68.2062 43.8453 65.5575 42.8802 62.6162L51.1745 62.5997Z" fill="url(#paint3_linear_4_10)"/>
<path style="mix-blend-mode:multiply" d="M80.9658 89.8614C80.8886 89.6684 80.8059 89.4754 80.7176 89.31C80.6294 89.1446 80.5688 89.0233 80.4916 88.8744C79.9234 87.8564 79.1321 86.9804 78.177 86.3119C77.2219 85.6434 76.1277 85.1998 74.9767 85.0145C76.1313 85.2844 77.1462 85.9694 77.8284 86.9391C78.5105 87.9088 78.8122 89.0954 78.6759 90.2731C78.5397 91.4508 77.9751 92.5372 77.0895 93.3256C76.204 94.114 75.0594 94.5492 73.8737 94.5484H73.8296V100.443H73.9454C75.9654 100.38 77.8814 99.5331 79.2876 98.0818C80.6938 96.6305 81.4797 94.6888 81.4787 92.6681C81.4933 91.708 81.319 90.7544 80.9658 89.8614Z" fill="url(#paint4_linear_4_10)"/>
<path style="mix-blend-mode:multiply" d="M15.4438 63.3055C15.2507 63.3882 15.0577 63.4654 14.8923 63.5591C14.7268 63.6529 14.611 63.7025 14.4621 63.7852C13.4455 64.3482 12.5699 65.1345 11.9012 66.0849C11.2325 67.0352 10.7882 68.1249 10.6017 69.2718C10.8764 68.1226 11.5627 67.114 12.5309 66.4367C13.4991 65.7594 14.682 65.4604 15.8559 65.5962C17.0297 65.732 18.113 66.2933 18.9009 67.1738C19.6887 68.0544 20.1265 69.1931 20.1314 70.3746V70.4187C20.1314 70.4187 26.0268 70.3691 26.0213 70.347V70.2974C25.9539 68.2782 25.1025 66.3648 23.6478 64.9627C22.193 63.5607 20.2493 62.7803 18.2288 62.7872C17.2757 62.7785 16.3299 62.9545 15.4438 63.3055Z" fill="url(#paint5_linear_4_10)"/>
<path style="mix-blend-mode:multiply" d="M61.6859 128.504C61.6087 128.311 61.5314 128.118 61.4377 127.953C61.3439 127.787 61.2888 127.672 61.2116 127.523C60.6457 126.503 59.855 125.625 58.8995 124.957C57.944 124.288 56.8487 123.845 55.6967 123.663C56.846 123.938 57.8548 124.624 58.5322 125.592C59.2096 126.56 59.5086 127.743 59.3728 128.916C59.2369 130.09 58.6756 131.173 57.7949 131.961C56.9143 132.749 55.7754 133.186 54.5938 133.191H54.5993C54.5993 133.191 54.6489 139.086 54.671 139.08H54.7151C56.735 139.02 58.6519 138.175 60.0585 136.724C61.4651 135.273 62.2507 133.332 62.2484 131.311C62.2459 130.348 62.0548 129.394 61.6859 128.504Z" fill="url(#paint6_linear_4_10)"/>
<path style="mix-blend-mode:multiply" d="M82.51 109.315C82.4493 109.233 82.3942 109.144 82.339 109.062C81.9089 108.45 81.4677 107.849 81.0044 107.27L80.8225 107.049C80.4254 106.558 80.0118 106.084 79.5871 105.615L79.2066 105.207C78.7158 104.683 78.2139 104.171 77.69 103.674H77.7396L55.5037 104.226H55.5313C61.7238 104.469 67.5841 107.09 71.8939 111.543L71.9435 111.593C72.2138 111.874 72.495 112.144 72.7377 112.458L72.8259 112.563C73.0759 112.842 73.3131 113.129 73.5373 113.423L73.6421 113.55C73.8682 113.842 74.0888 114.14 74.2984 114.443L74.3921 114.57C74.6127 114.885 74.8223 115.204 75.0318 115.535L75.0815 115.612C75.9899 117.071 76.7405 118.622 77.3205 120.239H87.3962C87.005 118.655 86.5 117.101 85.8851 115.59L85.852 115.508C85.2482 114.043 84.5424 112.622 83.7398 111.256C83.7067 111.196 83.6681 111.135 83.6295 111.074C83.2766 110.473 82.9016 109.889 82.51 109.315Z" fill="url(#paint7_linear_4_10)"/>
<g style="mix-blend-mode:multiply">
<path d="M30.1133 73.5011H20.1866C20.733 81.4418 24.1426 88.9145 29.7824 94.5319H54.9192C48.9633 94.5312 43.201 92.4169 38.6584 88.5656C34.1158 84.7143 31.0877 79.3759 30.1133 73.5011Z" fill="url(#paint8_linear_4_10)"/>
</g>
<path d="M107.195 176.378H1.30916C1.23771 176.385 1.1655 176.378 1.0972 176.355C1.0289 176.333 0.966035 176.297 0.912676 176.249C0.859318 176.201 0.816653 176.142 0.787452 176.076C0.758251 176.011 0.743164 175.94 0.743164 175.868C0.743164 175.796 0.758251 175.725 0.787452 175.659C0.816653 175.594 0.859318 175.535 0.912676 175.487C0.966035 175.439 1.0289 175.402 1.0972 175.38C1.1655 175.358 1.23771 175.35 1.30916 175.358H107.195C107.266 175.35 107.338 175.358 107.406 175.38C107.475 175.402 107.538 175.439 107.591 175.487C107.644 175.535 107.687 175.594 107.716 175.659C107.745 175.725 107.76 175.796 107.76 175.868C107.76 175.94 107.745 176.011 107.716 176.076C107.687 176.142 107.644 176.201 107.591 176.249C107.538 176.297 107.475 176.333 107.406 176.355C107.338 176.378 107.266 176.385 107.195 176.378Z" fill="white"/>
<path d="M4.51883 161.12H8.93072V164.043H4.51883V170.042H10.0778V172.965H1.29816V152.485H10.0778V155.424H4.51883V161.12Z" fill="white"/>
<path d="M19.0891 152.485H22.3042V170.042H27.604V172.965H19.0891V152.485Z" fill="white"/>
<path d="M45.3674 164.798L44.3747 166.673V172.959H41.1541V152.485H44.3747V161.412L48.5881 152.485H51.8088L47.1983 161.308L51.8088 172.987H48.4999L45.3674 164.798Z" fill="white"/>
<path d="M59.8218 157.404C59.8218 155.746 60.241 154.472 61.0792 153.582C61.5577 153.12 62.1278 152.763 62.7528 152.534C63.3778 152.305 64.0439 152.209 64.708 152.254C66.2889 152.254 67.4985 152.697 68.3368 153.582C69.175 154.468 69.5942 155.742 69.5942 157.404V167.836C69.5942 169.491 69.175 170.763 68.3368 171.652C67.3238 172.513 66.0375 172.986 64.708 172.986C63.3785 172.986 62.0923 172.513 61.0792 171.652C60.241 170.763 59.8218 169.491 59.8218 167.836V157.404ZM63.0425 168.04C62.9877 168.601 63.1495 169.161 63.4947 169.606C63.8325 169.899 64.2642 170.059 64.7108 170.059C65.1574 170.059 65.589 169.899 65.9268 169.606C66.272 169.161 66.4338 168.601 66.379 168.04V157.2C66.4338 156.639 66.272 156.079 65.9268 155.634C65.5906 155.338 65.1583 155.175 64.7108 155.175C64.2632 155.175 63.8309 155.338 63.4947 155.634C63.1459 156.077 62.9837 156.639 63.0425 157.2V168.04Z" fill="white"/>
<path d="M78.4345 157.404C78.4345 155.746 78.8536 154.472 79.6919 153.582C80.5302 152.693 81.7397 152.25 83.3207 152.254C84.8979 152.254 86.1112 152.695 86.9495 153.582C87.7877 154.47 88.2068 155.744 88.2068 157.404V167.836C88.2068 169.491 87.7877 170.763 86.9495 171.652C85.9364 172.513 84.6502 172.986 83.3207 172.986C81.9911 172.986 80.7049 172.513 79.6919 171.652C78.8536 170.763 78.4345 169.491 78.4345 167.836V157.404ZM81.6497 168.04C81.5964 168.602 81.7603 169.162 82.1074 169.606C82.4443 169.898 82.875 170.059 83.3207 170.059C83.7663 170.059 84.1971 169.898 84.5339 169.606C84.8791 169.161 85.0409 168.601 84.9862 168.04V157.2C85.045 156.639 84.8828 156.077 84.5339 155.634C84.1987 155.339 83.7673 155.176 83.3207 155.176C82.874 155.176 82.4427 155.339 82.1074 155.634C81.7566 156.076 81.5924 156.638 81.6497 157.2V168.04Z" fill="white"/>
<path d="M97.3064 152.485H102.397C104.018 152.485 105.222 152.915 106.009 153.775C106.803 154.636 107.195 155.893 107.195 157.547V167.908C107.195 169.562 106.803 170.82 106.009 171.68C105.215 172.54 104.018 172.965 102.397 172.965H97.3064V152.485ZM100.527 155.413V170.042H102.341C102.56 170.051 102.779 170.017 102.984 169.941C103.189 169.866 103.378 169.75 103.538 169.601C103.88 169.161 104.038 168.606 103.979 168.051V157.404C104.038 156.85 103.88 156.294 103.538 155.854C103.379 155.703 103.191 155.586 102.986 155.51C102.78 155.434 102.56 155.401 102.341 155.413H100.527Z" fill="white"/>
<path style="mix-blend-mode:multiply" opacity="0.5" d="M84.2141 154.476C83.768 154.475 83.3295 154.591 82.9424 154.812C82.5553 155.034 82.2331 155.353 82.0081 155.739C82.0364 155.701 82.0678 155.666 82.1019 155.634C82.4372 155.339 82.8685 155.176 83.3152 155.176C83.7618 155.176 84.1931 155.339 84.5284 155.634C84.8772 156.077 85.0395 156.639 84.9806 157.2V160.712H86.7564V157.023C86.7564 156.349 86.4888 155.701 86.0121 155.224C85.5355 154.746 84.8889 154.477 84.2141 154.476Z" fill="url(#paint9_linear_4_10)"/>
<path style="mix-blend-mode:multiply" opacity="0.5" d="M104.933 157.404V160.938H103.974V157.42C104.03 156.86 103.866 156.301 103.516 155.86C103.355 155.706 103.165 155.586 102.956 155.507C102.748 155.429 102.525 155.393 102.303 155.402H103.29C103.51 155.392 103.729 155.426 103.936 155.502C104.142 155.577 104.331 155.694 104.492 155.843C104.836 156.287 104.994 156.846 104.933 157.404Z" fill="url(#paint10_linear_4_10)"/>
<path style="mix-blend-mode:multiply" opacity="0.5" d="M103.979 168.051C104.038 168.606 103.88 169.161 103.538 169.601C103.378 169.75 103.189 169.866 102.984 169.941C102.779 170.017 102.56 170.051 102.341 170.042H103.29C103.51 170.052 103.729 170.018 103.936 169.943C104.142 169.867 104.331 169.751 104.492 169.601C104.833 169.16 104.991 168.605 104.933 168.051V164.506H103.979V168.051Z" fill="url(#paint11_linear_4_10)"/>
<path style="mix-blend-mode:multiply" opacity="0.5" d="M84.2141 170.764C83.7676 170.764 83.3289 170.647 82.9418 170.425C82.5548 170.202 82.2328 169.882 82.0081 169.496C82.0364 169.535 82.0677 169.572 82.1019 169.606C82.4387 169.898 82.8695 170.059 83.3152 170.059C83.7608 170.059 84.1916 169.898 84.5284 169.606C84.8736 169.161 85.0354 168.601 84.9806 168.04V164.522H86.7564V168.217C86.7564 168.892 86.4888 169.539 86.0121 170.016C85.5355 170.494 84.8889 170.763 84.2141 170.764Z" fill="url(#paint12_linear_4_10)"/>
<path style="mix-blend-mode:multiply" opacity="0.5" d="M65.629 154.476C65.1829 154.475 64.7444 154.591 64.3573 154.812C63.9702 155.034 63.648 155.353 63.4231 155.739C63.4514 155.701 63.4827 155.666 63.5168 155.634C63.8521 155.339 64.2834 155.176 64.7301 155.176C65.1767 155.176 65.6081 155.339 65.9434 155.634C66.2922 156.077 66.4544 156.639 66.3956 157.2V160.712H68.1714V157.023C68.1714 156.349 67.9037 155.701 67.4271 155.224C66.9504 154.746 66.3038 154.477 65.629 154.476Z" fill="url(#paint13_linear_4_10)"/>
<path style="mix-blend-mode:multiply" opacity="0.5" d="M65.629 170.764C65.1825 170.764 64.7438 170.647 64.3568 170.425C63.9697 170.202 63.6478 169.882 63.4231 169.496C63.4513 169.535 63.4827 169.572 63.5168 169.606C63.8537 169.898 64.2844 170.059 64.7301 170.059C65.1758 170.059 65.6065 169.898 65.9434 169.606C66.2886 169.161 66.4504 168.601 66.3956 168.04V164.522H68.1714V168.217C68.1714 168.892 67.9037 169.539 67.4271 170.016C66.9504 170.494 66.3038 170.763 65.629 170.764Z" fill="url(#paint14_linear_4_10)"/>
<path style="mix-blend-mode:multiply" opacity="0.5" d="M46.6965 158.418H45.7865L44.3747 161.412V163.706L46.6965 159.273V158.418Z" fill="url(#paint15_linear_4_10)"/>
<path d="M45.3674 164.804L46.2994 163.023L48.0256 167.434L46.5586 167.908L45.3674 164.804Z" fill="url(#paint16_linear_4_10)"/>
<defs>
<linearGradient id="paint0_linear_4_10" x1="79.6588" y1="89.1998" x2="84.8525" y2="72.3758" gradientUnits="userSpaceOnUse">
<stop/>
<stop offset="1" stop-opacity="0"/>
</linearGradient>
<linearGradient id="paint1_linear_4_10" x1="80.4364" y1="87.4297" x2="85.6246" y2="72.2159" gradientUnits="userSpaceOnUse">
<stop/>
<stop offset="0.97" stop-opacity="0"/>
</linearGradient>
<linearGradient id="paint2_linear_4_10" x1="52.465" y1="-0.156367" x2="48.3575" y2="22.198" gradientUnits="userSpaceOnUse">
<stop/>
<stop offset="1" stop-opacity="0"/>
</linearGradient>
<linearGradient id="paint3_linear_4_10" x1="52.465" y1="85.5218" x2="48.3575" y2="63.1674" gradientUnits="userSpaceOnUse">
<stop/>
<stop offset="1" stop-opacity="0"/>
</linearGradient>
<linearGradient id="paint4_linear_4_10" x1="83.7894" y1="79.1255" x2="76.142" y2="93.838" gradientUnits="userSpaceOnUse">
<stop/>
<stop offset="0.97" stop-opacity="0"/>
</linearGradient>
<linearGradient id="paint5_linear_4_10" x1="4.4747" y1="52.7901" x2="19.0482" y2="69.3013" gradientUnits="userSpaceOnUse">
<stop/>
<stop offset="0.97" stop-opacity="0"/>
</linearGradient>
<linearGradient id="paint6_linear_4_10" x1="72.2082" y1="117.553" x2="55.6932" y2="132.129" gradientUnits="userSpaceOnUse">
<stop/>
<stop offset="0.97" stop-opacity="0"/>
</linearGradient>
<linearGradient id="paint7_linear_4_10" x1="68.8717" y1="95.7561" x2="72.1908" y2="116.958" gradientUnits="userSpaceOnUse">
<stop/>
<stop offset="0.97" stop-opacity="0"/>
</linearGradient>
<linearGradient id="paint8_linear_4_10" x1="41.3691" y1="111.311" x2="37.9067" y2="86.79" gradientUnits="userSpaceOnUse">
<stop/>
<stop offset="1" stop-opacity="0"/>
</linearGradient>
<linearGradient id="paint9_linear_4_10" x1="83.5689" y1="152.816" x2="85.3938" y2="160.426" gradientUnits="userSpaceOnUse">
<stop/>
<stop offset="0.97" stop-opacity="0"/>
</linearGradient>
<linearGradient id="paint10_linear_4_10" x1="103.025" y1="153.693" x2="104.652" y2="160.464" gradientUnits="userSpaceOnUse">
<stop/>
<stop offset="0.97" stop-opacity="0"/>
</linearGradient>
<linearGradient id="paint11_linear_4_10" x1="103.389" y1="170.461" x2="104.343" y2="165.84" gradientUnits="userSpaceOnUse">
<stop/>
<stop offset="0.97" stop-opacity="0"/>
</linearGradient>
<linearGradient id="paint12_linear_4_10" x1="83.5689" y1="172.419" x2="85.3938" y2="164.809" gradientUnits="userSpaceOnUse">
<stop/>
<stop offset="0.97" stop-opacity="0"/>
</linearGradient>
<linearGradient id="paint13_linear_4_10" x1="64.9727" y1="152.816" x2="66.7977" y2="160.426" gradientUnits="userSpaceOnUse">
<stop/>
<stop offset="0.97" stop-opacity="0"/>
</linearGradient>
<linearGradient id="paint14_linear_4_10" x1="64.9727" y1="172.419" x2="66.7977" y2="164.809" gradientUnits="userSpaceOnUse">
<stop/>
<stop offset="0.97" stop-opacity="0"/>
</linearGradient>
<linearGradient id="paint15_linear_4_10" x1="43.4593" y1="163.138" x2="46.8062" y2="158.848" gradientUnits="userSpaceOnUse">
<stop/>
<stop offset="0.97" stop-opacity="0"/>
</linearGradient>
<linearGradient id="paint16_linear_4_10" x1="45.1082" y1="161.556" x2="47.0986" y2="167.28" gradientUnits="userSpaceOnUse">
<stop/>
<stop offset="0.97" stop-opacity="0"/>
</linearGradient>
</defs>
</svg>
