<svg width="169" height="25" viewBox="0 0 169 25" fill="none" xmlns="http://www.w3.org/2000/svg">
<path d="M6.2441 22.288C5.73932 22.2924 5.23473 22.2666 4.73303 22.2108C4.30588 22.1603 3.88473 22.068 3.47564 21.9351C3.10867 21.8147 2.75702 21.6518 2.42781 21.4499C2.09494 21.2437 1.78443 21.0035 1.50132 20.733C1.00749 20.2686 0.65886 19.671 0.497612 19.0126C0.307202 18.293 0.212631 17.5514 0.216353 16.807V10.6588H3.1999V16.5092C3.19212 16.9498 3.24406 17.3894 3.35431 17.8161C3.44146 18.1386 3.62178 18.4282 3.87271 18.6487C4.19194 18.9056 4.57167 19.0765 4.97568 19.145C5.45487 19.2415 5.94282 19.2877 6.43161 19.2828H7.65039V4.85793H11.8527V7.86311H10.656V17.0165H12.9777V20.0272H10.656V22.288H6.2441Z" fill="#FFCE00"/>
<path d="M12.134 17.0165H14.384V9.37398H17.3952V17.0386H19.3309V20.0493H12.134V17.0165ZM17.0973 23.4791C16.7546 23.7438 16.3337 23.8874 15.9006 23.8874C15.4675 23.8874 15.0467 23.7438 14.7039 23.4791C14.5274 23.3371 14.3877 23.1548 14.2965 22.9475C14.2053 22.7402 14.1654 22.514 14.18 22.288C14.1728 22.0729 14.2136 21.8588 14.2995 21.6614C14.3853 21.4639 14.514 21.2881 14.6763 21.1466C15.0169 20.8563 15.4533 20.703 15.9006 20.7165C16.3476 20.7051 16.7833 20.8581 17.1249 21.1466C17.2872 21.2881 17.4159 21.4639 17.5018 21.6614C17.5876 21.8588 17.6285 22.0729 17.6213 22.288C17.6332 22.5148 17.5909 22.7411 17.4979 22.9482C17.4049 23.1554 17.2638 23.3374 17.0863 23.4791H17.0973Z" fill="#FFCE00"/>
<path d="M18.5146 17.0165H20.7206C20.5536 16.7518 20.422 16.4663 20.329 16.1674C20.1633 15.6887 20.0812 15.1851 20.0864 14.6786C20.0737 13.9073 20.2319 13.1428 20.5496 12.4398C20.8572 11.7998 21.3015 11.2352 21.8511 10.7856C22.4425 10.303 23.1253 9.94475 23.8586 9.7324C24.6873 9.48804 25.548 9.36908 26.4119 9.3795H29.6381V20.0272H18.5146V17.0165ZM24.8623 7.88517C24.5329 8.14971 24.121 8.29023 23.6986 8.28219C23.2777 8.2913 22.8673 8.15059 22.5405 7.88517C22.3764 7.74549 22.2467 7.56983 22.1616 7.37186C22.0764 7.17388 22.0382 6.95894 22.0497 6.74375C22.0423 6.53579 22.0816 6.32881 22.1646 6.13799C22.2476 5.94717 22.3723 5.77734 22.5295 5.64093C22.859 5.3703 23.2722 5.22237 23.6986 5.22237C24.125 5.22237 24.5383 5.3703 24.8678 5.64093C25.0249 5.77734 25.1496 5.94717 25.2326 6.13799C25.3156 6.32881 25.3549 6.53579 25.3476 6.74375C25.3598 6.95849 25.3223 7.17316 25.2382 7.3711C25.154 7.56905 25.0254 7.74495 24.8623 7.88517ZM23.0865 14.6786C23.0749 15.1604 23.193 15.6365 23.4284 16.0571C23.6435 16.438 23.9413 16.7658 24.2997 17.0165H26.616V12.3571H25.7832C25.4429 12.3594 25.1048 12.4114 24.7795 12.5115C24.4648 12.6072 24.1697 12.7585 23.9082 12.9582C23.6595 13.1528 23.4563 13.3993 23.3126 13.6805C23.1559 13.9894 23.0782 14.3323 23.0865 14.6786ZM28.7944 7.88517C28.462 8.14227 28.0537 8.28176 27.6335 8.28176C27.2133 8.28176 26.805 8.14227 26.4726 7.88517C26.3085 7.74549 26.1788 7.56983 26.0937 7.37186C26.0085 7.17388 25.9703 6.95894 25.9818 6.74375C25.9744 6.53579 26.0137 6.32881 26.0967 6.13799C26.1797 5.94717 26.3044 5.77734 26.4616 5.64093C26.7883 5.36159 27.2065 5.2124 27.6362 5.22186C28.0664 5.20975 28.4855 5.35927 28.8109 5.64093C28.9662 5.7786 29.0891 5.94881 29.1711 6.13942C29.2531 6.33003 29.292 6.53637 29.2852 6.74375C29.2967 6.95894 29.2584 7.17388 29.1733 7.37186C29.0881 7.56983 28.9585 7.74549 28.7944 7.88517Z" fill="#FFCE00"/>
<path d="M43.9106 22.288C43.404 22.2926 42.8975 22.2668 42.394 22.2108C41.9669 22.1603 41.5457 22.068 41.1366 21.9351C40.7625 21.8151 40.4035 21.6522 40.0667 21.4499C39.7339 21.2437 39.4233 21.0035 39.1402 20.733C38.6481 20.2672 38.2998 19.6702 38.1365 19.0126C37.9461 18.293 37.8515 17.5514 37.8553 16.807V10.6588H40.8664V16.5092C40.8558 16.95 40.9078 17.3899 41.0208 17.8161C41.1039 18.139 41.2827 18.4292 41.5337 18.6487C41.8536 18.9046 42.233 19.0753 42.6367 19.145C43.1177 19.2417 43.6075 19.2879 44.0981 19.2828H45.3114V10.6588H48.317V17.0165H50.2747V20.0272H48.3114V22.288H43.9106ZM44.418 9.10378C44.0752 9.36848 43.6543 9.51207 43.2212 9.51207C42.7881 9.51207 42.3673 9.36848 42.0245 9.10378C41.8431 8.96593 41.698 8.7859 41.6019 8.57931C41.5058 8.37272 41.4616 8.14581 41.473 7.91825C41.4658 7.70309 41.5066 7.48902 41.5925 7.29159C41.6783 7.09416 41.8071 6.91832 41.9694 6.77683C42.3207 6.47448 42.7748 6.31855 43.2378 6.34122C43.6855 6.33135 44.1212 6.48638 44.4621 6.77683C44.6243 6.91832 44.7531 7.09416 44.8389 7.29159C44.9248 7.48902 44.9656 7.70309 44.9584 7.91825C44.9697 8.14468 44.9266 8.37051 44.8325 8.5768C44.7385 8.78309 44.5963 8.96381 44.418 9.10378Z" fill="#FFCE00"/>
<path d="M49.453 17.0165H51.1406C51.1075 16.6195 51.0854 16.3107 51.0854 16.0902C51.079 15.3158 51.231 14.5483 51.5321 13.8349C51.8164 13.1557 52.224 12.535 52.7344 12.0042C53.247 11.4774 53.8578 11.0559 54.5322 10.7635C55.2277 10.4599 55.9793 10.3059 56.7382 10.3114C57.5072 10.306 58.2691 10.458 58.9772 10.758C59.6595 11.044 60.281 11.4576 60.8081 11.9766C61.3326 12.4943 61.7521 13.1084 62.0435 13.7853C62.3451 14.5082 62.4971 15.2848 62.4902 16.0681C62.4978 16.8424 62.3398 17.6095 62.0269 18.3179C61.7295 18.9917 61.3001 19.5992 60.764 20.1044C60.2304 20.607 59.61 21.0086 58.9331 21.29C58.2355 21.5851 57.4846 21.7334 56.7271 21.7256C55.9423 21.7312 55.1654 21.5676 54.4495 21.2458C53.7796 20.9511 53.1729 20.5299 52.6627 20.0052H49.4365L49.453 17.0165ZM55.6903 18.5329C56.0241 18.6714 56.3824 18.7408 56.7437 18.7369C57.1096 18.7383 57.4725 18.671 57.8136 18.5384C58.1398 18.4152 58.438 18.2277 58.6904 17.987C58.9297 17.7441 59.1173 17.4552 59.2419 17.1378C59.3831 16.799 59.4544 16.4352 59.4515 16.0681C59.4564 15.6912 59.389 15.3168 59.2529 14.9653C59.1323 14.6394 58.9444 14.3425 58.7015 14.0941C58.4497 13.8553 58.1537 13.6679 57.8301 13.5426C57.4794 13.4031 57.1046 13.3338 56.7271 13.3386C56.3611 13.3342 55.9983 13.4075 55.6628 13.5537C55.3509 13.692 55.0683 13.8885 54.83 14.1327C54.5895 14.383 54.4019 14.6793 54.2785 15.0039C54.1455 15.3447 54.0781 15.7077 54.08 16.0736C54.0776 16.436 54.145 16.7954 54.2785 17.1323C54.4021 17.4519 54.5898 17.7428 54.83 17.987C55.0813 18.2196 55.3728 18.4046 55.6903 18.5329Z" fill="#FFCE00"/>
<path d="M71.9151 5.99934L76.4483 5.34868V6.72169L71.9151 7.37787V5.99934Z" fill="#FFCE00"/>
<path d="M71.8213 24.0139C71.5723 24.0142 71.3236 23.9976 71.0768 23.9643C70.8179 23.934 70.5628 23.8767 70.3158 23.7934L70.1007 20.7661C70.5364 20.8764 70.8397 20.9426 71.0161 20.9701C71.1991 20.993 71.3833 21.0041 71.5676 21.0032C71.7301 21.0224 71.8948 21.0018 72.0476 20.9433C72.2003 20.8847 72.3366 20.7898 72.4445 20.6669C72.6447 20.2997 72.7311 19.8812 72.6927 19.4648V9.37398H75.6983V19.1009C75.7106 19.8306 75.6403 20.5595 75.4887 21.2734C75.3771 21.8311 75.1457 22.3579 74.8104 22.8174C74.4892 23.2261 74.0591 23.5358 73.5695 23.7107C73.0105 23.9187 72.4178 24.0215 71.8213 24.0139Z" fill="#FFCE00"/>
<path d="M82.2996 7.33927C81.9535 7.3398 81.6159 7.23181 81.3345 7.03048C81.011 6.77587 80.7978 6.40672 80.7389 5.99935L80.5072 4.74764L81.8418 4.47745L82.079 5.67401C82.0924 5.7729 82.1324 5.86628 82.1948 5.9442C82.2373 5.98174 82.2925 6.00148 82.3492 5.99935C82.3929 6.00021 82.4362 5.99067 82.4756 5.97149C82.5149 5.95231 82.5491 5.92406 82.5753 5.88906C82.6424 5.76813 82.6712 5.6297 82.658 5.49205C82.6568 5.35883 82.6439 5.22599 82.6194 5.09503C82.6194 4.93512 82.5532 4.68699 82.4926 4.35063L83.8713 4.15212L84.0864 5.36522C84.125 5.53616 84.2077 5.61887 84.3401 5.61887C84.4724 5.61887 84.6158 5.51962 84.6158 5.32662C84.6115 5.15994 84.593 4.99393 84.5607 4.83035C84.4884 4.53567 84.3906 4.24784 84.2684 3.97015L85.7022 3.64482C85.7739 3.99221 85.8291 4.24586 85.8622 4.40577L85.9339 4.83587C85.9581 4.96871 85.971 5.10337 85.9725 5.2384C85.9863 5.46767 85.9534 5.69736 85.8756 5.9135C85.7979 6.12964 85.677 6.32769 85.5202 6.49561C85.3547 6.64885 85.16 6.76734 84.9478 6.84405C84.7356 6.92077 84.5102 6.95416 84.2849 6.94226C84.1231 6.95361 83.9612 6.92123 83.8162 6.84852C83.7261 6.79605 83.6503 6.72219 83.5956 6.63347C83.4943 6.79299 83.3632 6.93153 83.2095 7.04151C82.9517 7.2467 82.6288 7.35238 82.2996 7.33927Z" fill="#FFCE00"/>
<path d="M87.1912 17.0165H88.8788V20.0272H87.1361C87.0968 20.5331 86.9854 21.0307 86.8052 21.505C86.6175 22.0074 86.3198 22.4615 85.9338 22.8339C85.5101 23.2349 85.001 23.5347 84.4448 23.7107C83.7514 23.9302 83.0267 24.0345 82.2995 24.0195C82.0459 24.0195 81.8142 24.0195 81.5992 24.0195C81.3841 24.0195 81.18 23.9753 80.976 23.9367C80.7719 23.8981 80.5568 23.8595 80.3418 23.8099L79.4318 23.5563L79.2167 20.4959C79.7594 20.6712 80.3118 20.8148 80.8712 20.926C81.2787 21.001 81.6922 21.0379 82.1065 21.0363C82.3994 21.0377 82.6921 21.023 82.9834 20.9922C83.1941 20.9712 83.3994 20.9133 83.59 20.8213C83.7453 20.7356 83.8748 20.61 83.965 20.4573C84.0383 20.3346 84.0905 20.2004 84.1195 20.0603C83.2735 20.0666 82.4303 19.9646 81.6102 19.7571C80.8748 19.5774 80.1804 19.2593 79.5642 18.8197C78.9755 18.387 78.499 17.8198 78.1744 17.1654C77.8198 16.4029 77.6462 15.5688 77.6671 14.7282C77.6498 13.9776 77.8073 13.2332 78.1269 12.5538C78.4466 11.8744 78.9197 11.2785 79.509 10.8132C80.1156 10.3361 80.8084 9.98039 81.5495 9.76549C82.383 9.51584 83.2494 9.39315 84.1195 9.40156H87.2188L87.1912 17.0165ZM80.6671 14.6786C80.66 15.0282 80.7317 15.3749 80.8767 15.6932C81.0035 15.9741 81.192 16.2229 81.4282 16.421C81.6786 16.6239 81.9675 16.7739 82.2775 16.8621C82.6348 16.9712 83.007 17.0233 83.3805 17.0165H84.2132V12.3571H83.3805C83.031 12.3575 82.6842 12.4172 82.3547 12.5336C82.0388 12.6371 81.7438 12.7958 81.4833 13.0023C81.2368 13.1998 81.0355 13.4481 80.8933 13.7301C80.7434 14.0237 80.6658 14.3489 80.6671 14.6786Z" fill="#FFCE00"/>
<path d="M88.8567 2.39312L90.2189 2.17256C90.2068 2.04602 90.2068 1.91862 90.2189 1.79209C90.2105 1.34858 90.3438 0.913947 90.5994 0.551411C90.7568 0.356712 90.9602 0.204326 91.1913 0.108045C91.4224 0.0117644 91.6739 -0.0253709 91.923 5.4203e-07C92.1393 -0.0094044 92.3551 0.0286684 92.5552 0.111545C92.7553 0.194421 92.9348 0.320091 93.0811 0.479728C93.3787 0.816347 93.5348 1.25491 93.5168 1.70386C93.5168 1.85825 93.5168 2.03471 93.5168 2.25527C93.4928 2.52983 93.4505 2.80248 93.3899 3.07136L89.0111 3.71651L88.8567 2.39312ZM91.548 1.46124C91.5116 1.50453 91.4841 1.55457 91.467 1.60851C91.45 1.66244 91.4438 1.7192 91.4487 1.77554V1.95751L92.1767 1.84723V1.759C92.1819 1.65515 92.1528 1.55247 92.0939 1.46675C92.0589 1.42772 92.0152 1.39742 91.9664 1.37827C91.9176 1.35912 91.8649 1.35166 91.8127 1.35647C91.7638 1.35525 91.7151 1.3639 91.6697 1.3819C91.6242 1.3999 91.5828 1.42689 91.548 1.46124Z" fill="#FFCE00"/>
<path d="M88.0626 17.0165H89.8383V4.8855H92.8715V10.2562H98.1603C98.9202 10.2416 99.6772 10.3553 100.399 10.5926C101.045 10.8179 101.626 11.1963 102.092 11.6954C102.526 12.16 102.831 12.7305 102.975 13.3497C103.141 14.0524 103.222 14.7725 103.217 15.4946V20.0272H88.0626V17.0165ZM92.8715 13.2339V17.0055H100.212V15.3513C100.216 15.0553 100.179 14.7602 100.101 14.4745C100.036 14.2404 99.9255 14.0212 99.7761 13.8294C99.6318 13.6388 99.4423 13.4872 99.2246 13.3883C98.9613 13.2714 98.6741 13.2185 98.3864 13.2339H92.8715Z" fill="#FFCE00"/>
<path d="M114.545 19.1009C114.549 19.7644 114.469 20.4258 114.308 21.0694C114.16 21.6367 113.884 22.1628 113.503 22.6078C113.089 23.0716 112.566 23.4242 111.981 23.6335C111.231 23.8949 110.441 24.0182 109.648 23.9974C109.394 23.9974 109.162 23.9974 108.953 23.9974C108.743 23.9974 108.534 23.9533 108.324 23.9147C108.115 23.8761 107.911 23.8375 107.69 23.7879L106.786 23.5342L106.565 20.4739C107.108 20.6491 107.66 20.7927 108.219 20.904C108.625 20.979 109.037 21.0159 109.449 21.0143C109.744 21.0158 110.038 21.001 110.332 20.9701C110.542 20.9483 110.747 20.8905 110.938 20.7992C111.092 20.7134 111.22 20.5877 111.308 20.4353C111.386 20.3149 111.438 20.1798 111.462 20.0383C110.616 20.0451 109.773 19.9432 108.953 19.735C108.215 19.5565 107.519 19.2383 106.901 18.7976C106.313 18.3662 105.838 17.7986 105.517 17.1434C105.16 16.3817 104.986 15.547 105.01 14.7061C104.993 13.9561 105.15 13.2125 105.469 12.5333C105.787 11.8541 106.259 11.2579 106.846 10.7911C107.454 10.3153 108.146 9.95973 108.887 9.74342C109.722 9.4938 110.59 9.37112 111.462 9.37949H114.561L114.545 19.1009ZM108.015 14.6896C108.008 15.0392 108.08 15.386 108.225 15.7042C108.352 15.9851 108.54 16.2339 108.776 16.432C109.029 16.6349 109.32 16.7849 109.631 16.8732C109.98 16.9796 110.342 17.0316 110.707 17.0276H111.539V12.3571H110.707C110.357 12.3583 110.011 12.418 109.681 12.5336C109.366 12.6366 109.073 12.7954 108.815 13.0023C108.567 13.1988 108.366 13.4473 108.225 13.7301C108.081 14.0252 108.009 14.3503 108.015 14.6785V14.6896Z" fill="#FFCE00"/>
<path d="M130.003 6.90366L134.536 6.25299V7.63152L130.003 8.27115V6.90366Z" fill="#FFCE00"/>
<path d="M132.667 22.0178C132.053 22.0203 131.444 21.9196 130.863 21.7201C130.301 21.5262 129.773 21.2452 129.297 20.8874C128.825 20.5302 128.409 20.1046 128.062 19.6247C127.744 19.2035 127.5 18.7319 127.339 18.2296C127.115 18.2401 126.896 18.3011 126.698 18.4081C126.5 18.515 126.329 18.6651 126.198 18.8472C125.999 19.1276 125.869 19.4505 125.817 19.7901C125.742 20.2086 125.705 20.6332 125.707 21.0584V24.0139H122.696V21.0198C122.682 20.1659 122.796 19.3148 123.032 18.4943C123.244 17.7985 123.608 17.1583 124.097 16.6195C124.301 16.3781 124.539 16.1665 124.803 15.9909C125.061 15.819 125.337 15.673 125.624 15.5553C125.908 15.4419 126.199 15.3497 126.496 15.2796C126.7 15.2271 126.908 15.1939 127.119 15.1803C127.238 14.5838 127.452 14.0103 127.753 13.482C128.071 12.9021 128.489 12.3831 128.988 11.9491C129.489 11.5173 130.06 11.1742 130.676 10.9345C131.31 10.6838 131.985 10.5566 132.667 10.5595C133.436 10.5536 134.198 10.7057 134.906 11.0062C135.588 11.2949 136.209 11.7103 136.737 12.2303C137.265 12.7526 137.683 13.375 137.967 14.061C138.269 14.7837 138.421 15.5605 138.413 16.3438C138.413 16.5092 138.413 16.6747 138.413 16.8235C138.413 16.9724 138.413 17.0331 138.413 16.9945H140.371V20.0052H137.062C136.544 20.6121 135.901 21.0993 135.176 21.4333C134.396 21.8204 133.537 22.0205 132.667 22.0178ZM131.613 18.8031C131.947 18.9427 132.305 19.014 132.667 19.0126C133.033 19.0154 133.397 18.9461 133.737 18.8086C134.062 18.6837 134.36 18.4964 134.614 18.2572C134.87 18.0079 135.073 17.7083 135.208 17.3772C135.344 17.0461 135.41 16.6905 135.402 16.3328C135.407 15.9559 135.34 15.5815 135.204 15.23C135.082 14.9047 134.894 14.6081 134.652 14.3587C134.403 14.1192 134.109 13.9317 133.786 13.8073C133.436 13.6673 133.061 13.5961 132.683 13.5978C132.319 13.5933 131.958 13.6666 131.624 13.8128C131.313 13.9543 131.031 14.1525 130.792 14.3973C130.55 14.6449 130.363 14.9396 130.24 15.2631C130.108 15.6041 130.04 15.9669 130.042 16.3328C130.039 16.6952 130.107 17.0546 130.24 17.3915C130.363 17.7116 130.551 18.0026 130.792 18.2462C131.026 18.4839 131.306 18.6731 131.613 18.8031Z" fill="#FFCE00"/>
<path d="M145.136 8.27116C144.784 8.26761 144.442 8.1517 144.16 7.94031C143.849 7.67898 143.651 7.30747 143.608 6.90366L143.371 5.65195L144.711 5.38176L144.948 6.57833C144.965 6.67627 145.005 6.76887 145.064 6.84852C145.107 6.88605 145.162 6.9058 145.219 6.90366C145.263 6.90709 145.307 6.89868 145.347 6.87929C145.386 6.8599 145.42 6.83024 145.445 6.79337C145.512 6.67245 145.541 6.53402 145.527 6.39636C145.526 6.26341 145.515 6.13076 145.494 5.99934C145.494 5.83943 145.428 5.5913 145.368 5.25494L146.746 5.05643L146.961 6.26953C146.994 6.44047 147.083 6.52318 147.215 6.52318C147.347 6.52318 147.485 6.42944 147.485 6.23645C147.484 6.06775 147.465 5.89962 147.43 5.73467C147.36 5.43994 147.264 5.15206 147.143 4.87447L148.572 4.54913C148.642 4.89836 148.697 5.15201 148.737 5.31008L148.809 5.74569C148.829 5.87711 148.84 6.00977 148.842 6.14271C148.857 6.37292 148.824 6.60375 148.747 6.82093C148.669 7.03812 148.547 7.23705 148.39 7.40544C148.224 7.5565 148.03 7.67325 147.819 7.74897C147.608 7.82468 147.384 7.85785 147.16 7.84657C146.997 7.85903 146.833 7.82861 146.686 7.75834C146.597 7.70362 146.523 7.62786 146.471 7.53778C146.366 7.6969 146.234 7.83526 146.079 7.94582C145.817 8.16864 145.48 8.28475 145.136 8.27116Z" fill="#FFCE00"/>
<path d="M139.5 17.0165H141.187C141.149 16.6195 141.132 16.3107 141.132 16.0902C141.127 15.3164 141.277 14.5495 141.573 13.8349C141.861 13.1564 142.271 12.536 142.781 12.0042C143.292 11.4775 143.901 11.056 144.573 10.7635C145.269 10.4604 146.02 10.3064 146.779 10.3114C147.548 10.3055 148.31 10.4575 149.018 10.758C150.4 11.3246 151.504 12.412 152.09 13.7853C152.387 14.5093 152.537 15.2854 152.531 16.0681C152.526 16.378 152.502 16.6874 152.46 16.9945H154.434V20.0052H150.921C150.416 20.5482 149.804 20.9801 149.123 21.2734C148.39 21.5905 147.6 21.7519 146.801 21.7476C146.018 21.7534 145.243 21.5897 144.529 21.2679C143.859 20.9732 143.253 20.5519 142.742 20.0272H139.516L139.5 17.0165ZM145.737 18.5329C146.069 18.6714 146.425 18.7408 146.785 18.7369C147.151 18.7388 147.514 18.6715 147.855 18.5384C148.183 18.4167 148.484 18.2291 148.737 17.987C148.986 17.7466 149.183 17.4576 149.316 17.1378C149.457 16.799 149.529 16.4352 149.526 16.0681C149.532 15.6906 149.462 15.3157 149.322 14.9653C149.199 14.6403 149.012 14.3438 148.77 14.0941C148.517 13.8565 148.222 13.6693 147.899 13.5426C147.548 13.4039 147.173 13.3347 146.796 13.3386C146.432 13.3341 146.071 13.4075 145.737 13.5537C145.425 13.692 145.143 13.8885 144.904 14.1327C144.664 14.383 144.476 14.6793 144.353 15.0039C144.215 15.3436 144.146 15.7071 144.149 16.0736C144.146 16.4366 144.215 16.7965 144.353 17.1323C144.476 17.4519 144.664 17.7428 144.904 17.987C145.147 18.2169 145.429 18.4017 145.737 18.5329Z" fill="#FFCE00"/>
<path d="M159.657 6.0159L161.013 5.80085C161.002 5.67429 161.002 5.54694 161.013 5.42037C161.012 4.97708 161.151 4.54474 161.41 4.18521C161.569 3.99166 161.772 3.84009 162.003 3.74392C162.234 3.64774 162.485 3.60992 162.734 3.6338C162.951 3.62471 163.167 3.6629 163.368 3.74573C163.569 3.82856 163.75 3.95406 163.897 4.11353C164.193 4.4516 164.348 4.88915 164.333 5.33766C164.333 5.49757 164.333 5.66851 164.333 5.88907C164.309 6.16182 164.267 6.43263 164.206 6.69965L159.839 7.37237L159.657 6.0159ZM162.359 5.08401C162.322 5.1273 162.295 5.17735 162.278 5.23128C162.261 5.28521 162.255 5.34198 162.26 5.39832V5.58028L162.982 5.47V5.38178C162.986 5.28052 162.96 5.18035 162.905 5.09504C162.871 5.05491 162.827 5.02385 162.778 5.00461C162.729 4.98537 162.676 4.97855 162.624 4.98476C162.575 4.9825 162.526 4.99013 162.481 5.00719C162.435 5.02425 162.394 5.05039 162.359 5.08401Z" fill="#FFCE00"/>
<path d="M153.601 17.0165H155.377V9.37398H158.388V10.2562H163.682C164.44 10.242 165.196 10.3557 165.916 10.5926C166.563 10.8176 167.146 11.196 167.614 11.6954C168.047 12.1605 168.349 12.7309 168.491 13.3496C168.66 14.0519 168.742 14.7724 168.734 15.4946V20.0272H153.601V17.0165ZM158.388 13.2339V17.0055H165.728V15.3513C165.733 15.0553 165.696 14.7602 165.618 14.4745C165.553 14.2404 165.442 14.0212 165.293 13.8294C165.148 13.6388 164.959 13.4872 164.741 13.3882C164.493 13.2703 164.222 13.2099 163.947 13.2118L158.388 13.2339Z" fill="#FFCE00"/>
</svg>
