<svg width="218" height="177" viewBox="0 0 218 177" fill="none" xmlns="http://www.w3.org/2000/svg">
<g filter="url(#filter0_d_5740_55903)">
<path fill-rule="evenodd" clip-rule="evenodd" d="M0 0C6.0044 2.1192 21.192 6.3576 33.9072 6.3576C61.9866 7.2406 119.947 8.90063 127.152 8.4768C137.042 8.3002 159.576 9.64235 170.596 16.4238C182.781 22.075 207.682 41.5363 209.801 74.172C210.86 87.417 208.211 117.827 189.139 133.51C182.251 140.397 163.92 154.066 145.695 153.642L34.9668 155.231C24.3708 155.231 2.649 155.867 0.5298 158.41L0 0ZM139.867 117.615C160.349 117.615 176.953 101.011 176.953 80.5294C176.953 60.0473 160.349 43.4434 139.867 43.4434C119.385 43.4434 102.781 60.0473 102.781 80.5294C102.781 101.011 119.385 117.615 139.867 117.615Z" fill="#D07228"/>
</g>
<defs>
<filter id="filter0_d_5740_55903" x="-8" y="0" width="226" height="176.41" filterUnits="userSpaceOnUse" color-interpolation-filters="sRGB">
<feFlood flood-opacity="0" result="BackgroundImageFix"/>
<feColorMatrix in="SourceAlpha" type="matrix" values="0 0 0 0 0 0 0 0 0 0 0 0 0 0 0 0 0 0 127 0" result="hardAlpha"/>
<feOffset dy="10"/>
<feGaussianBlur stdDeviation="4"/>
<feComposite in2="hardAlpha" operator="out"/>
<feColorMatrix type="matrix" values="0 0 0 0 0 0 0 0 0 0 0 0 0 0 0 0 0 0 0.5 0"/>
<feBlend mode="normal" in2="BackgroundImageFix" result="effect1_dropShadow_5740_55903"/>
<feBlend mode="normal" in="SourceGraphic" in2="effect1_dropShadow_5740_55903" result="shape"/>
</filter>
</defs>
</svg>
